<?xml version="1.0" encoding="utf-8"?>
<!-- Generator: Adobe Illustrator 21.1.0, SVG Export Plug-In . SVG Version: 6.00 Build 0)  -->
<svg version="1.1" id="Ebene_1" xmlns="http://www.w3.org/2000/svg" xmlns:xlink="http://www.w3.org/1999/xlink" x="0px" y="0px"
	 viewBox="0 0 140.1 271.4" style="enable-background:new 0 0 140.1 271.4;" xml:space="preserve">
<style type="text/css">
	.st0{display:none;}
	.st1{display:inline;}
	.st2{display:inline;clip-path:url(#SVGID_2_);}
	.st3{clip-path:url(#SVGID_4_);}
	.st4{fill:none;stroke:#000000;stroke-miterlimit:10;}
</style>
<g>
	<g>
		<g id="Ebene_2" class="st0">
			<defs>
				<rect id="SVGID_1_" x="-52.9" y="-23.5" width="244.9" height="323.6"/>
			</defs>
			<clipPath id="SVGID_2_" class="st1">
				<use xlink:href="#SVGID_1_"  style="overflow:visible;"/>
			</clipPath>
			<g class="st2">
				<g>
					<defs>
						<rect id="SVGID_3_" x="-56.3" y="-27.8" width="251.8" height="331.4"/>
					</defs>
					<clipPath id="SVGID_4_">
						<use xlink:href="#SVGID_3_"  style="overflow:visible;"/>
					</clipPath>
					<g class="st3">
						
							<image style="overflow:visible;enable-background:new    ;" width="137" height="180" xlink:href="AF2C76848DC9D04A.jpg"  transform="matrix(1.8397 0 0 1.8397 -56.4215 -27.7166)">
						</image>
					</g>
				</g>
			</g>
		</g>
		<g id="Ebene_1_1_">
			<g>
				<path class="st4" d="M98.1,1.1c3.5,0.5,21-1,38,21c0,0-9.5,0.5-20.5,27.5c0,0-11,21-13,59c0,0,20,13,26,80c0,0,3,63,8,79
					c0,0-6,2-12,0c0,0-11,5-21,0c0,0-9,4-17,0c0,0-8,4-17,0c0,0-9,3-17,0c0,0-8,6-16,0c0,0-11,6-20,0c0,0-9,4-14,0c0,0,8-28,9-79
					c0,0,1-40,24-81c0,0-1-38-11-58c0,0-9-23-19-27c0,0,8-20,37-21c0,0,6,20,27,21C92.6,23.7,98.1,1.1,98.1,1.1z"/>
				<path class="st4" d="M36.6,1.9c0,0,4,24.9,33,25.9s35-26,35-26"/>
				<path class="st4" d="M116.1,48.6h5.6c0,0,9.9-19,17.2-23c0,0-2.2-3-3.1-4"/>
				<path class="st4" d="M24.1,48.6h-5.6c0,0-9.9-19-17.2-23c0,0,2.2-2,4.2-3"/>
				<line class="st4" x1="124.6" y1="267.6" x2="115.6" y2="222.6"/>
				<line class="st4" x1="103.6" y1="267.6" x2="96.6" y2="209.6"/>
				<line class="st4" x1="86.6" y1="267.6" x2="80.6" y2="188.6"/>
				<line class="st4" x1="69.6" y1="267.6" x2="69.6" y2="198.6"/>
				<line class="st4" x1="52.6" y1="267.6" x2="60.6" y2="188.6"/>
				<line class="st4" x1="36.6" y1="267.6" x2="43.6" y2="209.6"/>
				<line class="st4" x1="16.6" y1="267.6" x2="25.6" y2="222.6"/>
			</g>
		</g>
	</g>
</g>
</svg>
