<?xml version="1.0" encoding="utf-8"?>
<!-- Generator: Adobe Illustrator 21.1.0, SVG Export Plug-In . SVG Version: 6.00 Build 0)  -->
<svg version="1.1" id="Ebene_1" xmlns="http://www.w3.org/2000/svg" xmlns:xlink="http://www.w3.org/1999/xlink" x="0px" y="0px"
	 viewBox="0 0 1082.9 396" style="enable-background:new 0 0 1082.9 396;" xml:space="preserve">
<style type="text/css">
	.st0{display:none;}
	.st1{display:inline;}
	.st2{display:inline;clip-path:url(#SVGID_2_);}
	.st3{clip-path:url(#SVGID_4_);}
	.st4{fill:none;stroke:#000000;stroke-miterlimit:10;}
	.st5{display:none;clip-path:url(#SVGID_6_);}
	.st6{clip-path:url(#SVGID_8_);}
	.st7{clip-path:url(#SVGID_6_);}
	.st8{fill:#FFFFFF;stroke:#000000;stroke-miterlimit:10;}
	.st9{display:none;clip-path:url(#SVGID_10_);}
	.st10{clip-path:url(#SVGID_12_);}
	.st11{clip-path:url(#SVGID_10_);}
</style>
<g>
	<g>
		<g id="Ebene_1_1_" class="st0">
			<defs>
				<rect id="SVGID_1_" x="753.6" y="-19.8" width="333.3" height="444.4"/>
			</defs>
			<clipPath id="SVGID_2_" class="st1">
				<use xlink:href="#SVGID_1_"  style="overflow:visible;"/>
			</clipPath>
			<g class="st2">
				<g>
					<defs>
						<rect id="SVGID_3_" x="748.3" y="-24.8" width="343" height="449.4"/>
					</defs>
					<clipPath id="SVGID_4_">
						<use xlink:href="#SVGID_3_"  style="overflow:visible;"/>
					</clipPath>
					<g class="st3">
						
							<image style="overflow:visible;enable-background:new    ;" width="157" height="205" xlink:href="68F17206AD4C4F72.jpg"  transform="matrix(2.1894 0 0 2.1894 748.0223 -24.459)">
						</image>
					</g>
				</g>
			</g>
		</g>
		<g id="wohlfuehlkleidung">
		</g>
		<g id="Ebene_3">
			<g>
				<path class="st4" d="M1002.8,330.5c0,0,11.1,0.7,10.5-5.2l-4.6-155c0,0,0-60.2,23.5-85c0,0,1.3-11.8-41.9-28.8
					c0,0,10.5-35.3-53.6-35.3c-65.4,0-57.6,35.3-57.6,35.3s-39.2,13.1-45.8,27.5c0,0,22.2,14.4,24.9,86.3c0,0-1.3,121.7-5.2,154.4
					c0,0,0,7.8,10.5,6.5L1002.8,330.5z"/>
				<path class="st4" d="M879,56.3c0,0,16.5,27.5,57,48.4c0,0,45.1-24.9,54.3-48.4"/>
				<path class="st4" d="M936.1,79.9c0,0,38.6-15.7,42.5-35.3c3.7-18.3-42.5-20.9-42.5-20.9s-40.9-0.9-42.5,20.9
					C892.2,62.9,936.1,79.9,936.1,79.9z"/>
				<circle class="st4" cx="943.9" cy="88.5" r="5.9"/>
				<circle class="st4" cx="926.9" cy="88.5" r="5.9"/>
				<path class="st4" d="M943.9,159.7L943.9,159.7c-1.8,0-3.3-1.4-3.3-3.3v-68c0-1.8,1.4-3.3,3.3-3.3l0,0c1.8,0,3.3,1.4,3.3,3.3v68
					C947.2,158.2,945.7,159.7,943.9,159.7z"/>
				<path class="st4" d="M926.9,159.7L926.9,159.7c-1.8,0-3.3-1.4-3.3-3.3v-68c0-1.8,1.4-3.3,3.3-3.3l0,0c1.8,0,3.3,1.4,3.3,3.3v68
					C930.2,158.2,928.7,159.7,926.9,159.7z"/>
				<polyline class="st4" points="863.5,331.1 863.5,349.4 1002.1,349.4 1002.1,330.3 				"/>
				<g>
					<path class="st4" d="M1032.2,85.1c9.2,11.8,30.1,83.7,30.1,83.7l7.8,41.9c6.5,73.3-7.8,119-7.8,119h-34c0,0,0-94.2,6.5-119
						c0,0-20.9-24.9-26.2-40.6"/>
					<rect x="1028.3" y="329.8" class="st4" width="34" height="14.4"/>
				</g>
				<g>
					<path class="st4" d="M833.4,83.8c-9.2,11.8-28.9,85-28.9,85l-7.8,41.9c-6.5,73.3,7.8,119,7.8,119h34c0,0,0-94.2-6.5-119
						c0,0,20.9-24.9,26.2-40.6"/>
					<rect x="804.5" y="329.8" class="st4" width="34" height="14.4"/>
				</g>
			</g>
		</g>
	</g>
</g>
<g>
	<g>
		<g>
			<g>
				<defs>
					<rect id="SVGID_5_" x="-52.6" y="-23" width="450.8" height="450.8"/>
				</defs>
				<clipPath id="SVGID_6_">
					<use xlink:href="#SVGID_5_"  style="overflow:visible;"/>
				</clipPath>
				<g id="Ebene_1_2_" class="st5">
					<g class="st1">
						<g>
							<defs>
								<rect id="SVGID_7_" x="-52.6" y="-23" width="454" height="454"/>
							</defs>
							<clipPath id="SVGID_8_">
								<use xlink:href="#SVGID_7_"  style="overflow:visible;"/>
							</clipPath>
							<g class="st6">
								
									<image style="overflow:visible;enable-background:new    ;" width="227" height="228" xlink:href="6B0240D150F02ACC.jpg"  transform="matrix(1.9956 0 0 1.9956 -52.1066 -23.501)">
								</image>
							</g>
						</g>
					</g>
				</g>
				<g id="Ebene_3_1_" class="st7">
					<path class="st4" d="M249.4,349.8v-188l23,33l51-33c0,0-35.5-72.5-56.5-90.5c0,0-52-22-60-24h-73c0,0-55,16-62,24s-56,80-57,90
						l51,33l23-33v188L249.4,349.8z"/>
					<path class="st4" d="M206.9,47.3"/>
					<g>
						<path class="st8" d="M206.9,47.3l13,4.7c0,0-11,47.3-51,46.3c-44.4-1.1-48-47-48-47l13-4"/>
						<path class="st8" d="M133.9,47.3c0,0,7,33,35,33c31.1,0,38-33,38-33H133.9z"/>
					</g>
				</g>
			</g>
		</g>
	</g>
</g>
<g>
	<g>
		<g>
			<g>
				<defs>
					<rect id="SVGID_9_" x="381.3" y="-22.2" width="340" height="449.2"/>
				</defs>
				<clipPath id="SVGID_10_">
					<use xlink:href="#SVGID_9_"  style="overflow:visible;"/>
				</clipPath>
				<g id="Ebene_2" class="st9">
					<g class="st1">
						<g>
							<defs>
								<rect id="SVGID_11_" x="376.5" y="-28.2" width="349.5" height="460"/>
							</defs>
							<clipPath id="SVGID_12_">
								<use xlink:href="#SVGID_11_"  style="overflow:visible;"/>
							</clipPath>
							<g class="st10">
								
									<image style="overflow:visible;enable-background:new    ;" width="137" height="180" xlink:href="AF2C76848DC9D04A.jpg"  transform="matrix(2.5537 0 0 2.5537 376.3712 -28.0524)">
								</image>
							</g>
						</g>
					</g>
				</g>
				<g id="Ebene_1_3_" class="st11">
					<g>
						<path class="st4" d="M590.9,11.9c4.9,0.7,29.2-1.4,52.7,29.2c0,0-13.2,0.7-28.5,38.2c0,0-15.3,29.2-18,81.9
							c0,0,27.8,18,36.1,111.1c0,0,4.2,87.5,11.1,109.7c0,0-8.3,2.8-16.7,0c0,0-15.3,6.9-29.2,0c0,0-12.5,5.6-23.6,0
							c0,0-11.1,5.6-23.6,0c0,0-12.5,4.2-23.6,0c0,0-11.1,8.3-22.2,0c0,0-15.3,8.3-27.8,0c0,0-12.5,5.6-19.4,0
							c0,0,11.1-38.9,12.5-109.7c0,0,1.4-55.5,33.3-112.4c0,0-1.4-52.7-15.3-80.5c0,0-12.5-31.9-26.4-37.5c0,0,11.1-27.8,51.4-29.2
							c0,0,8.3,27.8,37.5,29.2C583.2,43.3,590.9,11.9,590.9,11.9z"/>
						<path class="st4" d="M505.5,13.1c0,0,5.6,34.6,45.8,36c40.3,1.4,48.6-36.1,48.6-36.1"/>
						<path class="st4" d="M615.9,77.9h7.8c0,0,13.7-26.4,23.9-31.9c0,0-3.1-4.2-4.3-5.6"/>
						<path class="st4" d="M488.1,77.9h-7.8c0,0-13.7-26.4-23.9-31.9c0,0,3.1-2.8,5.8-4.2"/>
						<line class="st4" x1="627.7" y1="381.9" x2="615.2" y2="319.4"/>
						<line class="st4" x1="598.5" y1="381.9" x2="588.8" y2="301.4"/>
						<line class="st4" x1="574.9" y1="381.9" x2="566.6" y2="272.2"/>
						<line class="st4" x1="551.3" y1="381.9" x2="551.3" y2="286.1"/>
						<line class="st4" x1="527.7" y1="381.9" x2="538.8" y2="272.2"/>
						<line class="st4" x1="505.5" y1="381.9" x2="515.2" y2="301.4"/>
						<line class="st4" x1="477.7" y1="381.9" x2="490.2" y2="319.4"/>
					</g>
				</g>
			</g>
		</g>
	</g>
</g>
</svg>
