<?xml version="1.0" encoding="utf-8"?>
<!-- Generator: Adobe Illustrator 21.1.0, SVG Export Plug-In . SVG Version: 6.00 Build 0)  -->
<svg version="1.1" id="Ebene_1" xmlns="http://www.w3.org/2000/svg" xmlns:xlink="http://www.w3.org/1999/xlink" x="0px" y="0px"
	 viewBox="0 0 222.4 117.1" style="enable-background:new 0 0 222.4 117.1;" xml:space="preserve">
<g>
	<path d="M12.1,46.8c2.3,0,4-0.3,5.1-0.9c1.1-0.6,1.6-1.6,1.6-2.9c0-1.4-0.5-2.4-1.6-3.2c-1.1-0.8-2.9-1.7-5.3-2.7
		c-1.2-0.5-2.4-1-3.4-1.5c-1.1-0.5-2.1-1.1-2.9-1.8c-0.8-0.7-1.4-1.5-1.9-2.5s-0.7-2.1-0.7-3.5c0-2.8,1-5,3.1-6.6
		c2-1.6,4.8-2.4,8.3-2.4c0.9,0,1.8,0.1,2.6,0.1c0.9,0.1,1.7,0.2,2.5,0.4c0.8,0.1,1.4,0.3,2,0.5c0.6,0.2,1,0.3,1.4,0.4l-1,4.8
		c-0.6-0.3-1.5-0.6-2.8-1c-1.3-0.3-2.8-0.5-4.6-0.5c-1.6,0-2.9,0.3-4.1,0.9C9,25,8.5,26,8.5,27.3c0,0.7,0.1,1.3,0.4,1.8
		c0.3,0.5,0.7,1,1.2,1.4s1.2,0.8,2,1.2c0.8,0.4,1.8,0.7,2.9,1.1c1.5,0.6,2.8,1.1,4,1.6c1.2,0.5,2.1,1.2,3,1.9
		c0.8,0.7,1.4,1.6,1.9,2.6c0.4,1,0.7,2.3,0.7,3.8c0,2.9-1.1,5.1-3.2,6.5c-2.1,1.5-5.2,2.2-9.1,2.2c-2.8,0-4.9-0.2-6.5-0.7
		C4,50.4,3,50,2.4,49.8l1-4.8c0.6,0.2,1.7,0.6,3.1,1.1C7.9,46.5,9.7,46.8,12.1,46.8z"/>
	<path d="M31.6,20.5c1.3-0.3,3-0.7,5.1-1c2.1-0.4,4.5-0.5,7.3-0.5c2,0,3.7,0.3,5,0.8c1.4,0.5,2.5,1.3,3.4,2.4
		c0.3-0.2,0.7-0.5,1.3-0.8s1.3-0.7,2.2-1c0.9-0.3,1.9-0.6,2.9-0.9c1.1-0.3,2.2-0.4,3.5-0.4c2.4,0,4.4,0.4,5.9,1
		c1.5,0.7,2.7,1.7,3.6,3c0.9,1.3,1.4,2.8,1.7,4.6c0.3,1.8,0.5,3.7,0.5,5.8v17.5h-5.6V34.5c0-1.8-0.1-3.4-0.3-4.7
		c-0.2-1.3-0.5-2.4-1-3.3c-0.5-0.9-1.2-1.5-2-2c-0.9-0.4-2-0.6-3.3-0.6c-1.9,0-3.4,0.3-4.6,0.8c-1.2,0.5-2.1,1-2.5,1.4
		c0.3,1,0.6,2.2,0.7,3.4c0.2,1.2,0.2,2.5,0.2,3.9v17.5H50V34.5c0-1.8-0.1-3.4-0.3-4.7c-0.2-1.3-0.6-2.4-1-3.3c-0.5-0.9-1.2-1.5-2-2
		c-0.9-0.4-2-0.6-3.3-0.6c-0.6,0-1.2,0-1.8,0.1c-0.6,0-1.3,0.1-1.8,0.1c-0.6,0.1-1.1,0.1-1.6,0.2c-0.5,0.1-0.8,0.1-1,0.2v26.3h-5.6
		V20.5z"/>
	<path d="M93.3,18.8c2.2,0,4.1,0.3,5.7,0.9c1.5,0.6,2.8,1.4,3.7,2.5c0.9,1.1,1.6,2.3,2,3.8c0.4,1.5,0.6,3.1,0.6,4.8v19.5
		c-0.5,0.1-1.2,0.2-2,0.3c-0.9,0.1-1.8,0.3-2.9,0.4c-1.1,0.1-2.2,0.2-3.5,0.3c-1.3,0.1-2.5,0.2-3.8,0.2c-1.8,0-3.4-0.2-4.9-0.5
		c-1.5-0.4-2.8-0.9-3.8-1.7c-1.1-0.8-1.9-1.8-2.5-3.1c-0.6-1.3-0.9-2.8-0.9-4.6c0-1.7,0.3-3.2,1-4.4c0.7-1.2,1.6-2.2,2.9-3
		c1.2-0.8,2.6-1.3,4.2-1.7c1.6-0.4,3.3-0.5,5-0.5c0.6,0,1.1,0,1.7,0.1s1.2,0.1,1.7,0.2c0.5,0.1,1,0.2,1.4,0.3
		c0.4,0.1,0.7,0.1,0.8,0.2V31c0-0.9-0.1-1.8-0.3-2.7c-0.2-0.9-0.6-1.7-1.1-2.4c-0.5-0.7-1.2-1.3-2.1-1.7c-0.9-0.4-2.1-0.6-3.5-0.6
		c-1.8,0-3.4,0.1-4.8,0.4c-1.4,0.3-2.4,0.5-3.1,0.8l-0.7-4.6c0.7-0.3,1.9-0.6,3.6-0.9C89.5,19,91.3,18.8,93.3,18.8z M93.8,46.8
		c1.3,0,2.5,0,3.5-0.1s1.9-0.2,2.5-0.3V37c-0.4-0.2-1-0.4-1.9-0.5c-0.9-0.1-2-0.2-3.3-0.2c-0.8,0-1.7,0.1-2.7,0.2
		c-0.9,0.1-1.8,0.4-2.6,0.8c-0.8,0.4-1.4,0.9-2,1.6c-0.5,0.7-0.8,1.5-0.8,2.6c0,2,0.6,3.4,1.9,4.2C89.8,46.4,91.6,46.8,93.8,46.8z"
		/>
	<path d="M126.1,18.9c0.5,0,1,0,1.7,0.1c0.6,0.1,1.2,0.1,1.8,0.2c0.6,0.1,1.1,0.2,1.7,0.3c0.5,0.1,0.9,0.2,1.1,0.3l-1,4.9
		c-0.4-0.2-1.2-0.3-2.2-0.6c-1-0.2-2.3-0.3-3.9-0.3c-1,0-2.1,0.1-3.1,0.3c-1,0.2-1.7,0.4-2,0.4v26.2h-5.6V20.9
		c1.3-0.5,3-0.9,4.9-1.4C121.4,19.1,123.6,18.9,126.1,18.9z"/>
	<path d="M142.9,19.6h11.8v4.7h-11.8v14.4c0,1.6,0.1,2.9,0.4,3.9c0.2,1,0.6,1.8,1.1,2.4c0.5,0.6,1.1,1,1.8,1.2
		c0.7,0.2,1.6,0.4,2.5,0.4c1.7,0,3-0.2,4.1-0.6c1-0.4,1.7-0.6,2.1-0.8l1.1,4.6c-0.6,0.3-1.5,0.6-2.9,1c-1.4,0.4-3,0.6-4.8,0.6
		c-2.1,0-3.9-0.3-5.2-0.8c-1.4-0.5-2.5-1.4-3.3-2.4c-0.8-1.1-1.4-2.4-1.8-4c-0.3-1.6-0.5-3.4-0.5-5.5V10.9l5.6-1V19.6z"/>
	<path d="M18.4,106.5c-2.5,0-4.7-0.4-6.6-1.2c-1.9-0.8-3.5-1.9-4.8-3.4c-1.3-1.4-2.3-3.2-2.9-5.1c-0.6-2-1-4.2-1-6.6s0.3-4.6,1-6.6
		c0.7-2,1.7-3.7,3-5.2c1.3-1.5,2.9-2.6,4.7-3.4c1.9-0.8,3.9-1.2,6.2-1.2c1.4,0,2.8,0.1,4.2,0.4c1.4,0.2,2.7,0.6,4,1.1L25,80
		c-0.8-0.4-1.8-0.7-2.9-1c-1.1-0.2-2.3-0.4-3.5-0.4c-3.1,0-5.5,1-7.2,2.9c-1.7,2-2.5,4.8-2.5,8.6c0,1.7,0.2,3.2,0.6,4.6
		c0.4,1.4,1,2.6,1.8,3.6c0.8,1,1.9,1.8,3.1,2.3c1.3,0.5,2.8,0.8,4.7,0.8c1.5,0,2.8-0.1,4-0.4c1.2-0.3,2.1-0.6,2.8-0.9l0.8,4.7
		c-0.3,0.2-0.8,0.4-1.4,0.6c-0.6,0.2-1.3,0.3-2,0.5c-0.8,0.1-1.6,0.3-2.4,0.4C20,106.5,19.2,106.5,18.4,106.5z"/>
	<path d="M42.1,106.4c-3.4-0.1-5.9-0.8-7.3-2.2c-1.4-1.4-2.2-3.6-2.2-6.5V60.2l5.6-1v37.5c0,0.9,0.1,1.7,0.2,2.3
		c0.2,0.6,0.4,1.1,0.8,1.4c0.4,0.4,0.8,0.6,1.4,0.8c0.6,0.2,1.3,0.3,2.2,0.4L42.1,106.4z"/>
	<path d="M76.6,90.2c0,2.5-0.4,4.7-1.1,6.7c-0.7,2-1.7,3.7-3,5.2c-1.3,1.4-2.9,2.6-4.6,3.3c-1.8,0.8-3.8,1.2-5.9,1.2
		c-2.1,0-4.1-0.4-5.9-1.2c-1.8-0.8-3.4-1.9-4.6-3.3c-1.3-1.4-2.3-3.2-3-5.2c-0.7-2-1.1-4.2-1.1-6.7c0-2.4,0.4-4.7,1.1-6.7
		c0.7-2,1.7-3.8,3-5.2c1.3-1.4,2.9-2.5,4.6-3.3c1.8-0.8,3.8-1.2,5.9-1.2c2.1,0,4.1,0.4,5.9,1.2c1.8,0.8,3.3,1.9,4.6,3.3
		c1.3,1.4,2.3,3.2,3,5.2C76.3,85.5,76.6,87.8,76.6,90.2z M70.8,90.2c0-3.5-0.8-6.3-2.4-8.4c-1.6-2.1-3.7-3.1-6.4-3.1
		c-2.7,0-4.9,1-6.5,3.1c-1.6,2.1-2.4,4.9-2.4,8.4c0,3.5,0.8,6.3,2.4,8.4c1.6,2.1,3.7,3.1,6.5,3.1c2.7,0,4.9-1,6.4-3.1
		C70,96.5,70.8,93.7,70.8,90.2z"/>
	<path d="M89.7,74.6h11.8v4.7H89.7v14.4c0,1.6,0.1,2.9,0.4,3.9c0.2,1,0.6,1.8,1.1,2.4c0.5,0.6,1.1,1,1.8,1.2
		c0.7,0.2,1.6,0.4,2.5,0.4c1.7,0,3-0.2,4.1-0.6c1-0.4,1.7-0.6,2.1-0.8l1.1,4.6c-0.6,0.3-1.5,0.6-2.9,1c-1.4,0.4-3,0.6-4.8,0.6
		c-2.1,0-3.9-0.3-5.2-0.8c-1.4-0.5-2.5-1.4-3.3-2.4c-0.8-1.1-1.4-2.4-1.8-4c-0.3-1.6-0.5-3.4-0.5-5.5V65.9l5.6-1V74.6z"/>
	<path d="M108.6,105.8V60.2l5.6-1v16c1-0.4,2.1-0.7,3.3-0.9c1.2-0.2,2.3-0.3,3.5-0.3c2.5,0,4.5,0.4,6.2,1c1.6,0.7,2.9,1.7,3.9,2.9
		c1,1.3,1.7,2.8,2.1,4.5c0.4,1.8,0.6,3.7,0.6,5.8v17.5h-5.6V89.5c0-1.9-0.1-3.6-0.4-4.9c-0.3-1.4-0.7-2.5-1.3-3.3
		c-0.6-0.8-1.4-1.4-2.4-1.8c-1-0.4-2.2-0.6-3.7-0.6c-0.6,0-1.2,0-1.9,0.1c-0.6,0.1-1.3,0.2-1.8,0.3c-0.6,0.1-1.1,0.2-1.6,0.3
		c-0.5,0.1-0.8,0.2-1,0.3v25.9H108.6z"/>
	<path d="M145.6,69c-1,0-1.9-0.3-2.6-1c-0.7-0.7-1-1.5-1-2.7c0-1.1,0.3-2,1-2.7c0.7-0.7,1.5-1,2.6-1c1,0,1.8,0.3,2.5,1
		c0.7,0.7,1.1,1.6,1.1,2.7c0,1.1-0.4,2-1.1,2.7C147.5,68.6,146.6,69,145.6,69z M148.4,105.8h-5.6V74.6h5.6V105.8z"/>
	<path d="M158,75.5c1.3-0.3,3-0.7,5.1-1c2.1-0.4,4.6-0.5,7.3-0.5c2.5,0,4.5,0.4,6.2,1c1.6,0.7,2.9,1.7,3.9,2.9
		c1,1.3,1.7,2.8,2.1,4.5c0.4,1.8,0.6,3.7,0.6,5.8v17.5h-5.6V89.5c0-1.9-0.1-3.6-0.4-4.9c-0.3-1.4-0.7-2.5-1.3-3.3
		c-0.6-0.8-1.4-1.4-2.4-1.8c-1-0.4-2.2-0.6-3.7-0.6c-0.6,0-1.2,0-1.9,0.1c-0.6,0-1.3,0.1-1.8,0.1c-0.6,0.1-1.1,0.1-1.6,0.2
		c-0.5,0.1-0.8,0.1-1,0.2v26.3H158V75.5z"/>
	<path d="M212,102.7c-0.5,0.3-1.4,0.7-2.8,1.2c-1.4,0.5-3,0.8-4.8,0.8c-1.9,0-3.7-0.3-5.3-0.9c-1.7-0.6-3.1-1.5-4.4-2.8
		c-1.2-1.3-2.2-2.8-2.9-4.7c-0.7-1.9-1.1-4.1-1.1-6.7c0-2.3,0.3-4.4,1-6.3c0.7-1.9,1.7-3.5,3-4.9c1.3-1.4,2.9-2.5,4.8-3.2
		c1.9-0.8,4-1.2,6.4-1.2c2.6,0,4.9,0.2,6.8,0.6c1.9,0.4,3.6,0.7,4.9,1v27.8c0,4.8-1.2,8.3-3.7,10.4c-2.5,2.2-6.2,3.2-11.3,3.2
		c-2,0-3.8-0.2-5.5-0.5c-1.7-0.3-3.3-0.7-4.5-1.1l1-4.9c1.1,0.4,2.5,0.8,4.1,1.2c1.6,0.3,3.3,0.5,5.1,0.5c3.3,0,5.7-0.7,7.2-2
		c1.5-1.3,2.2-3.4,2.2-6.3V102.7z M212,79.5c-0.6-0.2-1.3-0.3-2.2-0.5c-0.9-0.1-2.2-0.2-3.8-0.2c-3,0-5.3,1-6.9,2.9
		c-1.6,2-2.4,4.6-2.4,7.8c0,1.8,0.2,3.3,0.7,4.6c0.5,1.3,1.1,2.3,1.9,3.2c0.8,0.8,1.7,1.5,2.7,1.9c1,0.4,2.1,0.6,3.1,0.6
		c1.5,0,2.8-0.2,4.1-0.6c1.2-0.4,2.2-0.9,2.9-1.5V79.5z"/>
</g>
</svg>
