<?xml version="1.0" encoding="utf-8"?>
<!-- Generator: Adobe Illustrator 21.1.0, SVG Export Plug-In . SVG Version: 6.00 Build 0)  -->
<svg version="1.1" id="Ebene_1" xmlns="http://www.w3.org/2000/svg" xmlns:xlink="http://www.w3.org/1999/xlink" x="0px" y="0px"
	 viewBox="0 0 329 319" style="enable-background:new 0 0 329 319;" xml:space="preserve">
<style type="text/css">
	.st0{display:none;}
	.st1{display:inline;}
	.st2{display:inline;clip-path:url(#SVGID_2_);}
	.st3{clip-path:url(#SVGID_4_);}
	.st4{fill:none;stroke:#000000;stroke-miterlimit:10;}
	.st5{fill:#FFFFFF;stroke:#000000;stroke-miterlimit:10;}
</style>
<g>
	<g>
		<g id="Ebene_1_1_" class="st0">
			<defs>
				<rect id="SVGID_1_" x="-54" y="-60.8" width="450.8" height="450.8"/>
			</defs>
			<clipPath id="SVGID_2_" class="st1">
				<use xlink:href="#SVGID_1_"  style="overflow:visible;"/>
			</clipPath>
			<g class="st2">
				<g>
					<defs>
						<rect id="SVGID_3_" x="-54" y="-60.8" width="454" height="454"/>
					</defs>
					<clipPath id="SVGID_4_">
						<use xlink:href="#SVGID_3_"  style="overflow:visible;"/>
					</clipPath>
					<g class="st3">
						
							<image style="overflow:visible;enable-background:new    ;" width="227" height="228" xlink:href="6B0240D150F02ACC.jpg"  transform="matrix(1.9956 0 0 1.9956 -53.5006 -61.3018)">
						</image>
					</g>
				</g>
			</g>
		</g>
		<g id="Ebene_3">
			<path class="st4" d="M248,312V124l23,33l51-33c0,0-35.5-72.5-56.5-90.5c0,0-52-22-60-24h-73c0,0-55,16-62,24s-56,80-57,90l51,33
				l23-33v188L248,312z"/>
			<path class="st4" d="M205.5,9.5"/>
			<g>
				<path class="st5" d="M205.5,9.5l13,4.7c0,0-11,47.3-51,46.3c-44.4-1.1-48-47-48-47l13-4"/>
				<path class="st5" d="M132.5,9.5c0,0,7,33,35,33c31.1,0,38-33,38-33H132.5z"/>
			</g>
		</g>
	</g>
</g>
</svg>
