<?xml version="1.0" encoding="utf-8"?>
<!-- Generator: Adobe Illustrator 21.1.0, SVG Export Plug-In . SVG Version: 6.00 Build 0)  -->
<svg version="1.1" id="Ebene_1" xmlns="http://www.w3.org/2000/svg" xmlns:xlink="http://www.w3.org/1999/xlink" x="0px" y="0px"
	 viewBox="0 0 214.7 253.5" style="enable-background:new 0 0 214.7 253.5;" xml:space="preserve">
<style type="text/css">
	.st0{display:none;}
	.st1{display:inline;}
	.st2{display:inline;clip-path:url(#SVGID_2_);}
	.st3{clip-path:url(#SVGID_4_);}
	.st4{fill:none;stroke:#000000;stroke-miterlimit:10;}
</style>
<g>
	<g>
		<g id="Ebene_1_1_" class="st0">
			<defs>
				<rect id="SVGID_1_" x="-30.1" y="-30" width="254.8" height="339.7"/>
			</defs>
			<clipPath id="SVGID_2_" class="st1">
				<use xlink:href="#SVGID_1_"  style="overflow:visible;"/>
			</clipPath>
			<g class="st2">
				<g>
					<defs>
						<rect id="SVGID_3_" x="-34.1" y="-33.8" width="262.2" height="343.5"/>
					</defs>
					<clipPath id="SVGID_4_">
						<use xlink:href="#SVGID_3_"  style="overflow:visible;"/>
					</clipPath>
					<g class="st3">
						
							<image style="overflow:visible;enable-background:new    ;" width="157" height="205" xlink:href="68F17206AD4C4F72.jpg"  transform="matrix(1.6736 0 0 1.6736 -34.3001 -33.5951)">
						</image>
					</g>
				</g>
			</g>
		</g>
		<g id="wohlfuehlkleidung">
		</g>
		<g id="Ebene_3">
			<g>
				<path class="st4" d="M160.4,237.8c0,0,8.5,0.5,8-4l-3.5-118.5c0,0,0-46,18-65c0,0,1-9-32-22c0,0,8-27-41-27c-50,0-44,27-44,27
					s-30,10-35,21c0,0,17,11,19,66c0,0-1,93-4,118c0,0,0,6,8,5L160.4,237.8z"/>
				<path class="st4" d="M65.8,28.2c0,0,12.6,21,43.6,37c0,0,34.5-19,41.5-37"/>
				<path class="st4" d="M109.4,46.2c0,0,29.5-12,32.5-27c2.8-14-32.5-16-32.5-16s-31.3-0.7-32.5,16
					C75.9,33.2,109.4,46.2,109.4,46.2z"/>
				<circle class="st4" cx="115.4" cy="52.8" r="4.5"/>
				<circle class="st4" cx="102.4" cy="52.8" r="4.5"/>
				<path class="st4" d="M115.4,107.2L115.4,107.2c-1.4,0-2.5-1.1-2.5-2.5v-52c0-1.4,1.1-2.5,2.5-2.5l0,0c1.4,0,2.5,1.1,2.5,2.5v52
					C117.9,106.1,116.8,107.2,115.4,107.2z"/>
				<path class="st4" d="M102.4,107.2L102.4,107.2c-1.4,0-2.5-1.1-2.5-2.5v-52c0-1.4,1.1-2.5,2.5-2.5l0,0c1.4,0,2.5,1.1,2.5,2.5v52
					C104.9,106.1,103.8,107.2,102.4,107.2z"/>
				<polyline class="st4" points="53.9,238.2 53.9,252.2 159.9,252.2 159.9,237.6 				"/>
				<g>
					<path class="st4" d="M182.9,50.2c7,9,23,64,23,64l6,32c5,56-6,91-6,91h-26c0,0,0-72,5-91c0,0-16-19-20-31"/>
					<rect x="179.9" y="237.2" class="st4" width="26" height="11"/>
				</g>
				<g>
					<path class="st4" d="M30.9,49.2c-7,9-22.1,65-22.1,65l-6,32c-5,56,6,91,6,91h26c0,0,0-72-5-91c0,0,16-19,20-31"/>
					<rect x="8.8" y="237.2" class="st4" width="26" height="11"/>
				</g>
			</g>
		</g>
	</g>
</g>
</svg>
