<svg id="Ebene_1" data-name="Ebene 1" xmlns="http://www.w3.org/2000/svg" viewBox="0 0 20 12"><defs><style>.cls-1{fill:blue;}</style></defs><title>Zeichenfläche 1</title><path class="cls-1" d="M19,11.5A5.51,5.51,0,0,1,13.5,6a3.5,3.5,0,0,0-7,0A5.51,5.51,0,0,1,1,11.5H.5v-2H1A3.5,3.5,0,0,0,4.5,6a5.5,5.5,0,0,1,11,0A3.5,3.5,0,0,0,19,9.5h.5v2Z"/><path class="cls-1" d="M10,1a5,5,0,0,1,5,5,4,4,0,0,0,4,4v1a5,5,0,0,1-5-5A4,4,0,0,0,6,6a5,5,0,0,1-5,5V10A4,4,0,0,0,5,6a5,5,0,0,1,5-5m0-1A6,6,0,0,0,4,6,3,3,0,0,1,1,9H0v3H1A6,6,0,0,0,7,6a3,3,0,0,1,6,0,6,6,0,0,0,6,6h1V9H19a3,3,0,0,1-3-3,6,6,0,0,0-6-6Z"/></svg>