<svg xmlns="http://www.w3.org/2000/svg" viewBox="0 0 1706.71 512"><defs><style>.cls-1{fill:red;}.cls-1,.cls-2,.cls-4,.cls-5,.cls-6{fill-rule:evenodd;}.cls-2,.cls-3{fill:#ff7878;}.cls-4{fill:#dba589;}.cls-5{fill:#af5d29;}.cls-6{fill:#662e00;}.cls-7{fill:#ed1c24;}</style></defs><title>Zeichenfläche 1</title><g id="cursor_Bild" data-name="cursor Bild"><path class="cls-1" d="M247.18,255.42c33.51,36.07-27.2,53.71-85.69,55.37-84.43,2.41-110.21-22.15-97.1-58.12C72.92,229.3,223.79,230.23,247.18,255.42Z"/><path class="cls-1" d="M110.82,237.36c31.93-3.07,73.6-1.57,103,4.49,13.64,3.61,22.37,8.36,23.3,13.56,2,11.32-33.77,20.5-79.88,20.5s-85.13-9.18-87.14-20.5C68.76,247.61,85.31,240.83,110.82,237.36Z"/><path class="cls-2" d="M70.56,274c3.36,8.91,14.52,16.1,26.07,19.86,17,5.53,37.74,3.69,55.81,2.48,27.73-1.86,69.75-2.26,93.75-13.63-12.39,5.18-28.54,7.13-45.16,8.15-15.94,1-33.34,2.51-49,3.76-22.25,1.78-51.18,4.41-71.36-9.68A30.87,30.87,0,0,1,70.56,274Z"/><path class="cls-2" d="M226.23,294.5c-11.88,4.55-30.91,7.65-45.93,8.62-12.13.78-41.47,1-52.82-.66,8.7-.06,17.27-.52,25.63-.63C184.1,301.43,197,300.76,226.23,294.5Z"/><path class="cls-3" d="M186.69,246.35c.5,0,.06.16-.25.12l.25-.12Zm-84.46,22.48c-.73,0-2.37-.2-2.26.1s1.36.36,2.08.4.74-.52.18-.5Zm-5.13-3a6.1,6.1,0,0,0-2.93.27c-.23.55,5,.66,2.93-.27Zm-17-11.65c.3-.81-1.52-.83-2-.73-1,.24,1.87,1,2,.73Zm80.51,7.17c-.09,0,.1.43,1.16.45.44,0,5.13-.6.89-.61l-2.05.15ZM84.25,250.27a.3.3,0,0,0,0-.16h0c-.19-.37-1.93-.45-2.15,0-.47,1,2,.57,2.14.37s0-.13,0-.2Zm21.3,1.11c.07-.24,1.66-.48,1.19-.62l-4.8,0c-1.52.12-2.77,1-1.32,1.24,1.82.36,4.73.15,4.93-.57ZM227,253.27c-.45.08-3.06-.11-3.22.31l-.38.17c-3.39.06-3.17.88-5.23,1.12-5.08.57-4.25,0-5.55,0s-2.21.18-1.75-.23c1-.86,11.2-.25,7.17-1-.08,0-5.9,0-2.92-.46,8.09-1.35,2.64.82,10.66-.7,3.33-.63,9.85-1.33,5.57.08-1.69.56-2.65.33-4.33.65Zm-10.25-6.1c.79.22-2.39.25-1.89.66,0,0-.09.13,0,.17,3.64,1-6.88.61-7.15.75l.38.09a10.88,10.88,0,0,0-2.9.3c-.64.36-2.79.14-1.9.06a50.18,50.18,0,0,0,5.94-.86c.65-.45,3.6-.14,4.16-.54a11.68,11.68,0,0,1,3.33-.64Zm-46.89,20.46c-.28-.06-2.59-.51-2.32-.23.49.49-3.73.29-3.56,1.74a33.28,33.28,0,0,0,5.17-.34c1.38-.59,1.56-1,.7-1.17Zm-62-2.84c1.78,0,3.52-.13,5.29-.24.07,0-.15,0-.28-.06-.33,0,.06,0,0-.06s-1.5.07-.77-.18c.12,0-.43,0-.47,0s-.65-.22.11-.33l-.22-.13a9.5,9.5,0,0,0-2.52-.13c-.15,0,.5.06.38.06-1.43,0,0-.28-1.89-.3-5,0-1.57.94-3.25,1.11-2,.2-2.62.72-.55.74.91,0-1.55-.35,4.17-.46Zm77.09,1.07c-.2.69-4.11,1.1-5.65.94-1.07-.11-.7-.48-2.77-.44l-.06,0-.43.06s1.18-.05-.9.28c-6.16,1-2.38-1.39-2.05-1.51.68-.25,2.76.07,1.94-.77-1.19-1.24,3-1.4,3-1.4.28.18-1.21.63,3.25,1.64,2,.44-5.56.6-5,1.13s2.93-.14,7.86,0c.3,0,.87,0,.84.05ZM165,265.36c-.13,0,.38-.12.31-.18-.45-.34-1,.5-1.46.33h0c-.5.06-1.08.08-1.58.18a4.62,4.62,0,0,1-4.14,1.34c-4.82-.44-2.48-1-3.67-1.27s-2.84-.15-2.68-.49c.8-1.69,5.6-.56,8.05-.92.38-.06.22-.27.27-.38.45-.9,3.37-.89,5-1.48,2-.73,7.37-.08,5.73.34-1.29.32-3.12-.09-4.42.19s0,1.22.35,1.42c.67.36-.52.52,0,.48s-.9.2-.54.26c.6.1-.79.37-1.28.21Zm-19.54,1.48c.64-.09,1.39-.86.36-1.13-.21-.05-.83-.26-.42-.28.7,0,.13-.1.2-.12,1.54-.43-4.29.29-4.68.06-.18-.11,6.61-1.31,7.42-1.58,2.35-.78,0,0,5.78-1.57,1.21-.33-1.89-.6-3-.81s-4.11-1-6.23-.64c-.71.12,4.22.52,2.89,1.14s-7.69.6-7.89.73c-.7.44.52,1-1.3,1.34-1.59.27-.34.7-2.32,1-1.43.21-2.66,1.78-2.13,1.81a40.32,40.32,0,0,0,5.55.3c1.59-.12,4.3,0,5.78-.24Zm-9.4-7.54-2.19.87c-.87.18-10,1.1-9,.53s-.8-.79,2.91-1.07c3.14-.24,4.93-.87,8.3-.33Zm43-2.84c0-.07-2.58.21-.9-.41,2.18-.8-.52-.51-3.65-.71-2-.13-3.66-.51-5.59-.64-1.29-.09-5.68.25-4.34.87s6-.49,7.38.24c.24.12-.78.25-.5.48,1.49,1.2-6.83,1.13-7.81,1.71-1.36.8-.29.46.78.93.41.18-1.18.18-.83.27,1.92.5.75-.84,10.5-.79.52,0-1-.7-.13-.89,1.6-.37,3.67,0,5.39-.34.8-.16-.19-.47-.27-.72Zm-31.4-2.82c-3.74,0-7.09.71-1.55,1,1.11.06,2.07-1,1.55-1Zm-33.85-2.54c1.94.18,3.92.2,5.88.33,8.38.54,6.39.17,7.39-.24,0,0,.07,0,0,0-.9-.14-1.48-1-2.55-.9-2.53.32-8.53-1.91-10.73.82,0,0,0,0,0,0Zm47.08-1.17c-1.17-.1-5.13.08-4.85.79.08.2.14.54-.38.64-1.63.33-1.63.46.11.37,4.1-.21,4,.76-.7.61-3.15-.1-.59,0-2.46.89-.34.16,5,.69,5.45.39,1.75-1.13,4.28-.6,7.33-1.44,1-.27-2-.41-2.95-.64-.28-.07.68-.27.57-.38-.33-.33-1.87,0-1.07-.5.49-.33-.09-.66-1.06-.74Zm11.52-1.35s0,0,0,0c-.45.21,1.12.22,1,.29-.56.42.38.64,2.32.79,1.17.09-1.73.84-3.6.51-2.55-.45-6.56.33-8.11-.65-1-.65,7.65-.94,8.36-1Zm-62.8-8.06-1.75-.2c.09.19,1.77.46,1.75.2Zm20.18,5.57c-.1,0-.13,0-.15,0-.59.58,1.48.45,1.6.91s3.28.64,3.69.29c.64-.55,2.84-.49,1.71-1.27-.18-.13-.53-.27-.35-.32.65-.2,1.14-.74.16-.74-7.63,0-7.69-1.18-12.23-1.28-.78,0-5.2-.72-4.65-.18.31.3-1.38-.17-1.22.44s-2.5.15-2.22.32c1.33.79-.2,1.21,4.15,1.74a8.21,8.21,0,0,1,3.43,1c.05,0,6.74.54,3.16-.81-1.08-.41-4.69-.06-4.44-.62s2.43-1.18,4.25-.17c1.21.67,4.38.39,4.53.59s-1.2.12-1.43.1Zm-16.2-6.83c-.88-.31.12.35,0,.6s2.22.17,0-.6Zm110.19,19c-1.31.19-2.85,0-3.27-.51s1.34-.25,1.81-.38c3.35-1,7.41,0,1.45.89ZM198,256.58c-1.56,0-3-.12-4.53,0-.82,0-2.37-.84-3.44-.26-2.55,1.37-3.92.16-6.38.17-1.86,0-1.76-.39-2.3-.69s1.31-.47,1-.7a13.7,13.7,0,0,1,3.47,0l-1.81.27c6.15,1,6.15-.12,6.23-.14,3.27-.57,2.72.23,4.51,0,1.39-.15,2.61.6,4.14.16.27-.07-.37-.17-.42-.29-.11-.3,5.57-1,6.21-.15.12.16-1.21.08-.83.43.94.87,3.81,0,4.25.12s-.31.62-.6.61a31.49,31.49,0,0,1-4-.13,8.75,8.75,0,0,0-2.81.16l.28-.07-3.32.31c-.06.07.57.19.3.2Zm28.78-5.64c.35-.07.7-.06,1.12-.15,1.94-.4.82-.52.33-.32-1.34.55-2.1.15-3.54.28-3,.28-1.43.92,2.09.19Zm-15.59,1.57,7.16,0c.26,0,5,.17,4.41-.2-2-1.25-1.46-.33-4.09-.75-1.12-.18-3.32.11-3.5-.3-.28-.65-4.1.43-5,.16a14.63,14.63,0,0,0-3-.37c-.2,0,.13-.23-.35-.19l-2.43-.19c-.18-.09.65-.35.33-.36-2.76-.08-13.55.83-16.13,1.12-.5.06.91.16,1.35.19,5.08.37-2.45.78-5.31,1.08-.38,0-.4-.31-.78-.29-2,.09-4.62-.42-1.5-.71,1.85-.17,1.37-.16.91-.41-1.07-.57-7.67.31-9.11.45s-.93.54-1.79.82c-1.74.56.92.78,1.19,1.2.06.09-.62.22-.42.27.83.23-.59.67.93.7,2.82.07,4.14-1.47,6.69-1.41.87,0-.83.57-.19.7,1.47.3,4.25,0,5.17-.76.35-.3.7.32,1.12.51.83.37.66.53.29.82s6.77,0,8.71-.26c.66-.09,2.7.16,3.81,0a9.86,9.86,0,0,0-3.82-.43,19.3,19.3,0,0,1-3.78-.1c-.49,0,1.56-.57-.89-.75-1.83-.13,2.41-.48,1.6-.1-1,.48,5.76.26,3.37-.32-1-.25-.09-.39.05-.66.4-.75,6.57-1,7.46-1,1.63,0,.83.39,1.46.63,1.4.54,4-.09,5.94.12s.81.17.31.37c-.14.06.19.12.06.19s-1.21.18-.2.26Zm6-1.92c-.31.28,5.07-.28,5.49-.61.7-.56-3.41-.05-2-.76,2.83-1.44-5.76.32-7.11.3-5.9-.07-2.45.64.21.2a14.68,14.68,0,0,1,2.8.05c2.28.18,1.92-.36.66.81Zm-25.92-3.2c.45.22-1.87.34-2.38.21-.08,0-.11-.2-1.35-.16-.39,0-.08,0,0,0a13.14,13.14,0,0,1,3.74,0Zm-3.07-.88-3.38.11c.62.63,3.89.79,4.24.46s-.42-.57-.86-.57Zm7-.33-3.3.28c-.65.08,3.91.42,2.45.44,0,0-4.32-.25-3.47-.37.24,0,.95,0,.74-.1-2.95-.76,5.36-.35,3.57-.25Zm-3.09,12.36c4.18.17.18-1-1.92-.18a5.38,5.38,0,0,1-1.25.12c-7.53.56,2.48,0,3.16.06Zm-48,14.39c-1.67,0-5.68.19-4.93.71,1.57,1.1,6.58-.16,6.37-.59-.07-.14-.88-.11-1.44-.12Zm3.61-1-2.53-.05c-1.51.11-1.75.57.3.57,4.43,0,7.21-.63,2.23-.51Zm-24.91-.53c-1.75-.65-4.27-.63-5.51.24-1.7,1.18,7.16.14,6.15,0a3.29,3.29,0,0,1-.65-.2Zm46.06-1c-6.58,1.36,4.91,1,3.08.13a5.38,5.38,0,0,0-3.08-.13Zm-56.52-3.27a3.85,3.85,0,0,1-.63-.55c-.15-.14-9.94-.72-3.17,1.42,1.14.36,5.71.32,3.81-.88Zm29.85,1.21a19.8,19.8,0,0,0-4.13.15c-2.62.77,3.87.85,5,1,2.94.46,5.45-.72,3.61-1a29,29,0,0,0-4.45-.14ZM165,270.16c.35.14-1.53.36-2.19.36-1.73,0,1.51-.63,2.19-.36ZM161,268c-.91-.89-7.35.46-7.18.49,4,.73-1.62.52-3.24.87-2.6.57,3.63,1,5.34-.07.38-.24,6.16-1,5.45-1.12A.86.86,0,0,1,161,268Zm-35.26.42c-1.77-.09-1.28-1.25-1.27-1.25A7.66,7.66,0,0,1,127.6,266c3.25-.32,7.69,1,3.73,1.33-2.31.19-3.11,1.2-5.58,1.08ZM124,266c0,.15-.66.17-.95.3-1.88.88-12.94-.32-3.58-1.17,4.9-.45,4.63.56,4.53.87ZM73.4,256.64c0-.05.41,0,.3-.1-4.07-2-5.34-.2-.14.2l-.17-.1Zm27,4.81c-.12,0-.29,0-.27,0,.39-.28-2.27-.94-3.19-.88-1.18.08-2.37.87-.93,1.13,1.13.2,5-.12,4.38-.23Zm5.56.75c.46,0,1.18.08,1.3-.1.58-.87-5.43-1.11-4.77-.16.5.72,2.74.26,3.47.26Zm6.53-.54c9.43,1.24,4-1.62-2.14-1.2-1.06.07-1.88.41-1.32.58a25.69,25.69,0,0,0,3.46.62Zm19.1,2.81c-.8.14-7.31.08-6.88-.2.82-.54,8.7-2.22,9.77-2.29a18.38,18.38,0,0,1,4.51.5c1.15.29-3.74.54-4.06.52-4.85-.21-1.29,1.1-3.33,1.47Zm-32.24-7c-.1-.46-1.82-.33-2.2-.55-2.07-1.18-5.54,1.07-2.92,1.6a16.21,16.21,0,0,0,4.76.12c.83-.15.43-.81.35-1.18Zm15.7,2.34c1.93-.18.54-.81-1.28-.74-8.29.33-.41.9,1.28.74Zm-21.95-4.64c-.1,0,.06-.08,0-.1-1.36-.23-2.73-.39-4.12-.59-.62-.09-2.3.25-1.79.37,2.44.55,6.57.5,5.92.32Zm-5.38-2.06c.06-.12-3.77-1.11-4.93-.5-.43.22,4.39,1.56,4.93.5ZM170,261.55c.51.06.67-.46,0-.35s-.46.29,0,.35Zm-74-7.46c2.8.68-2.15-.06-2.59-.13-.9-.13.83-.3,2.59.13Zm20.2,3.9c-1.35-.66-4.69-.69-6.47-.77-2.79-.13-3.82-.47-1.87-.34,1.63.11.24-.56,3.19-.24,2.07.23,3.59-.45,5.77-.27.59,0,3,.55,2.66.65-2,.58,3.15.88,2.82,1.3-.75,1-5.36,0-6.1-.34Zm-12.5-3.88a4.88,4.88,0,0,1,1.75.75c4.33.46-.32-1.23-1.75-.75Zm26.41,4.14,3.33.18c1.46,0,6.07.42,3.45-.56-1.83-.69,1.17-.15.63-1-.67-1-4.67.24-7.2.06-3.45-.25-13,1-3.36,1a9,9,0,0,1,3.15.28Zm-42.71-9.77c0-.25,1-.33.29-.71-.41-.21-3.16-.83-2.88-.25.07.15,2.6,1.36,2.59,1Zm31.38,5.84c-1.48-.56-6.13.7-3.08,1.11,1.55.21,5.28-.42,3-1.06,0,0,.17,0,.12,0Zm-20.65-4.79c2.78.71,0,1.74-1.61,1.38-6-1.39-1.65-2.22,1.61-1.38Zm53.16,9.56c-.41-.13.22-.52.54-.8.84-.75,5.45-.94,4.07-1.29-1.92-.49,2.53-.74,3.57-.72,2.18,0-2.32.84,1,.74s-8.67,2-4.16,1.65c.94-.07.58-.6,3.45-.54,5,.11,1.47,2-.59,1.93s-6.24.61-5.57-.79c.15-.3-1.71,0-2.28-.19Zm-36.72-6.86c-3.24-.32-1.43.3-1.41.45.09.7-1.82-.44-1.77-.5.52-.69,4.26.16,3.19.05Zm29.76,5c1.52-.13,5.64-.61,4.33-.81-2-.3-4.17.08-5.24-.05-4.27-.51,5.9-1.18,6.37-1.16,5.05.23-2.21.9,2.91,1.53.6.07-.5.51-1,.69-1.13.38-12.76.73-10.81.13a25.27,25.27,0,0,1,3.46-.32ZM124.1,254a12.44,12.44,0,0,0,3.28-.42c-.51-.24-5.14-1.32-5.3-.36-.05.33,1,.68,2,.78Zm12.49.11c-3.77-.17-5.83.61-1.1,1,1,.07,2.56,0,2.61-.47a7.85,7.85,0,0,0-1.5-.48ZM96.39,247.2c-2-.61-.92.23,0,0,0,0,.1,0,0,0ZM113,250.36a3.17,3.17,0,0,0-1.64.13c.27,0,2.07,0,1.64-.13Zm41.55,4c-.9,0-2,.33-.59.43h0c.93-.13,2.4-.06,2.72-.4s-1.65,0-2.13,0Zm-45.9-5.67c-1.15,0,.57.55,1.16.34.17-.06-.67-.34-1.16-.34ZM165.74,254c-2.25.52-8.8.26-8.19.12,1.88-.44,4-.06,5.88-.06l2.31-.06Zm-1-1.08c.82-.18.16.79-2,.73-.81,0,1.83-.69,2-.73Zm-58.4-5.58c.92.2.17-.27-.47-.45s-.33-.43-.25-.85-3.42-1.24-4.49-1.2c-1.72.07-2.49.69.57,1.42,1.53.37,3.09.74,4.64,1.08Zm5.75.69c-3.5-.72-.84-1.21,1.57-.78,2.62.47-.16,1.07-1.57.78Zm11.27.65c-.66-.16-3-1-2.27-1.2a9.35,9.35,0,0,1,4.76,1c.52.41-1.63.46-2.5.25Zm-9.73-1.92c-2-.42-3.13-1.14-2.65-1.44s5.1,1.29,4.65,1.52a4,4,0,0,1-2-.08Zm-10.25-4.43c-1.41-.39-.47.49-.14.33s2,.18.14-.33Zm-5.2-1.07-.15,0c-1.26.38,2.5,1.5,2.29.66a9.43,9.43,0,0,0-2.14-.64Zm48,7.09c-.91-.05-3-.31-2.87.08s2,.3,3,.26c.29,0,.14-.32-.13-.34Zm-45.32-7.14,1.58.1c-.48-.31-1.81-.34-1.58-.1Zm39.15,6.5c.33.18-1.48.91-2,.86-1.07-.11.89-1.5,2-.86Zm-30-4.57c1,.25,3.91.1,1.64-.41,0,0-.13,0-.17,0h0c-.74-.18-1.67.37-1.52.4Zm28.39,8.29c2,0-.15-.66-1.93-.81-1.61-.14-3.12.38-3-.67s-3.38-.54-4.92-.74c-1.89-.25-.34-.35.32-.52,2.61-.68,4.72.66,7.2.9l.1,0c1.57.75,1.18.27,3.58.73,1.6.31,4.23.34,2.21-.5-3-1.26,11.39-.07,11-1-.53-1.28,8.37-1.65,5.52-.45-2.18.92,1.92.23,2.53.23,4.91,0-1.94,1-3.33.67a6.77,6.77,0,0,0-2.3.14c-2.18.38-2.45,2.68-6.9,1.49a8.06,8.06,0,0,0-4.66.35c-1,.29,3.48.32,4.47.65.13,0,0,.13,0,.18.51.82-5.86.3-7.08.31-.9,0,.11-.9-2.19-.46-2.08.4-3-.47-.7-.49Zm10.41-3.22c-1.33-.25-6.34-.46-5-1,1.73-.62,7.72-.37,8.5.23s-3.49.72-3.52.72Zm-37.91-7.52c-.64-.16-2.2-.54-1.23-.6,4.31-.27,5.69,1.72,1.23.6Zm19.68,1.9c.21.31-1.85.56-1.17.87,0,0,0,0,0,0-3.29.2-1.69,0-2.74-.54-1.79-.93,2.7-.37,3.8-.38,0,0,.13,0,.15,0Zm-7.85-1.51c.59,0-.3-.46-1.16-.62-.71-.13-4.88-.48-3.15.28,1.17.51,2.88.25,4.32.35Zm50.2,3.75c-2.35.82-.16,1.56-9.93.78-1.11-.09-5.31.77-.7,1.31,3.5.41-3.81,1,3.44,1.45,1.58.11.82-1,1.2-1.09,2.24-.29,5,.18,7.48.13a21.58,21.58,0,0,1,4.65.43,24.65,24.65,0,0,0,4.33-.25l0,0c-.76-.15-4.71.11-2.13-.45.56-.12,1.49-.31,1.25-.41-3-1.28-4.32-.21-6.24-.47-.78-.1.67-.67.41-.85a17.25,17.25,0,0,0-3.77-.56Zm-31.24-1.34c-.6.9,4.27,1.48,3.74.71-.39-.58,2.64,0,3.72-.12.67-.06.3.64.42.88s2.26.13,1.36-.19c-1.22-.44,1.73-.46,2.39-.56,3.09-.49-1.28-.33,6.28-.31,2.71,0,2.21.62,4.65.73,1,0-2,.75-2,.75a29.52,29.52,0,0,0-4.79-.53c-4.88-.21-3.21.23-4,.42a19.28,19.28,0,0,1-6.13.71c-3.43-.16-2.88-.64-3.85-.89-.16,0-6.28-1.12-5.4-1.51,1.48-.66,4.34-1.26,3.58-.09Zm-17.6-3.54c-.31.07-2.42-.05-2.18-.32s2.24.31,2.18.32Zm44.14,5c-.44,0,2.27-1.72,4.5-.94.5.18-3.62,1-4.5.94ZM138,241.74c-.86,0-1.08-.43-2.05-.53-1.62-.17.17-.68-5.2-.93-2.44-.11-3.66-.63-5.6.15.7.66,5.07.14,6.69.21.79,0,0,.28.32.58,1,.84-.84.76,4.15,1.07a40.69,40.69,0,0,0,5.11.29c3.17-.2,3.54-.85.57-1.18-1.39-.15-2.62.37-4,.34Zm18.06.92h0c0,.64,2.62,0,2,0a8.49,8.49,0,0,0-2,0Zm-7.45-.63c.17.36-1.43.92.15,1,.77,0,4.21-.15,3.51-.6-.41-.26.25-.89-.53-1.06-1.25-.27-3.39.11-3.14.65Zm28.58,1.11c-.13.39,3.38.56,4.73.62.07,0,.22,0,.18,0-3,1.92,9.22-.17.81-.4-3.64-.1-1.8-.22-3.7-.73a4.3,4.3,0,0,0-2,.47Zm-12.85-1.45c-.32,0-4.85-.15-2.7.35,1.93.45,3.57-.39,2.7-.35Zm12.87.61c-.89.54.31.53-3.77.41-.64,0-.4,0-.68-.25-1-.75,4.46-.17,4.45-.16Zm-2.44,18.27c-1-.08-.94-.31,1.67-.38.44,0,.09-.34.71-.39,2.45-.2,1.5.92-.44,1a13.51,13.51,0,0,1-1.94-.19ZM194.69,265c-.18-.38,4.39-.49,4.91,0s-4.63.6-4.91,0Zm12.83-2.13c2-.15-.09.74,0,.05v-.05Zm-19.29.55c5.47-2-2.52-.71-3.61-.5-.69.13,2.86.12-2.45,1.18-.59.12,1.35.05,1.77.18,2.74.85,7.22-.94,12-.37a14.35,14.35,0,0,0,4.94-.43c.22-.14.93-.38.56-.44-3.15-.52-5.21.56-6.75.25-2-.4-8.58.9-6.46.12Zm26.81-1.3c-3,.2,1.23-1,2.1-.28.14.12-1.33.23-2.1.28Zm-5.92-.42a7,7,0,0,1,2.4.17l-2.56-.11c-.05,0,.09,0,.16-.06Zm3.39-.33-.11-.07c-.36-.26-2.38.24-.05.13,0,0-.12,0-.08,0s.19,0,.24,0Zm11.88-.85c-.91.1-4,.11-1.88-.14,1.78-.22,1.35-1.06,4.33-.41.48.1-1.77.48-2.44.55Zm-34.17,1.31c-1,.08-.69-.27.15-.11.1,0-.06.1-.15.11Zm14.06-.54c.07,0,.12,0,.17,0,.89.56,1.77.21-1.35.53-1.2.12-.51.58-2,.58-.84,0-3.41-1-2.45-1,1.69,0,3.45,0,5.58-.11Zm3.24-.2a6.3,6.3,0,0,0-3.3,0,15.18,15.18,0,0,0,2.83.26c0-.09.54-.19.47-.27Zm-40.07,3.46c-.18,0,.41.4,1.13.45,2.58.2,2.78-.73-1.13-.45Zm57-5.37c-2-.16,2.54-.57,2.29-.16s-1.65.21-2.29.16Zm-1.16.35c.44-.67-3.48-.56-5.26-.3-3.91.57,4.64,1.22,5.26.3Zm7.62-2.56-2.21.75c-.25.35,4-.33,4-.69s-.87-.24-1.82-.06Zm-34,3.37a5,5,0,0,1,3.61-.31c.67.15-.11.44.5.62,1.14.33-2.27.82-3.54,0-.16-.1-.92-.21-.57-.32Zm11.12-1a17.74,17.74,0,0,1,2.16-.21c1.88-.28,2.51.2,3.92.32,2,.16,1.39.83-1.72.77-.93,0-8.94.32-4.36-.87Zm-6.67.31c-.63,0-.24.18.17.15.71,0,.24-.17-.17-.15Zm-22-1c-1.46-.24,2.51-.74,3.54-.41,1.51.48-2.87.52-3.54.41Zm34.31-.63c.07-.23,4.66,0,2.12.26-.77.09-2.24.11-2.12-.26Zm2.65-.63c.12,0-6.92-.49-6.34.1s4.23,0,6.34-.1Zm6.5-1.15a4.2,4.2,0,0,1,.88-.26s.1,0,.07,0c-1.32-.72-3.7,1.37-1,.28Zm11.91-3.42c-.46.05-.41.38.3.3,1.7-.2,2.28-.92,3.56-1.45,1.61-.67-1.3.23-2.19.76a5,5,0,0,1-1.67.4Zm-22.37,3.85c.28-.25-1-.4-2-.49s-2,.48-1.3.65a9.82,9.82,0,0,0,3.27-.16ZM226,254.78c.32.1,4.28-.08,5.3-.71s-6,.5-5.3.71Zm-11,1.12c-.31.13.28.33.67.33a45.62,45.62,0,0,0,4.72-.41c2-.22-.06-.25.87-.74.65-.34,1.56-.13,1.77-.34.5-.49-6.8.63-8,1.16Zm11.52-2.21c.81-.36-1.71.18-.07,0Zm-20.08,1.23a4.15,4.15,0,0,0,1.95-.33c.69-.39-4.85.39-1.95.33Zm2.48-1.07-1.21.07c-.3,0-2,.05-2.06-.17s4-.36,3.26.05c0,0-.06,0,0,0Zm23.81-3.74c.25-.11,3.44-1,2.46-.46-.18.1-3.08.72-2.46.46Zm-20.62,3s0,0,0,0c.5-.31-1.29-.22-2.93-.24s-4.2-.42-4.87.09-3.61.06-4.1.43,2.63.09,3.53,0c2.73-.16,5.52-.14,8.36-.31Zm-8.5-.5a12.42,12.42,0,0,1-3.36.48c-1.53.06-1.3-.43.26-.48.51,0,1.65,0,1.68-.17s-1.4-.27-1.46-.53,3.2-.44,2.49,0c-.35.21-.2.66.39.7,0,0,0,0,0,0Zm-21.8,9a3.9,3.9,0,0,1-1.9-.34c.4-.26,5.18-.14,2.58.2a3,3,0,0,0-.68.14Zm9.13-11c-.23,1.46-7.39.15-7.1.09a41.67,41.67,0,0,1,7.1-.09ZM213.68,249l.2-.1c.06,0-1.65.26-.2.1Zm-27.53,1.51c-.73,0-4.48-.31-1.56-.38,1.29,0,2-.28,2.68.08.21.11-.15.26-1.12.3ZM198.89,249a3.15,3.15,0,0,1,.44,0h0c.1,0,.27,0,.22,0-.66.27.85.66.85.66a7.93,7.93,0,0,1-3.15.44c-.85-.09-3.8-.09-2,.18,3.46.52-6.19.34-7.67-.23-1.31-.5-9.92-.37-9.32-.84.17-.13,5.21-.23,4.36-.38-3.58-.63,2.12-.71,1.15-.41-.67.2,1.63.42,1.75.23.54-.81,5.94,0,7.39-.08,1.29,0,2.52-.26,3.83-.35.9-.06.46.38-5.13.71-.29,0-.76.17-.59.23.59.21-.16.32-.53.17a15.76,15.76,0,0,0-5.26-.3c-.36.06,5,.16,5.17.34s.9.38,1.79.31h0c.4,0,2.61.8,3.47-.3.09-.12,2.31-.12,2.64-.3a1.11,1.11,0,0,1,.61-.12Zm5.15-.63c-.28-.1.87-.4.17-.45l-1.11-.07-3.53.51c1.18.57,4.48,0,4.48,0Zm14.6-1.47c-2.15-.07-.8-.13-1.7-.33s2.42-.56,2.56-.19h0c1.72-.07.35.46-.81.51Zm-15.72-.53c2.19.08-.59.39-1.37.27S202.65,246.31,202.92,246.33Z"/><path class="cls-2" d="M222.37,277.81c-11.88,4.55-30.91,7.65-45.93,8.62-12.13.79-41.47,1-52.82-.66,8.7-.06,17.27-.52,25.62-.63C180.24,284.74,193.1,284.07,222.37,277.81Z"/><path class="cls-1" d="M620.79,258.32c.75,1.77-1.57,12.58-5.46,23.11s-10,20.69-12.32,23c-10.19,8.52-26.06,15.56-40.35,18-14.06,2.38-25.93.1-30.06-1.19-4.83-1.68-9.3-3.19-13.9-4.9s-9.45-3.63-15.19-5.91A174.76,174.76,0,0,0,467.18,301c-14.62-1.9-29.17-9.1-33.19-17.54-2.22-4.92-4.54-10-6.25-14.09s-2.91-7.1-3-7.4c-.75-1.9-.17-2.72.87-3.43s2.67-1.61,3.86-2.25c1.72-1,7.76-.8,14.1-1s12.8-.78,16.06-1c10.17-1.22,18.05-2.07,25.83-3.28,7.36-1.14,14.79-2.76,24.72-4.34,6.82-1.37,17.68-3.33,28.87-4.89s22.35-2.27,30,.41c3.7,1.44,16.34,4,28.38,7.11C608.87,252.38,619.31,255.83,620.79,258.32Z"/><path class="cls-2" d="M619.41,258.92a7.62,7.62,0,0,1,0,5.33,28.23,28.23,0,0,1-3.34,6.43,62.32,62.32,0,0,1-5.93,7.36,89,89,0,0,1-8,7.57,112,112,0,0,1-21.36,14,88.58,88.58,0,0,1-24,7.73,70.22,70.22,0,0,1-19.34-.85A191.27,191.27,0,0,1,513,300.15c-8.19-2.67-16.14-5.72-23.08-8.16s-12.58-3.73-16.16-4.68c-6.07-1.53-11.49-2.78-16.26-4.14a125.41,125.41,0,0,1-12.6-4.35A68.1,68.1,0,0,1,435.8,274a39.54,39.54,0,0,1-6.13-5.21,22.68,22.68,0,0,1-3.3-4.47,4.64,4.64,0,0,1-.69-2.93,3.89,3.89,0,0,1,1.6-2,41,41,0,0,1,3.44-2.29,11.1,11.1,0,0,1,3.7-.8,68.58,68.58,0,0,1,6.86-.26c2.57-.26,5.55-.37,8.7-.55s6.45-.58,9.83-.8,6.64-.72,9.93-1.09,6.47-.9,9.61-1.32,5.93-1,8.74-1.51,5.3-.94,7.81-1.4c2.87-.52,5.84-.92,8.78-1.47s6.09-1.21,9.26-1.73,6.57-1.29,10-1.87,6.61-1.16,10-1.67a154.27,154.27,0,0,1,19.42-1.94c5.89-.13,11.09.33,15,1.79,1.38.55,5,1.47,9.79,2.62s10.52,2.62,16.36,4.17c6.11,1.67,12.21,3.44,16.89,5.18C615.77,256.13,618.76,257.74,619.41,258.92Z"/><path class="cls-1" d="M610.49,258.76a3.26,3.26,0,0,0-1.21-.9c-.61-.32-1.34-.64-2.08-1s-1.54-.61-2.29-.86l-1.88-.62c-1.23-.4-2.51-.8-3.78-1.17s-2.67-.73-4-1.07-2.63-.72-3.94-1.06-2.69-.66-4-1-2.65-.64-4-.95l-4-.9c-1.29-.27-2.57-.56-3.84-.87s-2.61-.61-3.88-.9l-1.48-.35-1.44-.33-1.46-.33-1.42-.33-1-.25-1-.26c-.34-.08-.67-.17-1-.26l-.83-.28a28.1,28.1,0,0,0-8.19-1.29,83.22,83.22,0,0,0-10.74.47c-3.66.27-7.56.79-11.37,1.32s-7.57,1-11,1.57q-3.61.57-7.34,1.11c-2.45.35-5,.76-7.4,1.18s-4.9.62-7.34,1-4.73.74-7,1-4.58.67-7.08,1.11-5.08.78-7.69,1.24-5.57.93-8.44,1.36-5.74,1-8.58,1.37-5.83.92-8.56,1.3-5.22.61-7.44,1-4.33.62-5.89.95a7.07,7.07,0,0,0-3.07,1.16c-.45.4-.85.84-1.27,1.25s-.85.8-1.23,1.2a5.23,5.23,0,0,0-1,1.29,4.94,4.94,0,0,0-.51,1.46,2.12,2.12,0,0,0,0,.95,3.59,3.59,0,0,0,.36,1.13,6.53,6.53,0,0,0,.89,1.44,12.28,12.28,0,0,0,1.58,1.64,20.61,20.61,0,0,0,2.61,2.06c1,.66,2.17,1.27,3.36,1.93s2.44,1.19,3.72,1.76,2.59,1.07,3.82,1.5c2.43.8,4.91,1.57,7.42,2.27s5,1.26,7.57,1.82,5.16,1.13,7.75,1.67,5.14,1.05,7.71,1.68c3.44.89,8.92,2.32,15.58,4.41s14.26,4.33,22.07,6.34A190.46,190.46,0,0,0,538.28,301a68.61,68.61,0,0,0,17.23-.1,77.26,77.26,0,0,0,10.86-2.76,88.75,88.75,0,0,0,10.3-4.34,104.27,104.27,0,0,0,9.2-5.2c2.87-1.83,5.54-3.69,7.95-5.55a93.31,93.31,0,0,0,7.44-6.43,65.47,65.47,0,0,0,6.07-6.71,20.2,20.2,0,0,0,3.58-6.11A6.14,6.14,0,0,0,610.49,258.76Z"/><path class="cls-1" d="M478.65,253c-2,.34-4.09.83-6.23,1.2s-4.31.62-6.49,1-4.39.77-6.53,1.05-4.33.63-6.39,1c-4.27.53-8.06,1.27-11,1.79s-5.12.93-5.85,1.63l-1.27,1.24c-.46.45-.85.89-1.25,1.35a7.33,7.33,0,0,0-1,1.32,3.79,3.79,0,0,0-.51,1.53,2.66,2.66,0,0,0,0,.95,3.3,3.3,0,0,0,.36,1.14,8.66,8.66,0,0,0,.89,1.39,14.46,14.46,0,0,0,1.54,1.62,22.11,22.11,0,0,0,2.65,1.89c1,.63,2.14,1.27,3.34,1.86s2.48,1.22,3.76,1.77,2.59,1,3.84,1.41c2.43.77,4.93,1.54,7.48,2.23s5.06,1.2,7.63,1.78,5.22,1.14,7.79,1.65,5.18,1.09,7.75,1.76c3.5.92,9.07,2.51,15.74,4.59s14.42,4.23,22.29,6.19a183,183,0,0,0,23.08,4,70.86,70.86,0,0,0,17.38-.39c2.41-.47,4.84-1.09,7.22-1.8s4.75-1.57,7-2.5,4.49-2,6.66-3.07,4.27-2.25,6.31-3.46l1.29-.9c.41-.28.83-.6,1.27-.89l1.21-.87c.41-.3.81-.59,1.19-.9a88.25,88.25,0,0,0,7.63-6.42,62.77,62.77,0,0,0,6.25-6.78,24.18,24.18,0,0,0,3.8-6.21,6.21,6.21,0,0,0-.12-5.16,2.66,2.66,0,0,0-1.11-.94c-.61-.33-1.32-.68-2.06-1l-2.25-.89c-.71-.27-1.38-.49-1.82-.66-1.27-.42-2.55-.84-3.82-1.24s-2.65-.8-4-1.18-2.61-.76-3.92-1.12-2.67-.72-4-1.07l-3.92-1c-1.33-.33-2.67-.64-4-1s-2.57-.67-3.82-1l-3.84-.94-1.44-.36-1.48-.35-1.42-.36-1.4-.36-1-.24c-.32-.07-.65-.15-1-.24s-.63-.19-.89-.29l-.85-.32a25.58,25.58,0,0,0-8.15-1.43,101.31,101.31,0,0,0-10.74.32c-3.68.26-7.56.72-11.41,1.18s-7.59.94-11.08,1.52c-2.43.26-4.9.57-7.38.93s-5,.75-7.5,1-5,.62-7.4.93-4.88.49-7.18.74c-.77.08-1.52.18-2.31.29s-1.6.23-2.43.37-1.68.22-2.51.31S479.5,252.9,478.65,253Z"/><path class="cls-1" d="M475.67,255.49c2,.27,4.19.58,6.29.93s4.15.71,5.95,1a27.75,27.75,0,0,1,4.43,1c1.1.39,1.72.83,1.7,1.29a.71.71,0,0,1-.12.38,1.71,1.71,0,0,1-.38.38,4.84,4.84,0,0,1-.59.35,6.19,6.19,0,0,1-.87.32,16.08,16.08,0,0,1-2.33.52A26.16,26.16,0,0,1,487,262c-1,0-2,.05-3,.09s-2,.09-3,.16A55.5,55.5,0,0,0,470.11,264c-2.59.79-4.11,1.83-4.63,3s-.09,2.52,1.38,3.95a23.72,23.72,0,0,0,7.2,4.18c3.28,1.4,6.94,2.74,11,4.3s8.48,3.44,13.31,5a131,131,0,0,0,15.84,4.31,107.61,107.61,0,0,0,17.86,2,81.5,81.5,0,0,0,11.41-.66,78.77,78.77,0,0,0,10.66-2.34,70.48,70.48,0,0,0,9.47-3.61,59.76,59.76,0,0,0,8-4.44,19.27,19.27,0,0,0,3.76-3.3,15.22,15.22,0,0,0,2.37-3.71,9.48,9.48,0,0,0,.61-3.54,6.22,6.22,0,0,0-.85-2.87,13.14,13.14,0,0,0-1.34-1.89,12.9,12.9,0,0,0-1.94-1.83,13.33,13.33,0,0,0-2.55-1.55,15.14,15.14,0,0,0-3.28-1.07c-.77-.17-1.56-.3-2.43-.41s-1.74-.16-2.65-.22l-2.75-.08c-.93,0-1.9,0-2.89,0-1.58,0-3.05,0-4.45-.07s-2.67-.17-3.92-.3-2.43-.29-3.58-.51a31.74,31.74,0,0,1-3.26-.75,24,24,0,0,1-3.94-1.43,16.72,16.72,0,0,1-2.93-1.78,14.16,14.16,0,0,1-2.14-1.86c-.58-.62-1.09-1.26-1.56-1.87a3.34,3.34,0,0,0-.61-.64,7.42,7.42,0,0,0-.87-.57,8.91,8.91,0,0,0-1.21-.46,14.64,14.64,0,0,0-1.46-.37c-5.56.58-10.76,1.14-15.6,1.72s-9.39,1.08-13.61,1.7-8.24,1.09-12,1.67-7.44,1-10.84,1.77ZM500,273.94h0a13.51,13.51,0,0,1-3.42-2.32c-.68-.72-.89-1.35-.63-1.94a4.17,4.17,0,0,1,2.26-1.64,36.25,36.25,0,0,1,5.16-1.53,3.75,3.75,0,0,0,1.44-.65,4,4,0,0,0,.77-.84,6.22,6.22,0,0,1,.77-.93,4.82,4.82,0,0,1,1.29-.89,6.08,6.08,0,0,1,2.69-.31c1.15.06,2.55.23,4,.44s2.91.37,4.29.53a26.87,26.87,0,0,0,3.5.28c2.27,0,3.93,0,5.26-.09s2.35-.13,3.3-.14a25.5,25.5,0,0,1,3.07.12c1.15.11,2.59.28,4.53.54a47.41,47.41,0,0,1,5.93,1.26,28.17,28.17,0,0,1,5.36,2,10.58,10.58,0,0,1,3.58,2.7,2.44,2.44,0,0,1,.34,2.87,7.85,7.85,0,0,1-2.27,2.08,19.27,19.27,0,0,1-3.76,1.77,35.42,35.42,0,0,1-4.85,1.28c-1.76.34-3.62.61-5.54.79a97.09,97.09,0,0,1-10.72.35,88.12,88.12,0,0,1-10.07-.83,73.35,73.35,0,0,1-8.94-2A38.46,38.46,0,0,1,500,273.94Z"/><path class="cls-1" d="M543.78,264.72c5.7.63,9.78,1.74,12.3,3.1s3.34,3,2.79,4.77c-.73,1.81-2.94,3.64-6.53,5.17A49.66,49.66,0,0,1,538.2,281c-12.91.77-22.82.07-30.24-1.43s-12.46-3.43-15.58-5.18-4.38-3.32-4.47-4.61,1-2.27,3-2.87A70.08,70.08,0,0,1,499,265c3.12-.6,6.57-1.4,9.93-2.13s6.5-1.67,9.26-2.63a30.31,30.31,0,0,0,6.33-2.85,10.78,10.78,0,0,0,3.24-3.47,2.31,2.31,0,0,0,0-2.5,4.05,4.05,0,0,0-2.43-1.41,15.42,15.42,0,0,0-4.25-.33c-1.46.05-4.25.21-7.71.53s-7.75.8-12.18,1.26-9.16,1-13.69,1.46-9,.84-12.91,1.57c3.38.41,6.51.92,9.35,1.34s5.36.68,7.46,1a26.15,26.15,0,0,1,5.1,1.31c1.16.49,1.8,1.06,1.8,1.69s-.51,1.12-1.34,1.53a14.12,14.12,0,0,1-3.32,1c-1.34.24-2.93.46-4.65.61s-3.62.17-5.5.26a44.5,44.5,0,0,0-9.63,1.57c-2.21.68-3.42,1.57-3.74,2.59s.21,2.26,1.58,3.49a26.16,26.16,0,0,0,6.45,3.79q6.52,2.82,13.31,5.51c4.48,1.77,9,3.28,13.55,4.61a127.43,127.43,0,0,0,13.49,3,100.63,100.63,0,0,0,12.7,1.09,77.41,77.41,0,0,0,21.6-3.15,64.69,64.69,0,0,0,14.54-6.63,14.62,14.62,0,0,0,4.59-4.73,6.88,6.88,0,0,0,.47-6.86c-1.25-2.08-3.88-3.9-8.66-5s-11.57-1.48-21-1c-3.2.28-4.77.57-5.3.91s0,.7.91,1a24.26,24.26,0,0,0,3.38.94A15.51,15.51,0,0,0,543.78,264.72Z"/><path class="cls-2" d="M531.54,264.08c5.2.81,9.65,1.67,12.38,2.84s3.82,2.72,2.15,4.89-7.19,3.62-13.65,4.27a79.8,79.8,0,0,1-19.43-.4c-5.43-.9-6.85-3.49-6.43-6.33s2.61-5.76,4.6-7.76,4.43-1.74,7.72-.83S526.37,263.28,531.54,264.08Z"/><path class="cls-4" d="M528.14,265.21a53.37,53.37,0,0,1,10.36,2.33c2.34.94,3.24,2.13,1.94,3.77s-5.78,2.69-11.07,3.1a71.16,71.16,0,0,1-15.87-.52c-4.48-.74-5.84-2.71-5.69-4.89s1.77-4.42,3.29-6,3.58-1.31,6.35-.58A91.49,91.49,0,0,0,528.14,265.21Z"/><path class="cls-5" d="M514.71,272.59a60.43,60.43,0,0,0,12.71.41c4.33-.3,8.06-1.06,9.08-2.3a1.83,1.83,0,0,0,.49-1c0-.36-.17-.73-.77-1.05a16.94,16.94,0,0,0-4.22-1.29c-1.76-.37-3.63-.67-4.94-.88-.83-.09-2.8-.77-5-1.32s-4.54-1-6.21-.58c-2.81.67-5.15,2.31-5.8,4S510.49,271.9,514.71,272.59Z"/><path class="cls-6" d="M514.71,272.59a60.48,60.48,0,0,0,12.71.41c4.33-.3,8.06-1.05,9.08-2.3a2.12,2.12,0,0,0,.46-.83,63.18,63.18,0,0,0-16.08-1.53c-4.39.23-8,1.18-9.74,3.05A9.14,9.14,0,0,0,514.71,272.59Z"/><path class="cls-2" d="M1257.5,268.59c-.88-2.89-5.42-4-8.13-4.56-5.8-1.14-15.85-3.64-20.2-6.17-8.34-4.84-15.74-8.1-27.45-8.42-4.17-.12-8.46-.49-12.71-.58-26.2-.56-46.13-3.27-69.55-11.76-1.23-.44-6.81-1-8.78-1.3-9.42-1.34-26.09.56-35,8.58-6.21,5.6-11.34,18.34-10.11,24.58.31,1.57.89,11.22,1.83,11.75,7.58,5.06,19,8,31.17,10,12,2,25.17,2.84,36.19,3.92a249.9,249.9,0,0,1,52.84,10.62c15.91,4.84,27.56,15.39,43.32,7.61,1.33-.66,2.55-1.42,5.63-3.08,3.42-1.85,11.34-16.64,14.1-20.35C1254.67,284,1259.29,275.19,1257.5,268.59Z"/><path class="cls-1" d="M1257.66,268.65c-.84-2.9-5.41-4.07-8.1-4.6-5.9-1.16-15.85-3.62-20.27-6.17-8.28-4.76-15.86-8.1-27.48-8.39-4.18-.1-8.48-.46-12.73-.54-26-.5-46.5-3.28-69.66-11.74-1.14-.42-6.9-1.06-8.77-1.32-9.49-1.32-26,.47-35,8.58a29.17,29.17,0,0,0-6.44,9c-1.85,3.59-2.23,4.53-1.5,7.33.38,1.48,1,10.26,2.08,10.78,7.78,4.61,19.56,7.16,31.69,9.34s24.87,3.77,35.62,5.39c18.07,2.73,34.38,7,51.75,12.48,15.73,4.93,27.59,15,43.58,6.58,1.38-.73,2.63-1.51,5.72-3.33,3.47-2,11.48-17.1,14.21-20.89,1.24-1.71,5.31-8.4,5.69-10.46A12.25,12.25,0,0,0,1257.66,268.65Z"/><path class="cls-1" d="M1255.5,273.3c1.33-5.7-7.74-6.2-12.31-7.46-4.74-1.3-9.86-2.08-13.87-4.3a56.33,56.33,0,0,0-8.47-4.34c-8.44-3-4.66-2.9-15.77-4.09a61.28,61.28,0,0,0-8.43-.31c-1.39,0-2.73-.21-4.09-.28l-12.47,0c-7.91-.19-10.3-.36-17.92-.85-12.38-.81-18-2.3-29.41-5.21l-7.17-2.34-7.37-2a101.36,101.36,0,0,0-13.47-2.28c-3.41-.26-13.37.61-17,1.8-11.08,3.63-21.89,13.38-13.52,19.35,14.32,10.19,45.15,17.21,65.59,21.17,9.74,1.89,20.11,4.67,29.81,7.32,19.11,5.22,36.83,10.92,59.55,4.18,7.88-2.35,21.74-10.69,25.65-18.44A7.65,7.65,0,0,0,1255.5,273.3Z"/><path class="cls-2" d="M1234.29,264.17c-6.75-2-8.53-4.65-14.67-6.73-5.51-1.87-3.17-2.55-12.26-2.33l-6.89-.15c-10.67.35-22.55-.82-32.85-1.6a235.79,235.79,0,0,1-38.07-5.95c-8.22-2.1-21.71-5.56-30.77-5.47-4,.05-10-.3-14.05,1.37-5.62,2.33-14.48,8-12.44,13.83a80.16,80.16,0,0,1,12.48-2.77c5.48-.6,9.75-1.36,15.24-1.14,13.65.54,20.1,1.94,32.38,5q12.07,3.16,24.11,6.51c11.73,3.39,29.23,9.37,43,8.56,8.59-.51,14.26-2,22.77-4.62A110.57,110.57,0,0,0,1234.29,264.17Z"/><path class="cls-2" d="M1072.57,257.7c4-.56,8.07-.88,12.09-1.12,4.58-.35,9.16-.56,13.73-.71,9.11,0,17.1,0,25.56,1.78,14.49,3,25.6,7.07,39.46,11.42,8.28,2.6,20.71,6.5,30,7.25,12.42,1,28.34-3.05,40.56-9.59l3.22-1.73c2.1.48,4.75,1.45,7.28,1.84,4.23.65,11.48,1.71,10.16,6.67-.73,2.7-4.13,6.42-4.39,6.53a126.43,126.43,0,0,1-12.88,2.9c-15.75,1.89-28.24,3.46-43.74,1.64-11.53-1.37-31.86-6.84-43.75-8.93a201.64,201.64,0,0,0-34.18-3.36q-4-.13-7.94-.18a10.89,10.89,0,0,1-5.36-.63c-5.92-1.69-18.32-5.38-22.92-8.07C1077.19,262,1073.8,260,1072.57,257.7Z"/><path class="cls-1" d="M1635.48,231.36c1-1-.39-.59-.37-4.22,0-1.63.87-1.33.23-2.83-.38-1.09,5.63-.94,6.5,2.05.13-.59,5,.19,4.69,4.85.7.24,3.84,2.77,2,5.7-.55.48,2.1,4.37.33,5.89-.78.67-1.81-.93-2.78-1.29-2-.74-4.34-1.25-5.26-.89C1641.11,237.24,1638.69,234,1635.48,231.36Z"/><path class="cls-1" d="M1639.14,228.49a3.33,3.33,0,0,0,.77-1,1.22,1.22,0,0,1,1.72-.54,23,23,0,0,1,2.72,1.87,1.35,1.35,0,0,1,.53,1.06c0,.37.23.7-.13,1l-.3.24a2.48,2.48,0,0,1,.42-.2c.64-.23,1.8,1,2.08,1.49a14.34,14.34,0,0,1,1,2.5,1.32,1.32,0,0,1-.1,1.06,1.19,1.19,0,0,1-.83.61,28.8,28.8,0,0,0-3.9,1.18c1.67-.05,2.67-1,3.95-1,.65,0,1.41,1.22,1.54,1.78a24,24,0,0,1,.49,3.21,1.28,1.28,0,0,1-.43,1.11,1.18,1.18,0,0,1-1.13.25c-2.45-.7-4.32-1.15-6.7-.16l-.34.14-.13,0,0-.13c-1.08-3.45-3.18-8-6.86-9.31l-.18-.06.12-.14c1.09-1.29,1.76-5.84,1.48-7.51a1.29,1.29,0,0,1,.22-1,1.19,1.19,0,0,1,.86-.51,4.65,4.65,0,0,1,2.73,1c.37.24,1.22.78,1.26,1.24a2.81,2.81,0,0,1-.81,1.88Zm4.35,3.34a8.45,8.45,0,0,0-1.16,1.15C1642.71,232.63,1643.1,232.21,1643.49,231.84Z"/><path class="cls-1" d="M1640.45,242.91c1.39-.54,2.43-1.32,7.13,0a1.05,1.05,0,0,0,1-.22,1.16,1.16,0,0,0,.39-1,25.07,25.07,0,0,0-.48-3.19c-.13-.56-.87-1.69-1.42-1.68-1.13,0-2.4,1.16-4.47,1a25.32,25.32,0,0,1,4.4-1.42,1.05,1.05,0,0,0,.75-.55,1.2,1.2,0,0,0,.09-1,15.24,15.24,0,0,0-1-2.48c-.28-.51-1.4-1.62-1.93-1.43-1,.38-2.17,1.94-3.13,2.59a10,10,0,0,1,2.89-2.84c.29-.23.09-.49.08-.88a1.22,1.22,0,0,0-.48-1,24.62,24.62,0,0,0-2.71-1.86,1.09,1.09,0,0,0-1.54.48,3.7,3.7,0,0,1-1.36,1.48c.26-.55,1.24-1.46,1.16-2.39,0-.4-.87-.93-1.2-1.15a4.4,4.4,0,0,0-2.64-.93,1.05,1.05,0,0,0-.77.45,1.15,1.15,0,0,0-.2.91c.35,2.07-.55,6.49-1.51,7.62C1636.82,234.68,1639.08,238.54,1640.45,242.91Z"/><path class="cls-1" d="M1647.28,236c.5-.25.11-1.66-.51-1.71-.25,0-.37,1.05-.73,1.16-1.05.34-6.52,2.6-6.61,3.2.09.75,2.66-1.33,7.85-2.65Zm1.21,6.63c.55.05.67-1.38.1-1.77-.22-.15-.71.71-1.07.61-1.09-.29-6.66-.21-6.95.27-.17.71,2.64-.82,7.91.89Zm-4.19-12c-4.28,3.25-5.9,6.19-6.25,5.52-.13-.6,4.08-4.84,4.93-5.56.29-.23,0-1.29.25-1.37C1643.82,229,1644.67,230.18,1644.3,230.61Z"/><path class="cls-1" d="M1646.66,237.23c.59-.43,1.9,1.47,1.34,1.81-.09.06-.48-.51-.94-.74-.92-.45-3.37.06-4.38.54s-1.79.47-2.37.73c-.41.18-.9.09-.56-.34.21-.25.86.12,1.57-.44,1.31-1,3.73-.57,5.34-1.56Zm-1.8-5.9a54.24,54.24,0,0,0-4.46,3.66c-1.89,1.47-1.48,2.32-.81,2s1.26-1.55,2.18-2,2.58-3.09,3.5-2.63c.45.22.84.79.94.73.55-.34-.76-2.24-1.34-1.81Zm-4.23-4c.39-.57,2.35.86,2,1.33-.07.08-.65-.34-1.17-.43-1-.17-1.93,2.43-2.7,3.16s-1.47,2.47-1.92,2.88-.6-.61.62-2.54a50.91,50.91,0,0,1,3.21-4.41Zm-5.18-2.1c-.46,1.22,0,2.26,0,3.67a15,15,0,0,1-.63,2.16c-.58,2.29-.28,2.64.06,2s.76-2.64,1.22-3.51-.63-3.54.37-3.64c.49,0,1.14.24,1.18.14C1637.82,225.52,1635.64,224.57,1635.45,225.26Z"/><path class="cls-1" d="M1381.95,246.57c-1.36-.35-.34.63-3.54,2.34-1.44.77-1.58-.13-2.59,1.14-.78.86-3.48-4.51-1.26-6.7-.58.17-2.19-4.5,2.06-6.44-.12-.72.62-4.69,4.08-4.45.69.26,2.86-3.93,5-3.1,1,.37,0,2,.18,3.06.28,2.09,1,4.42,1.7,5.06C1384.46,238.81,1382.73,242.5,1381.95,246.57Z"/><path class="cls-1" d="M1377.69,244.71a3.32,3.32,0,0,0-1.26-.2,1.22,1.22,0,0,1-1.28-1.26,23.25,23.25,0,0,1,.36-3.29,1.35,1.35,0,0,1,.68-1c.32-.18.5-.54.93-.35l.35.16a2.48,2.48,0,0,1-.38-.28c-.5-.45,0-2.06.33-2.54a14.46,14.46,0,0,1,1.72-2.08,1.32,1.32,0,0,1,1-.42,1.18,1.18,0,0,1,.93.44,28.85,28.85,0,0,0,2.88,2.87c-.84-1.45-2.14-1.88-2.76-3-.32-.57.41-1.82.84-2.21a24,24,0,0,1,2.6-2,1.29,1.29,0,0,1,1.18-.15,1.17,1.17,0,0,1,.75.88c.54,2.49,1,4.35,3,6l.29.24.1.09-.1.1c-2.52,2.59-5.56,6.62-5,10.47l0,.18-.18,0c-1.66-.35-6,1.23-7.31,2.28a1.29,1.29,0,0,1-1,.28,1.18,1.18,0,0,1-.85-.52,4.65,4.65,0,0,1-.45-2.85c0-.44.11-1.44.5-1.7a2.81,2.81,0,0,1,2-.18Zm.89-5.42a8.41,8.41,0,0,0,1.56.48C1379.64,239.6,1379.09,239.46,1378.58,239.29Z"/><path class="cls-1" d="M1389.77,236.69c-1.13-1-2.31-1.51-3.35-6.28a1,1,0,0,0-.67-.79,1.16,1.16,0,0,0-1.06.14,25.43,25.43,0,0,0-2.58,1.95c-.43.38-1.08,1.57-.81,2,.55,1,2.16,1.56,3,3.46A25,25,0,0,1,1381,234a1,1,0,0,0-.84-.39,1.19,1.19,0,0,0-.89.38,15.21,15.21,0,0,0-1.71,2.06c-.32.5-.76,2-.35,2.38.82.74,2.73,1,3.75,1.52a9.9,9.9,0,0,1-3.87-1.19c-.34-.15-.48.15-.81.35a1.22,1.22,0,0,0-.62.88,24.46,24.46,0,0,0-.36,3.27,1.09,1.09,0,0,0,1.15,1.13,3.66,3.66,0,0,1,1.95.49c-.61,0-1.87-.4-2.65.12-.33.22-.41,1.21-.44,1.6a4.4,4.4,0,0,0,.43,2.77,1,1,0,0,0,.76.46,1.16,1.16,0,0,0,.89-.26c1.66-1.3,6-2.6,7.42-2.3C1384.24,243.81,1386.57,240,1389.77,236.69Z"/><path class="cls-1" d="M1380.45,234c-.46-.32-1.51.69-1.26,1.26.1.22,1.1-.17,1.36.09.79.77,5.36,4.5,5.94,4.29.62-.44-2.42-1.71-6-5.65Zm5.27-4.22c1,5.46,3.65,7.2,2.95,7.39-.56,0-3.26-4.89-3.52-6-.08-.37-1.07-.38-1-.65.08-.68,1.4-1.26,1.61-.75Zm-8.61,9.41c4.88,2.23,8.24,2.25,7.81,2.88-.47.4-6.19-1.29-7.23-1.69-.34-.14-1.15.59-1.32.43C1375.93,240.35,1376.57,239,1377.12,239.16Z"/><path class="cls-1" d="M1381.83,233.93c-.65-.31.4-2.37,1-2,.1.06-.22.67-.2,1.18,0,1,1.64,2.94,2.54,3.6s1.26,1.35,1.76,1.74c.35.28.51.75,0,.65-.32-.06-.3-.81-1.12-1.17-1.52-.67-2.26-3-3.89-4Zm-4.34,4.4a53.77,53.77,0,0,0,5.33,2.18c2.19,1,2.74.19,2.17-.25s-2-.37-2.77-1-3.94-.8-4-1.83c0-.51.3-1.12.2-1.17-.56-.33-1.61,1.73-1,2Zm-1.5,5.62c-.68-.07-.36-2.48.25-2.36.11,0,0,.74.17,1.23.34,1,3.05.54,4.06.87s2.88.12,3.45.32-.26.82-2.53.66a50.53,50.53,0,0,1-5.4-.72Zm.6,5.56c-.69.15-.89-2.22-.27-2.3.11,0,.16.69.44,1.1.56.83,2.31-1.39,3.38-1.41s3.05-.6,3.66-.6.53.44-1.76,1a14.78,14.78,0,0,0-2.2.48C1378.56,248.41,1377.88,249.33,1376.59,249.51Z"/><path class="cls-1" d="M1595.64,222.45c48.76-17.64,68,42.34,20.17,64.31a116.32,116.32,0,0,1-19.61,6.64,253,253,0,0,1-25.13,5,456.5,456.5,0,0,1-59.52,4.75c-23.25.43-47.26-.46-70.39-4-12.69-1.94-34.9-6.17-45.52-15.33-6.23-5.38-11.88-12.58-14.21-21.5a31.13,31.13,0,0,1,1.32-20.25c5.33-12.39,17.29-17.45,28.45-14.58a132.64,132.64,0,0,0,16.19,2.79c8,1,16.08,1.72,24.12,2.27,20.41,1.4,41,1.84,61.39,1.32a446.62,446.62,0,0,0,45.47-3.24C1570.7,229,1583.78,226.74,1595.64,222.45Z"/><path class="cls-1" d="M1595.28,223.22c48.28-17.29,67.21,41.37,19.93,62.9s-189,22.63-218.85-2.88-10.64-61.68,15.31-55.07S1547,240.51,1595.28,223.22Z"/><path class="cls-1" d="M1593.28,225.22c-54.46,16.87-149.77,9-182.24,3.34-26.29-4.75-29.63,28-14.34,36.68,42.1,24,163.31,17.38,212.22,2.47C1658.13,256,1640,206.64,1593.28,225.22Z"/><path class="cls-1" d="M1592.79,226.71c-54.37,17.5-142.16,11.57-180.82,3.68-22.27-4.21-27.71,21.75-10.86,30.43,36.78,20.08,155.22,16.76,202.77,2C1648.49,251.54,1631.75,211.36,1592.79,226.71Z"/><path class="cls-1" d="M1592.31,228.2c-54.28,18.12-134.55,14.14-179.39,4-18.25-3.67-25.78,15.52-7.39,24.17,31.47,16.16,147.12,16.15,193.33,1.57C1638.86,247.07,1623.52,216.08,1592.31,228.2Z"/><path class="cls-1" d="M1591.82,229.69c-54.19,18.75-126.94,16.71-178,4.36-14.22-3.14-23.86,9.3-3.91,17.92,26.16,12.24,139,15.53,183.88,1.12C1629.22,242.6,1615.29,220.8,1591.82,229.69Z"/><path class="cls-1" d="M1591.34,231.19c-54.1,19.38-119.34,19.28-176.54,4.7-10.2-2.6-21.93,3.08-.43,11.66,20.85,8.32,130.93,14.91,174.44.66C1619.58,238.13,1607.05,225.52,1591.34,231.19Z"/><path class="cls-1" d="M1589.75,230.07C1527,244,1471.59,241.5,1423.94,233c-12.66-2.27-14.52-3.82-12.07-3.82,1.91,0,5.81,1.19,13.27,2.18,43.71,5.8,88.1,10.3,151.66-1.46,1.29-.24,8.31-1.85,9-2,1.51-.33,8.91-2.54,9.82-1.6C1597.32,228,1592.52,229.45,1589.75,230.07Z"/><path class="cls-1" d="M1440.62,237.78c3.41,4.62,3.79,13.33,3.06,18.72a33.45,33.45,0,0,1-14.31,23.56c-2.63,1.81-8.54-3-4.54-6.27,12.09-10,16.33-21.2,8.51-36.11l-.1-.19-.05-.21c-1.08-4.23,5.09-5.71,7.45.49ZM1591.33,229c5.12,2.23,9.66,9.37,11.66,14.26a32.4,32.4,0,0,1-.64,26.75c-1.36,2.85-8.75,1.68-7-3.1,5.32-14.22,3.47-25.64-10.3-34.36l-.18-.11-.15-.15c-3-3.07,1.53-7.38,6.57-3.28ZM1567,234.88c5.62,3.13,9.78,11.68,11.3,17.58a35,35,0,0,1-5.75,29.85c-.89,1.23-2.86,1.25-4.2,1-2.64-.52-4.43-2.74-2.86-5.37,9.11-15.3,9.06-28.46-6-40.24l-.18-.14-.14-.18a3,3,0,0,1-.54-3,3.55,3.55,0,0,1,4-1.86,7.93,7.93,0,0,1,4.39,2.4Zm-23.74,3.93c5,5,8.37,14.76,9.35,21.51,1.51,10.3-.62,20.63-8.7,27.78-2.38,2.11-9.76-2.66-6.32-6.51,12.69-14.22,7-29.09-3.67-42.63l-.1-.13-.08-.15a3,3,0,0,1,0-3c1.06-1.67,3.31-1.51,4.91-.87a10.19,10.19,0,0,1,4.62,4Zm-29.58.66c5.28,5.09,8.29,15.19,8.82,22.24.85,11.37-3.12,21.61-12.43,28.51-2.61,1.93-10.44-3-6.27-6.85a34.75,34.75,0,0,0,7.53-9.5c6.25-12.18,0-24.55-7.74-34.31l-.12-.15-.09-.17a3,3,0,0,1,0-2.81c1-1.85,3.51-1.76,5.23-1.16a10,10,0,0,1,5.1,4.2Zm-27.76.21c5.6,5,8.43,14.9,8.52,22.1.16,12.14-5.92,21.84-16.19,28.12-1.3.8-3.4.08-4.66-.54-1.44-.71-3-1.9-3.08-3.64a3.33,3.33,0,0,1,1.48-2.83c17-12.75,18.85-26.17,4.7-43l-.14-.16-.1-.19a3,3,0,0,1,.05-3.07c1.09-1.63,3.3-1.44,4.88-.78a10.42,10.42,0,0,1,4.53,4Zm-25.33-.14a8.94,8.94,0,0,0-3.56-3.94c-1.41-.76-3.32-1-4.49.35a3,3,0,0,0-.44,3.15l.07.2.12.18c10.11,15.25,8.89,28.05-4.41,40.1q-1,.94-2.13,1.84c-4.4,3.64,2.77,8.63,5.49,6.79a34,34,0,0,0,15.19-27.2C1466.74,254.49,1465.16,244.62,1460.57,239.55Z"/><path class="cls-1" d="M1434,236.19c9.49,18.09,1.15,30-9,38.38-2.16,1.79,1.63,3.82,2.33,3.33,17.38-12,15.14-34.19,10.66-39.87C1436.62,234,1433.45,234.12,1434,236.19Z"/><path class="cls-1" d="M1452.83,237.83c13.86,20.91,4.79,34.7-6.9,44.37-2.49,2.07,2.46,4.41,3.28,3.85,20.35-13.82,15.06-39.53,8.84-46.09C1455.88,235.34,1451.94,235.43,1452.83,237.83Z"/><path class="cls-1" d="M1477.11,238.07c18.07,21.51,8.24,35.71-5,45.67-2.83,2.13,3.26,4.54,4.2,4,23.29-14.23,15.11-40.68,7.21-47.44C1480.57,235.51,1475.88,235.6,1477.11,238.07Z"/><path class="cls-1" d="M1504,237.79c17.2,21.82,11,36.21,0,46.3-2.34,2.16,3.14,4.61,3.93,4,19.47-14.42,10.61-41.25,3.26-48.1C1508.37,235.18,1502.79,235.28,1504,237.79Z"/><path class="cls-1" d="M1534.38,237.18c16.66,21.21,12.35,35.19,3.59,45-1.87,2.09,3.09,4.48,3.73,3.91,15.84-14,6.05-40.08-.88-46.74C1537.95,234.65,1533.1,234.75,1534.38,237.18Z"/><path class="cls-1" d="M1559.66,235.59c18.17,14.24,14,29.86,6.42,42.63-1.63,2.73,3.42,3.16,4,2.37,14.11-19.5,2.17-41-5.18-44.86C1561.65,232.29,1558.19,233.72,1559.66,235.59Z"/><path class="cls-1" d="M1585.1,230.39c16.74,10.59,15.5,24.63,11,36.55-1,2.54,3.22,2.42,3.58,1.67,8.84-18.45-3.82-36-10.34-38.62C1586.28,227.3,1583.65,228.9,1585.1,230.39Z"/><path class="cls-7" d="M862.8,355c-.33-.68-.61-1.38-.88-2.08s-.52-1.42-.75-2.13a42.09,42.09,0,0,1-1.16-4.38c-.16-.74-.3-1.49-.4-2.24-.06-.37-.1-.76-.13-1.14s-.07-.76-.08-1.15,0-.76,0-1.15,0-.77.07-1.16.13-.77.19-1.16.23-.76.36-1.13h0l.15.36a19.72,19.72,0,0,1-2.14-1.24c-.34-.22-.68-.46-1-.71s-.66-.5-1-.76-.64-.52-.94-.81-.61-.56-.9-.86-.58-.6-.85-.91l-.8-1c-.27-.32-.48-.68-.73-1a9.91,9.91,0,0,1-.66-1.07,10.22,10.22,0,0,1-.57-1.12c-.17-.39-.33-.78-.49-1.17l-.34-1.23a7.6,7.6,0,0,1-.21-1.25,6.39,6.39,0,0,1-.06-1.26c0-.42,0-.84.07-1.26l.16.3c-.32-.16-.63-.33-.94-.51s-.61-.36-.9-.56c-.59-.39-1.17-.8-1.73-1.23s-1.11-.89-1.65-1.35-1-1-1.53-1.5c-.25-.26-.48-.53-.71-.8s-.47-.54-.68-.84l-.63-.88c-.19-.3-.37-.63-.55-.94a8.76,8.76,0,0,1-.48-1,5.76,5.76,0,0,1-.39-1,8,8,0,0,1-.27-1.06c-.05-.36-.1-.73-.14-1.09l.47.26h0a19.75,19.75,0,0,1-2.5,1.12,27.08,27.08,0,0,1-2.62.79,19.83,19.83,0,0,1-5.49.55c-.46,0-.93-.06-1.39-.13a12.46,12.46,0,0,1-1.38-.25l-.68-.18-.67-.22a10.77,10.77,0,0,1-1.3-.54,12.13,12.13,0,0,1-1.23-.68,11.38,11.38,0,0,1-1.13-.82l-.53-.46-.49-.49a11.52,11.52,0,0,1-.9-1h0l.32.11a7.41,7.41,0,0,1-1.52.24,12.42,12.42,0,0,1-1.53,0,12,12,0,0,1-1.52-.23l-.75-.18-.73-.26a7,7,0,0,1-.72-.28l-.69-.36a7.92,7.92,0,0,1-1.31-.84c-.21-.16-.42-.3-.62-.47l-.56-.54a7.52,7.52,0,0,1-1.05-1.14c-.31-.41-.64-.81-.92-1.24l-.75-1.33a8.78,8.78,0,0,1-.63-1.38l-.55-1.41q-.2-.72-.39-1.45c-.11-.49-.27-1-.35-1.45-.13-1-.28-2-.37-2.95h0l.09.18L803,290.8h0l.31.09a9.54,9.54,0,0,1-1.16.27c-.39.07-.77.12-1.16.16s-.78,0-1.18.06-.79,0-1.18,0-.79-.08-1.18-.13-.78-.16-1.17-.24a9.07,9.07,0,0,1-1.15-.34c-.19-.07-.38-.12-.57-.2l-.55-.25a7.14,7.14,0,0,1-1.07-.55c-.34-.22-.69-.42-1-.65l-.93-.77a6.81,6.81,0,0,1-.84-.86,7.9,7.9,0,0,1-.76-.92l-.64-1a6.79,6.79,0,0,1-.53-1.06c-.16-.36-.32-.72-.47-1.08l.3.19h0a21.41,21.41,0,0,1-2.93-.07,23.72,23.72,0,0,1-2.9-.44c-.48-.1-1-.21-1.43-.35s-.94-.29-1.41-.46-.93-.36-1.38-.57-.9-.44-1.33-.7a11.77,11.77,0,0,1-1.26-.83l-.6-.47-.57-.51a10.9,10.9,0,0,1-1-1.14,9,9,0,0,1-.85-1.28l-.35-.68-.28-.71a6.12,6.12,0,0,1-.22-.73,5.83,5.83,0,0,1-.17-.74l-.11-.75,0-.75a10.78,10.78,0,0,1,0-1.48h0l.21.31a7.06,7.06,0,0,1-1.71-.86,9.55,9.55,0,0,1-.75-.6,7.09,7.09,0,0,1-.67-.7,4.7,4.7,0,0,1-.57-.8,6.26,6.26,0,0,1-.75-1.83,6.84,6.84,0,0,1-.17-1l0-1c0-.32.07-.64.12-1,0-.16,0-.32.07-.48l.13-.46.28-.91c.12-.29.26-.57.39-.86s.25-.57.4-.84c.34-.52.66-1,1-1.55l0,.31h0a11.75,11.75,0,0,1-.54-1.23c-.16-.42-.31-.84-.44-1.26s-.22-.86-.33-1.29-.16-.88-.25-1.32-.11-.89-.15-1.33,0-.9,0-1.35a11.29,11.29,0,0,1,.06-1.35l.05-.67.12-.67a10.88,10.88,0,0,1,.28-1.32l.39-1.3c.17-.42.36-.83.54-1.24a6.81,6.81,0,0,1,.65-1.19,13.32,13.32,0,0,1,.74-1.13l.85-1a7.77,7.77,0,0,1,.95-.95l1-.89-.08.11h0c.31-.92.71-1.78,1.1-2.66s.86-1.71,1.34-2.54a31.52,31.52,0,0,1,3.32-4.71,20.64,20.64,0,0,1,4.34-3.89,14.2,14.2,0,0,1,1.27-.74,12.84,12.84,0,0,1,1.36-.59,7.19,7.19,0,0,1,.71-.23,6.25,6.25,0,0,1,.72-.18,9.21,9.21,0,0,1,1.46-.2h0l-.23.14c.49-.85,1.05-1.63,1.61-2.42s1.17-1.54,1.81-2.28,1.3-1.45,2-2.14,1.42-1.34,2.17-2a23.56,23.56,0,0,1,2.39-1.74c.41-.27.85-.51,1.29-.74l.67-.33.69-.29a12,12,0,0,1,1.44-.46,5.9,5.9,0,0,1,.75-.16,6.05,6.05,0,0,1,.76-.1,8.09,8.09,0,0,1,1.53,0c.25,0,.51.07.75.13l.73.22h0l-.4.21a6.38,6.38,0,0,1,.8-1.5l.51-.65.57-.6a11.08,11.08,0,0,1,1.26-1.07,12.58,12.58,0,0,1,1.39-.88,12,12,0,0,1,1.47-.72,12.17,12.17,0,0,1,1.53-.58l1.57-.45,1.59-.32a14,14,0,0,1,1.6-.23c.54-.06,1.07-.13,1.61-.16l1.61,0c.54,0,1.08,0,1.61,0s1.07.06,1.6.1,1.07,0,1.6.14q1.59.21,3.16.48h0l-.23.06a14.66,14.66,0,0,1,1.94-1.3c.33-.2.68-.36,1-.54s.71-.32,1.06-.48.73-.28,1.09-.41.75-.23,1.13-.33a8.46,8.46,0,0,1,1.15-.25,11.69,11.69,0,0,1,1.17-.17l1.18-.08,1.19,0a7.55,7.55,0,0,1,1.18.15,6.4,6.4,0,0,1,1.16.25l1.13.36,1.07.51c.18.09.35.17.52.27l.49.34c.32.22.64.45,1,.68h-.37a8.68,8.68,0,0,1,1.28-.76,6.29,6.29,0,0,1,.68-.3,6.8,6.8,0,0,1,.7-.25,5.68,5.68,0,0,1,.72-.2,4.15,4.15,0,0,1,.74-.13,4.7,4.7,0,0,1,.76-.06,5.1,5.1,0,0,1,.77,0c.26,0,.51.06.77.12l.74.23a6.76,6.76,0,0,1,.7.35,3.08,3.08,0,0,1,.64.43,3.67,3.67,0,0,1,.58.51l.49.58a3.33,3.33,0,0,1,.41.63c.13.22.25.43.36.65h0l-.5-.09a6.44,6.44,0,0,1,1.14-.82c.2-.13.4-.22.61-.32a5.19,5.19,0,0,1,.63-.28,9.57,9.57,0,0,1,1.31-.42,13.36,13.36,0,0,1,1.35-.27c.45-.07.91-.08,1.37-.11s.92,0,1.37,0a12,12,0,0,1,1.36.19c.22,0,.45.07.68.12l.66.18c.43.13.88.22,1.3.4l1.26.5a11.24,11.24,0,0,1,1.22.59l1.19.63,1.12.74c.37.25.75.48,1.11.74.69.56,1.39,1.11,2.07,1.68l-.26-.07h0a16.22,16.22,0,0,1,2.42-.42,18.14,18.14,0,0,1,2.46-.09,16.51,16.51,0,0,1,2.46.25c.41.08.82.14,1.22.26s.8.23,1.2.36a12.48,12.48,0,0,1,1.17.47,12.14,12.14,0,0,1,1.12.59,9.74,9.74,0,0,1,1.06.71,10.43,10.43,0,0,1,1,.83,11.57,11.57,0,0,1,.86.94,10.39,10.39,0,0,1,.72,1,8.61,8.61,0,0,1,.58,1.11,9.65,9.65,0,0,1,.44,1.16h0l-.37-.19a9.26,9.26,0,0,1,1.57-.2,13.32,13.32,0,0,1,1.57,0,10.94,10.94,0,0,1,1.56.21,13.51,13.51,0,0,1,1.53.39,12.53,12.53,0,0,1,1.47.6,12.35,12.35,0,0,1,1.38.79c.43.3.86.63,1.26,1a12.59,12.59,0,0,1,1.12,1.13c.34.41.7.81,1,1.21l.92,1.2c.62.79,1.23,1.59,1.87,2.37s1.26,1.57,1.91,2.33l1,1.11c.33.37.7.66,1.05,1h0l.13.1,0,.12c.08.57.14,1.14.19,1.72,0,.29,0,.58.05.87v.45a4.75,4.75,0,0,1-.05.49h0l-.28-.41a11.19,11.19,0,0,1,2,.4,17,17,0,0,1,1.92.68l.92.45.88.51c.29.17.57.39.85.58a8.71,8.71,0,0,1,.81.64,7.17,7.17,0,0,1,.76.7c.24.25.48.49.71.76l.63.82a7.77,7.77,0,0,1,.57.87,7.32,7.32,0,0,1,.51.9l.42.95a7.18,7.18,0,0,1,.35,1l.31,1,0-.07c.16.47.29.91.41,1.37s.24.91.32,1.37l.13.69c.05.23.07.46.1.7.05.47.14.93.16,1.4l.05,1.41c0,.47,0,.94-.07,1.41l-.06.7c0,.23-.09.46-.13.7-.09.46-.2.92-.31,1.38h0l0-.26a23.78,23.78,0,0,1,1.46,2.44c.23.41.42.84.62,1.27s.37.87.56,1.3.33.89.49,1.33.29.9.41,1.36a14,14,0,0,1,.34,1.38c.09.47.21.93.26,1.4l.18,1.42c0,.48,0,1,.05,1.43a10.38,10.38,0,0,1-.05,1.43,10.64,10.64,0,0,1-.15,1.43l-.28,1.41c-.12.46-.29.91-.43,1.37l-.23.68-.31.65-.64,1.28h0l0-.36a5.39,5.39,0,0,1,.63.93,8,8,0,0,1,.47,1,7.68,7.68,0,0,1,.33,1,10.44,10.44,0,0,1,.22,1.08c.06.36.08.73.11,1.09s0,.73,0,1.1a7.78,7.78,0,0,1-.11,1.09l-.07.54-.12.53c-.09.35-.16.71-.27,1.05l-.36,1a8,8,0,0,1-.42,1l-.46,1c-.17.31-.36.61-.54.92s-.36.61-.55.91c-.43.57-.84,1.14-1.29,1.69h0l.06-.22a10.15,10.15,0,0,1,0,1.2c0,.4,0,.79-.09,1.18s-.14.78-.2,1.17-.2.77-.32,1.15-.27.75-.43,1.11l-.55,1.07-.66,1c-.24.32-.52.61-.78.92a7.42,7.42,0,0,1-.87.82l-.45.39c-.16.12-.33.22-.5.33-.34.21-.66.45-1,.64l-1.08.5c-.18.08-.36.17-.54.24l-.57.18-1.13.35c-.38.1-.77.14-1.16.22l-1.16.2h0l.16-.59a18.48,18.48,0,0,1,2,1.87,18.22,18.22,0,0,1,1.67,2.12,12,12,0,0,1,2,5,8.53,8.53,0,0,1-1,5.33,11.21,11.21,0,0,1-1.61,2.2,11.49,11.49,0,0,1-1,1l-.25.23-.06.06-.09.07-.13.1-.54.39c-.73.52-1.48,1-2.22,1.48s-1.52.93-2.27,1.39-1.55.87-2.33,1.31c-.39.21-.77.43-1.17.64l-1.2.59c-.8.38-1.59.8-2.4,1.15l-2.46,1c-.81.37-1.66.65-2.5.94l-2.52.88,0,0c-1.26.58-2.53,1.18-3.76,1.83-.31.16-.61.33-.92.49s-.61.33-.9.51-.6.35-.88.54l-.84.58,0,0h0a15,15,0,0,1-1.78.79,16.48,16.48,0,0,1-1.84.59c-.31.09-.62.16-.94.22a9,9,0,0,1-1,.17c-.32,0-.64.1-1,.1s-.65,0-1,0l-1-.05c-.33,0-.65-.1-1-.14a5.2,5.2,0,0,1-1-.23,5.47,5.47,0,0,1-.93-.32l-.89-.42c-.28-.16-.55-.36-.82-.54l-.4-.28-.36-.33-.71-.67h0l.57-.19,0,1.52c0,.51,0,1,0,1.53,0,1,0,2,.06,3.06q0,.76.06,1.53l.07,1.53c0,.51,0,1,.07,1.53l.11,1.53.11,1.53c0,.51.07,1,.14,1.53.12,1,.22,2,.32,3.05,0,.51.1,1,.19,1.52s.16,1,.22,1.52c.14,1,.29,2,.4,3.06-.28-1-.53-2-.79-3s-.52-2-.69-3-.38-2-.55-3-.27-2-.4-3.07l-.17-1.54c-.06-.51-.07-1-.11-1.55,0-1-.14-2.06-.12-3.1V338c0-.52,0-1,.06-1.55a30.28,30.28,0,0,1,.33-3.1l.11-.66.46.47h0l.7.59.35.29.39.24c.26.16.5.33.77.47l.82.36a5.89,5.89,0,0,0,.85.28,4.56,4.56,0,0,0,.88.2c.3,0,.59.11.89.12l.91,0c.3,0,.61,0,.91,0a9,9,0,0,0,.91-.1,8.09,8.09,0,0,0,.9-.15c.3-.06.6-.12.9-.21a15.49,15.49,0,0,0,1.75-.56,14.36,14.36,0,0,0,1.67-.74l0,0,.89-.61c.3-.2.61-.37.92-.55s.62-.35.93-.52.62-.34.94-.5c1.25-.65,2.52-1.26,3.81-1.84h0l2.49-.86c.83-.28,1.67-.56,2.47-.92l2.43-1c.81-.35,1.59-.76,2.38-1.13l1.19-.58c.39-.2.77-.42,1.16-.63.77-.43,1.56-.83,2.31-1.28s1.52-.89,2.26-1.37,1.48-.95,2.2-1.46l.54-.38.13-.1,0,0,.06-.05.24-.22a11.09,11.09,0,0,0,.92-.91,10.51,10.51,0,0,0,1.52-2.06,7.83,7.83,0,0,0,1-4.89,11.3,11.3,0,0,0-1.91-4.73,17.44,17.44,0,0,0-1.6-2,17.85,17.85,0,0,0-1.87-1.8l-.55-.45.71-.14h0l1.11-.25c.37-.09.74-.15,1.1-.26l1.06-.37.53-.18c.17-.07.34-.16.5-.24l1-.49c.32-.19.62-.41.93-.61.15-.11.31-.2.46-.31l.41-.37a6.65,6.65,0,0,0,.8-.76c.23-.28.49-.55.72-.84l.62-.92.51-1c.15-.34.27-.69.42-1s.22-.71.33-1.06.17-.72.22-1.09.12-.74.14-1.11a9.64,9.64,0,0,0,0-1.1v-.13l.06-.09h0c.32-.61.67-1.2,1-1.8.16-.3.31-.61.46-.91s.31-.61.45-.92c.23-.64.56-1.24.75-1.88l.32-1c.1-.32.16-.65.24-1l.12-.49.07-.49a9.56,9.56,0,0,0,.13-1c0-.33.06-.66,0-1s0-.66,0-1a9.11,9.11,0,0,0-.13-1,8.22,8.22,0,0,0-.22-1,6.91,6.91,0,0,0-.32-.94,7,7,0,0,0-.42-.87l-.12-.2.09-.16h0l.51-1.27.25-.63.18-.66c.11-.44.26-.87.35-1.31l.21-1.34a10,10,0,0,0,.12-1.35,9.57,9.57,0,0,0,0-1.36l-.06-1.36-.16-1.35c0-.45-.16-.9-.24-1.34a13,13,0,0,0-.31-1.33c-.11-.44-.23-.88-.38-1.32s-.26-.88-.44-1.3-.31-.86-.5-1.28-.36-.84-.56-1.26a23,23,0,0,0-1.27-2.43l-.07-.12,0-.14h0c0-.45.05-.9.09-1.34,0-.22,0-.44,0-.66l0-.67c0-.44,0-.89-.05-1.33l-.14-1.33c0-.22-.07-.44-.11-.66l-.11-.66c0-.22-.06-.44-.12-.66l-.15-.65c-.09-.44-.2-.87-.32-1.29s-.26-.86-.39-1.25l0-.07-.28-.9a6,6,0,0,0-.31-.88l-.38-.86a7.86,7.86,0,0,0-.44-.82,6.82,6.82,0,0,0-.49-.79l-.55-.76c-.19-.24-.41-.46-.62-.7a6.25,6.25,0,0,0-.66-.67,7.59,7.59,0,0,0-.7-.62c-.25-.19-.49-.4-.75-.57l-.79-.52-.83-.47a16.24,16.24,0,0,0-1.74-.79,14.49,14.49,0,0,0-1.82-.56h0l-.05-.39v0c0-.12-.19-.26-.19-.4v-.41c0-.28,0-.55,0-.84,0-.56-.11-1.13-.19-1.68l.14.23h0a13.89,13.89,0,0,1-1.26-1c-.38-.35-.77-.69-1.14-1.05-.71-.74-1.42-1.48-2.09-2.25-.34-.38-.66-.77-1-1.16s-.65-.78-1-1.18l-.94-1.2c-.31-.42-.61-.78-.92-1.15a11.63,11.63,0,0,0-1-1c-.36-.32-.74-.61-1.12-.9a11.12,11.12,0,0,0-1.24-.74,11.41,11.41,0,0,0-1.31-.61,12.6,12.6,0,0,0-1.39-.43,13.56,13.56,0,0,0-1.43-.28,12.47,12.47,0,0,0-1.46-.13,11.6,11.6,0,0,0-1.46,0l-.28,0-.09-.22h0c-.22-.33-.39-.67-.62-1l-.33-.47L891,215c-.22-.3-.5-.57-.75-.85a10.33,10.33,0,0,0-.83-.76,10.93,10.93,0,0,0-.89-.68c-.31-.21-.63-.41-1-.59a10.81,10.81,0,0,0-1-.5c-.34-.15-.69-.3-1-.43a19,19,0,0,0-2.2-.62,22.76,22.76,0,0,0-2.28-.37l-1.16-.1-1.17-.05c-.78,0-1.57,0-2.34,0h0l-.11,0-.15-.09c-.75-.46-1.47-.95-2.19-1.41-.37-.23-.75-.43-1.12-.65l-1.12-.64-1.17-.54a10.27,10.27,0,0,0-1.17-.52l-1.19-.45c-.4-.16-.82-.23-1.22-.36l-.61-.17c-.2-.05-.41-.08-.62-.12-.42-.06-.83-.17-1.25-.19s-.84-.08-1.26-.09-.84,0-1.26,0a11.89,11.89,0,0,0-1.24.17,9,9,0,0,0-1.22.31,4.52,4.52,0,0,0-.6.2c-.19.08-.4.14-.58.24a8.14,8.14,0,0,0-1.08.59l-.33.22-.17-.31h0l-.42-.54a4.06,4.06,0,0,0-.43-.52l-.47-.47a4.49,4.49,0,0,0-.52-.4,2.33,2.33,0,0,0-.54-.35,6.2,6.2,0,0,0-.58-.28l-.62-.19c-.21,0-.43-.07-.64-.11a4.31,4.31,0,0,0-.65,0,3.92,3.92,0,0,0-.66,0,4.94,4.94,0,0,0-.66.1,5,5,0,0,0-.66.15,10,10,0,0,0-1.3.44,10.58,10.58,0,0,0-1.23.58l-.2.11-.17-.11h0l-1-.48-.49-.24c-.17-.07-.35-.12-.52-.18l-1-.37-1.05-.24a6.57,6.57,0,0,0-1.06-.17,8.7,8.7,0,0,0-1.07-.1l-1.08,0-1.08.08a10.47,10.47,0,0,0-1.08.14,10.15,10.15,0,0,0-1.07.2,10.86,10.86,0,0,0-1.06.27c-.35.1-.71.18-1.05.31s-.7.23-1,.37l-1,.42a21.18,21.18,0,0,0-2,1l-.14.08-.09,0h0q-1.58-.06-3.15-.17c-.52-.05-1,0-1.57,0s-1,0-1.57,0-1,0-1.56,0l-1.56.06-1.55.16a13.43,13.43,0,0,0-1.54.2l-1.53.28-1.49.41c-.5.12-1,.34-1.45.51a11.23,11.23,0,0,0-1.4.62,11.86,11.86,0,0,0-1.32.76,6,6,0,0,0-.62.45,6.61,6.61,0,0,0-.59.47l-.56.52-.5.57a6.64,6.64,0,0,0-.8,1.24l-.12.28-.28-.07h0l-.68-.08c-.22,0-.45,0-.68,0a7.2,7.2,0,0,0-1.34.15,5,5,0,0,0-.66.15,4.86,4.86,0,0,0-.65.2,12.21,12.21,0,0,0-1.26.51c-.41.2-.82.41-1.21.64s-.79.47-1.17.74a25.17,25.17,0,0,0-2.24,1.67,50.5,50.5,0,0,0-4.13,3.84c-1.31,1.36-2.6,2.77-3.83,4.21l-.11.13h-.12c-.45.12-.88.22-1.31.38a5.37,5.37,0,0,0-.63.24,6.24,6.24,0,0,0-.62.28c-.41.2-.8.42-1.19.65s-.76.49-1.12.77-.71.57-1.07.85-.69.6-1,.93c-.65.64-1.29,1.3-1.88,2a47.21,47.21,0,0,0-3.33,4.46q-.77,1.16-1.51,2.36c-.5.79-1,1.61-1.43,2.42h0v0l-.07.09q-.42.49-.84,1a7.25,7.25,0,0,0-.8,1l-.73,1a12.17,12.17,0,0,0-.62,1.09,8,8,0,0,0-.55,1.13l-.46,1.16-.34,1.2a9.87,9.87,0,0,0-.25,1.23l-.11.62-.05.63a12.15,12.15,0,0,0-.08,1.25c0,.42,0,.84,0,1.26s0,.84.08,1.26.08.84.16,1.26.14.84.24,1.25a19.31,19.31,0,0,0,.66,2.45h0l.06.11-.08.2c-.23.55-.49,1.08-.73,1.62-.11.27-.2.55-.3.82s-.21.54-.29.82-.12.56-.19.84l-.1.41c0,.14,0,.28,0,.42s-.07.56-.08.83l0,.83a6.67,6.67,0,0,0,.13.81,3.82,3.82,0,0,0,.23.78,3.76,3.76,0,0,0,.33.74,5.46,5.46,0,0,0,.43.7,6,6,0,0,0,.52.65c.19.2.4.4.61.59a7.63,7.63,0,0,0,.67.53c.23.16.48.32.71.46l.22.13v.18h0l.08.7a4.44,4.44,0,0,0,.1.69l.13.68.19.66a4.81,4.81,0,0,0,.22.64,5.33,5.33,0,0,0,.26.62l.29.6.35.57a9.87,9.87,0,0,0,.8,1.07,10.32,10.32,0,0,0,.93,1l.51.44.54.41c.37.26.74.51,1.14.74s.8.45,1.21.65.84.38,1.26.56.86.34,1.31.48.88.29,1.34.41a37,37,0,0,0,5.53,1.1h.15l.14.21c.22.31.42.62.62.93a7.17,7.17,0,0,0,.63.91l.69.85a18.25,18.25,0,0,0,1.55,1.51l.85.66c.3.2.61.37.92.56a7.59,7.59,0,0,0,1,.49l.49.23c.17.07.34.12.51.18a10.63,10.63,0,0,0,1,.34c.35.08.7.2,1.06.26s.72.14,1.08.19.73.09,1.1.12.74.05,1.11.05a16.22,16.22,0,0,0,2.21-.09l.22,0,.09.11h0l1.71,1.71.07.07,0,.11h0c.28.93.51,1.87.76,2.8.14.46.31.9.47,1.36l.47,1.35.6,1.28a7.72,7.72,0,0,0,.64,1.25c.25.4.48.8.72,1.2s.57.73.84,1.1a7.85,7.85,0,0,0,.93,1l.49.49c.17.15.36.28.54.42a7.12,7.12,0,0,0,1.12.78l.59.35c.2.12.41.19.62.29l.63.28.66.21a10.73,10.73,0,0,0,1.35.34,12.06,12.06,0,0,0,1.39.18,11.13,11.13,0,0,0,1.39,0h.23l.09.12h0c.33.29.62.61,1,.88l.5.41.53.37a12.5,12.5,0,0,0,1.09.68,11.06,11.06,0,0,0,1.16.55c.39.17.8.3,1.2.43l.61.18.63.14c.42.08.84.17,1.27.21s.85.08,1.28.11.86,0,1.29,0,.87,0,1.3-.07c.87-.06,1.73-.19,2.59-.34a26,26,0,0,0,2.57-.58c.85-.22,1.7-.49,2.52-.78h0l.6.06-.13.2c.1.32.19.65.27,1a7.31,7.31,0,0,0,.36.93,5.75,5.75,0,0,0,.43.9,7.43,7.43,0,0,0,.5.87l.56.84.62.8c.2.27.44.52.65.78s.44.51.69.75.46.5.71.74l.74.71.76.7c.25.24.52.45.77.68.51.46,1,.9,1.59,1.32s1.08.86,1.62,1.28l.12.06,0,.24q.09.59.15,1.17a5.74,5.74,0,0,0,.24,1.14,6.78,6.78,0,0,0,.32,1.11l.4,1.08c.18.34.35.69.51,1a9.3,9.3,0,0,0,.58,1,8.65,8.65,0,0,0,.63,1c.23.31.44.64.68.95l.73.92.78.88c.25.3.54.57.81.86s.55.56.84.83.57.54.87.81.59.53.89.79c.59.53,1.22,1,1.84,1.52l.21.16-.06.2h0c0,.37,0,.73,0,1.08s0,.72,0,1.08.07.72.08,1.09.08.72.11,1.09.07.73.12,1.09.07.73.13,1.09l.3,2.19.34,2.2.36,2.2.36,2.21Q862.65,353.9,862.8,355Z"/><path class="cls-7" d="M788.42,228.25a21.23,21.23,0,0,1-.22-2.23c0-.28,0-.56,0-.83l0-.73.12-.73.63.2-.2.63-.14.68c0,.25-.08.53-.11.8A21.39,21.39,0,0,0,788.42,228.25Z"/><path class="cls-7" d="M802.2,251.13a5.24,5.24,0,0,1-.75,1.34,7.79,7.79,0,0,1-1.21,1.31,8.9,8.9,0,0,1-2,1.25c-.19.09-.39.19-.6.27l-.64.22a9.28,9.28,0,0,1-1.38.35,15.07,15.07,0,0,1-3,.23,18.53,18.53,0,0,1-3.23-.37l-.83-.16-.81-.23c-.53-.17-1.06-.35-1.59-.56a18.88,18.88,0,0,1-5.66-3.35,9.25,9.25,0,0,1-1.93-2.38,6.29,6.29,0,0,1-.8-2.65,6.58,6.58,0,0,1,.24-2.31,8.06,8.06,0,0,1,.64-1.65,8.92,8.92,0,0,1,.57-1l.22-.33,0,0-.17.36a9.27,9.27,0,0,0-.44,1,8.94,8.94,0,0,0-.49,1.64,7.15,7.15,0,0,0-.1,2.17,6.2,6.2,0,0,0,.82,2.41,8.62,8.62,0,0,0,1.86,2.18,18.41,18.41,0,0,0,5.51,3.09c.51.19,1,.37,1.54.53l.77.22.78.14a20.63,20.63,0,0,0,3.1.37,14.35,14.35,0,0,0,2.89-.18,10.67,10.67,0,0,0,1.3-.29l.61-.18.57-.22a10.11,10.11,0,0,0,1.93-1,10,10,0,0,0,1.3-1.09,7,7,0,0,0,.73-.84,3.67,3.67,0,0,0,.23-.32Z"/><path class="cls-7" d="M773.65,239.4a6.45,6.45,0,0,0,.07,1.33,7.62,7.62,0,0,0,.31,1.33c.08.23.18.47.29.71a5.18,5.18,0,0,0,.39.68l.22.33.26.29a5,5,0,0,0,1.13.94,3.21,3.21,0,0,0,.56.3,3.61,3.61,0,0,0,.5.22l.4.13.35.11-.15.63-.38-.12-.44-.14a4.13,4.13,0,0,1-.55-.24,3.68,3.68,0,0,1-.63-.34,4.72,4.72,0,0,1-.65-.46,4.82,4.82,0,0,1-.62-.59l-.29-.33-.25-.36a5.78,5.78,0,0,1-.44-.76,8.07,8.07,0,0,1-.75-3.29c0-.13,0-.23,0-.3v-.1Z"/><path class="cls-7" d="M803,259.47s-.22-.37-.59-.89a12.25,12.25,0,0,0-1.53-1.76,7.81,7.81,0,0,0-1-.76l-.48-.28-.45-.2-.39-.11a1.43,1.43,0,0,0-.3-.05l-.26,0,.06-.66.32.07a1.89,1.89,0,0,1,.36.1l.44.18.48.27.49.36a8,8,0,0,1,.93.9A13.12,13.12,0,0,1,803,259.47Z"/><path class="cls-7" d="M773.26,260.74a5.55,5.55,0,0,1-.68-.14c-.21,0-.44-.12-.69-.2s-.25-.1-.38-.14l-.39-.16a8.24,8.24,0,0,1-.73-.41l-.32-.23a1.87,1.87,0,0,1-.28-.22l-.52-.53.54-.38.38.52a1.59,1.59,0,0,0,.22.23l.26.25a7.59,7.59,0,0,0,.62.48l.35.21c.12.06.23.14.34.19s.45.22.64.29A5.69,5.69,0,0,0,773.26,260.74Z"/><path class="cls-7" d="M779.2,272.15a12.06,12.06,0,0,1-1.22.22,13.77,13.77,0,0,1-2.75.08,10,10,0,0,1-1.47-.24c-.23-.07-.46-.11-.66-.2s-.41-.14-.58-.23a5.34,5.34,0,0,1-.83-.46l-.3-.2.45-.55.25.2a4.73,4.73,0,0,0,.7.47c.15.09.33.16.51.25a6.21,6.21,0,0,0,.6.23,9.52,9.52,0,0,0,1.38.34,13.5,13.5,0,0,0,2.68.14,12,12,0,0,0,1.22-.12Z"/><path class="cls-7" d="M801.31,265.92a3.4,3.4,0,0,1-.55-.12l-.54-.16c-.36-.11-.72-.23-1.07-.36a22.34,22.34,0,0,1-2.09-.88c-.34-.17-.68-.35-1-.54-.17-.09-.33-.2-.49-.3a5.66,5.66,0,0,1-.48-.33c-.15-.12-.32-.22-.47-.36s-.3-.26-.44-.4l-.41-.46-.35-.54h0l.86.1a9.48,9.48,0,0,1-1.33,1.32,11.63,11.63,0,0,1-1.5,1.08,6.79,6.79,0,0,1-.81.45,6.05,6.05,0,0,1-.85.38,11.69,11.69,0,0,1-1.78.55,10.66,10.66,0,0,1-3.72.07,8,8,0,0,1-.9-.2c-.3-.08-.6-.13-.89-.24a18,18,0,0,1-1.69-.71c-.53-.3-1.09-.56-1.59-.89s-1-.67-1.48-1A19.59,19.59,0,0,1,775,260l-.59-.72-.49-.74q-.49-.74-1-1.45c-.34-.48-.68-1-1-1.43a14.32,14.32,0,0,0-1.15-1.34,11.15,11.15,0,0,1,1.3,1.21c.4.43.8.87,1.18,1.33s.75.92,1.12,1.38l.55.7.58.6c.42.39.85.78,1.31,1.13s.93.69,1.42,1,1,.63,1.48.92,1,.53,1.53.8,1.06.41,1.59.62c.27.1.55.13.82.2a6.78,6.78,0,0,0,.82.16,9.64,9.64,0,0,0,1.67.08,9.53,9.53,0,0,0,1.66-.18,10.54,10.54,0,0,0,1.6-.5,5.33,5.33,0,0,0,.77-.34,8.09,8.09,0,0,0,.74-.4,10.55,10.55,0,0,0,1.39-1,10.15,10.15,0,0,0,1.21-1.13l.49-.55.37.65h0l.22.43.29.42c.11.14.23.26.34.39s.26.25.38.37a4.74,4.74,0,0,0,.41.35c.14.11.28.23.43.34s.6.43.91.63a22.15,22.15,0,0,0,1.94,1.09c.33.17.67.33,1,.47l.52.21A3.37,3.37,0,0,0,801.31,265.92Z"/><path class="cls-7" d="M790.19,269.84a20,20,0,0,1-1.74-2.16,8,8,0,0,1-.93-1.72,2.75,2.75,0,0,1-.17-.67l0-.28.66.05v.19a2.14,2.14,0,0,0,.07.55,7.59,7.59,0,0,0,.68,1.7A19.89,19.89,0,0,0,790.19,269.84Z"/><path class="cls-7" d="M787.28,279.31a4.81,4.81,0,0,0,0,.62,6.85,6.85,0,0,0,.26,1.33,5,5,0,0,0,.24.67,4.2,4.2,0,0,0,.27.55l.31.51-.57.33-.25-.61a4.7,4.7,0,0,1-.19-.64,5.46,5.46,0,0,1-.14-.75,7.1,7.1,0,0,1,0-1.4A4.84,4.84,0,0,1,787.28,279.31Z"/><path class="cls-7" d="M793.1,281.46a9.78,9.78,0,0,0,1.74-1.84,4.55,4.55,0,0,0,.58-1,2.34,2.34,0,0,0,.14-.53,1.85,1.85,0,0,0,0-.25v-.24h0l.51-1.87.53,1.56a1.28,1.28,0,0,0,.1.16,2.09,2.09,0,0,0,.13.18,3.52,3.52,0,0,0,.31.34,3.79,3.79,0,0,0,.35.32,2.76,2.76,0,0,0,.39.28,3.08,3.08,0,0,0,.42.26l.44.22a3.27,3.27,0,0,0,.47.17l.48.16,0,.23-.52-.06a3.55,3.55,0,0,1-.53-.08l-.52-.13a3.54,3.54,0,0,1-.51-.18,3.31,3.31,0,0,1-.5-.22,4.62,4.62,0,0,1-.49-.27,4.52,4.52,0,0,1-.46-.33c-.07-.06-.15-.12-.22-.19a2.66,2.66,0,0,1-.23-.24l1-.31h0l-.07.4a2.75,2.75,0,0,1-.12.37,3.21,3.21,0,0,1-.34.65,5.25,5.25,0,0,1-.91,1A10,10,0,0,1,793.1,281.46Z"/><path class="cls-7" d="M806.57,272.26a9.61,9.61,0,0,0,.74.88,10.63,10.63,0,0,0,.85.81,9.6,9.6,0,0,0,1.06.79c.2.11.38.23.58.33a5.52,5.52,0,0,0,.58.26,4.23,4.23,0,0,0,.56.18,3.67,3.67,0,0,0,.5.11l.43.05h.61v1.06l-.35,0-.4-.06-.5-.13a4.73,4.73,0,0,1-.57-.21,4.82,4.82,0,0,1-.6-.29,6.08,6.08,0,0,1-.6-.37c-.2-.13-.38-.29-.57-.43a10.08,10.08,0,0,1-1-1,11.07,11.07,0,0,1-.75-.94,9.62,9.62,0,0,1-.63-1Z"/><path class="cls-7" d="M803.09,290.72c-.27-.5-.61-.63-.76-1.15-.05-.27-.13-.53-.17-.8a7,7,0,0,1-.09-.81,8.85,8.85,0,0,1,0-1.63c0-.27.05-.54.12-.81l.19-.79.27-.77a5.51,5.51,0,0,1,.33-.74,7.44,7.44,0,0,1,.38-.72l.44-.68c.29-.46.66-.85,1-1.28s.75-.77,1.12-1.16l-.05.06a4.06,4.06,0,0,1,.45-.45,3.41,3.41,0,0,1,.45-.37c.31-.22.61-.47.94-.66l1-.58c.32-.21.66-.35,1-.52l1-.5c.33-.17.68-.31,1-.45l2.06-.85c.34-.14.7-.25,1-.37l1.05-.36c.7-.23,1.4-.5,2.11-.7l4.27-1.22-.19.08h0c.67-.41,1.32-.76,2-1.1s1.36-.65,2.05-.95,1.39-.57,2.11-.81c.36-.12.71-.25,1.08-.35l1.09-.32,1.1-.26c.36-.1.74-.14,1.11-.22a11.16,11.16,0,0,1,1.12-.17c.38,0,.75-.09,1.13-.11l1.14,0a10.37,10.37,0,0,1,1.14,0,8,8,0,0,1,1.13.11l1.13.19-.32.11h0c.48-.63,1-1.23,1.51-1.81s1.06-1.16,1.63-1.7a29.56,29.56,0,0,1,3.67-3,17.77,17.77,0,0,1,2.1-1.21,10.11,10.11,0,0,1,2.35-.81,18.07,18.07,0,0,1,2.4-.26l2.34-.13c3.11-.15,6.23-.23,9.36-.14.78,0,1.56.05,2.34.09s1.56.1,2.34.16,1.56.16,2.34.29,1.55.28,2.32.46h-.11a5.87,5.87,0,0,0,.79-.14,8.1,8.1,0,0,0,.78-.23,7.18,7.18,0,0,0,1.47-.73,6.63,6.63,0,0,0,.67-.49,5.85,5.85,0,0,0,.59-.59,4.88,4.88,0,0,0,.51-.67,7.65,7.65,0,0,0,.42-.74,8.13,8.13,0,0,1-.34.78,5.06,5.06,0,0,1-.45.73,6.41,6.41,0,0,1-.55.66,7,7,0,0,1-.64.58,7.57,7.57,0,0,1-1.48.92c-.26.12-.53.24-.81.33a6.38,6.38,0,0,1-.86.24h-.12c-.76-.11-1.51-.22-2.28-.27s-1.54-.1-2.3-.14-1.54-.06-2.31-.05-1.54,0-2.32,0c-1.55,0-3.09.07-4.64.12l-4.64.22-2.32.14a17.08,17.08,0,0,0-2.23.22,12.3,12.3,0,0,0-4,1.74,28.49,28.49,0,0,0-3.66,2.72c-.58.5-1.16,1-1.72,1.54s-1.11,1.07-1.64,1.62h0l-.11.14-.21,0-1.08-.14a7.41,7.41,0,0,0-1.08-.07,9.57,9.57,0,0,0-1.09,0L835,269c-.36,0-.72.1-1.08.15a10.68,10.68,0,0,0-1.07.19c-.35.08-.71.13-1.07.24l-1.05.29-1,.34c-.35.11-.69.25-1,.38-.69.25-1.36.55-2,.85s-1.32.63-2,1-1.28.72-1.87,1.1h0l-.09.05-.1,0-4.24,1.12c-.71.19-1.39.44-2.09.65l-1,.33c-.35.12-.7.21-1,.35l-2,.79a10.65,10.65,0,0,0-1,.42l-1,.46a10.73,10.73,0,0,0-1,.48l-.93.54c-.32.17-.59.4-.88.59a2.94,2.94,0,0,0-.41.32,3.9,3.9,0,0,0-.34.32l0,0,0,0c-.36.36-.73.71-1.08,1.07s-.67.76-.94,1.18l-.42.63a6.52,6.52,0,0,0-.36.66,4.92,4.92,0,0,0-.32.68l-.27.7-.19.72c-.07.24-.08.49-.13.74a8.22,8.22,0,0,0-.06,1.49,6.35,6.35,0,0,0,.07.75c0,.25.09.49.14.74a7,7,0,0,0,.5,1.39Z"/><path class="cls-7" d="M829,254.51a5.07,5.07,0,0,1,.73.13c.23,0,.51.13.82.23a8.59,8.59,0,0,1,1,.42,9.49,9.49,0,0,1,1.15.65,8.35,8.35,0,0,1,1.13,1,8,8,0,0,1,1,1.24,7.45,7.45,0,0,1,.4.72,4.27,4.27,0,0,1,.35.75,8.74,8.74,0,0,1,.46,1.59,8.65,8.65,0,0,1,.21,1.59,14.39,14.39,0,0,1,0,1.5c0,.47-.08.92-.11,1.33a7.67,7.67,0,0,1-.16,1.11l-.16.85-.14.75-1.13-.31.18-.7.21-.8a7.06,7.06,0,0,0,.22-1l.18-1.25a13.83,13.83,0,0,0,.06-1.41,8.05,8.05,0,0,0-.1-1.5,7.89,7.89,0,0,0-.33-1.51,3.72,3.72,0,0,0-.28-.72,6.94,6.94,0,0,0-.33-.7,7.51,7.51,0,0,0-.87-1.22,7.88,7.88,0,0,0-1-1,9.4,9.4,0,0,0-1.07-.7,8.58,8.58,0,0,0-1-.48c-.3-.12-.57-.22-.8-.28a5.09,5.09,0,0,0-.71-.17Z"/><path class="cls-7" d="M811,258l0,.1c0,.07.09.14.15.24s.37.54.66.9a17.89,17.89,0,0,0,2.34,2.43,10.54,10.54,0,0,0,1.42,1,5.78,5.78,0,0,0,.69.38,4.55,4.55,0,0,0,.64.26,2.94,2.94,0,0,0,.54.14,1.33,1.33,0,0,0,.41,0h.35v1.34l-.5-.07a2.2,2.2,0,0,1-.55-.13,4,4,0,0,1-.67-.26,5.73,5.73,0,0,1-.72-.39,7,7,0,0,1-.73-.52,11.61,11.61,0,0,1-1.39-1.29,18.43,18.43,0,0,1-2.11-2.76c-.25-.4-.44-.75-.57-1a1.75,1.75,0,0,1-.17-.43Z"/><path class="cls-7" d="M819.28,257.84s-.1.23-.24.65c-.08.21-.14.47-.23.76s-.16.63-.22,1a11.11,11.11,0,0,0-.16,1.2c-.06.42,0,.88-.06,1.34a13.25,13.25,0,0,0,.12,1.43l.11.72c0,.24.12.47.18.71a8.6,8.6,0,0,0,.48,1.37l.13.33.17.31.33.6a10.44,10.44,0,0,0,.75,1.07,6.69,6.69,0,0,0,.77.87,6.55,6.55,0,0,0,.7.69l.59.48.51.42-.88,1.12-.53-.51-.6-.58a7.68,7.68,0,0,1-.71-.82,7.6,7.6,0,0,1-.76-1,11.26,11.26,0,0,1-.71-1.24l-.31-.69-.16-.35-.11-.37a9.37,9.37,0,0,1-.39-1.51c0-.26-.1-.51-.13-.77l-.06-.77a14.05,14.05,0,0,1,0-1.49c.06-.48.08-.95.18-1.38a11.6,11.6,0,0,1,.27-1.21c.09-.37.22-.7.31-1s.2-.55.29-.75a6.74,6.74,0,0,1,.29-.63Z"/><path class="cls-7" d="M834.56,252.65a3.19,3.19,0,0,0-.08-.37,2.64,2.64,0,0,0-.12-.41c-.06-.16-.1-.33-.19-.52l-.26-.6c-.08-.21-.22-.42-.34-.64a7,7,0,0,0-.38-.67c-.15-.22-.3-.44-.44-.67a4.91,4.91,0,0,0-.47-.65c-.16-.21-.32-.41-.47-.62s-.27-.42-.41-.6l-.41-.52c-.25-.32-.47-.59-.63-.77l-.18-.21a.13.13,0,0,0-.1,0l.1-.11a.15.15,0,0,0,0,.11l.21.18.77.64.52.42a6.54,6.54,0,0,1,.52.54c.17.19.35.4.52.61a4.71,4.71,0,0,1,.47.69l.43.71a5.65,5.65,0,0,1,.34.73,7.21,7.21,0,0,1,.27.7l.17.66a4.53,4.53,0,0,1,.09.57,2.66,2.66,0,0,1,0,.44A2.4,2.4,0,0,1,834.56,252.65Z"/><path class="cls-7" d="M838.47,243.17a3.07,3.07,0,0,1-.26,1.24,4,4,0,0,1-.27.56,5.61,5.61,0,0,1-.38.58,6.08,6.08,0,0,1-.49.56,5.3,5.3,0,0,1-.57.52,5.6,5.6,0,0,1-.62.46,5.32,5.32,0,0,1-.63.39c-.21.11-.41.25-.61.33l-.56.27c-.35.16-.66.26-.86.35l-.33.13-.19-.63.33-.1c.21-.07.51-.14.86-.27l.56-.21c.2-.07.4-.18.61-.27a5.06,5.06,0,0,0,.63-.33,5.19,5.19,0,0,0,.63-.39,5,5,0,0,0,.58-.45,6,6,0,0,0,.52-.5,5.7,5.7,0,0,0,.41-.53,3.82,3.82,0,0,0,.31-.52A3,3,0,0,0,838.47,243.17Z"/><path class="cls-7" d="M833.67,231.54l0,.43c0,.27.07.66.12,1.13s.13,1,.22,1.56c0,.28.12.57.16.87l.21.88c.09.29.15.59.27.86a7.14,7.14,0,0,0,.31.82,6.75,6.75,0,0,0,.34.74,7.05,7.05,0,0,0,.35.65c.13.19.23.38.33.54l.3.39.26.35,0,0-.35-.26-.39-.32c-.14-.14-.29-.29-.46-.47a4.79,4.79,0,0,1-.48-.62,5.37,5.37,0,0,1-.46-.75,7.78,7.78,0,0,1-.4-.85c-.13-.29-.2-.61-.31-.91s-.15-.63-.21-.94a8.74,8.74,0,0,1-.11-.92,9.47,9.47,0,0,1,0-1.64,8.78,8.78,0,0,1,.17-1.14A3.49,3.49,0,0,1,833.67,231.54Z"/><path class="cls-7" d="M823.71,240.59l.49-.1c.31-.05.75-.15,1.27-.26s1.13-.25,1.77-.41c.32-.08.65-.16,1-.26s.67-.19,1-.3.65-.23,1-.35.62-.27.92-.38l.82-.42.7-.43.55-.42a2.52,2.52,0,0,0,.39-.36l.34-.33.32.21s-.09.16-.27.44a3,3,0,0,1-.35.48,7.63,7.63,0,0,1-.53.56c-.22.18-.46.37-.72.56s-.56.35-.87.51a10.44,10.44,0,0,1-1,.43c-.34.12-.69.26-1,.35a15.63,15.63,0,0,1-4,.58c-.54,0-1,0-1.31,0S823.71,240.59,823.71,240.59Z"/><path class="cls-7" d="M841.28,211.71l-.28-.22c-.17-.14-.43-.33-.74-.57s-.66-.5-1-.77c-.19-.14-.39-.28-.6-.41s-.41-.28-.63-.4-.43-.25-.64-.37-.43-.21-.63-.32l-.6-.26-.56-.18-.48-.11a1.77,1.77,0,0,0-.38,0l-.33,0,0-.27.35-.05a2,2,0,0,1,.41,0,5.3,5.3,0,0,1,.54,0c.2,0,.41.08.63.14s.45.14.68.24a7.57,7.57,0,0,1,.69.33c.22.13.46.25.67.41a11.65,11.65,0,0,1,2.17,1.88c.26.29.46.55.6.73S841.28,211.71,841.28,211.71Z"/><path class="cls-7" d="M808.29,231.53s.51.79,1.33,1.91c.41.55.89,1.2,1.45,1.85.26.34.57.65.87,1s.62.66.95,1,.66.63,1,.89a11.54,11.54,0,0,0,1.05.78,8,8,0,0,0,1,.65,7.67,7.67,0,0,0,1,.51l.86.38.69.22.61.21v0l-.64-.07-.74-.1-.94-.25a7.94,7.94,0,0,1-1.08-.4,8.64,8.64,0,0,1-1.15-.58,9.9,9.9,0,0,1-1.15-.76,11.87,11.87,0,0,1-1.1-.9c-.35-.32-.69-.66-1-1s-.62-.7-.87-1.06-.52-.71-.73-1.06-.41-.68-.57-1a10.75,10.75,0,0,1-.9-2.18Z"/><path class="cls-7" d="M811.42,245.69a9.91,9.91,0,0,0,.59-1.3,11.75,11.75,0,0,0,.43-1.39,10.09,10.09,0,0,0,.26-1.63,7.91,7.91,0,0,0,0-.83,5.52,5.52,0,0,0-.06-.8,4.47,4.47,0,0,0-.13-.73,4,4,0,0,0-.19-.64l-.2-.52-.2-.38-.17-.33.58-.32.17.38.19.43.18.58a4.52,4.52,0,0,1,.15.7,4.79,4.79,0,0,1,.09.79,6.2,6.2,0,0,1,0,.85,8.07,8.07,0,0,1-.08.87,10.32,10.32,0,0,1-.39,1.65,12.15,12.15,0,0,1-.53,1.37,10,10,0,0,1-.68,1.26Z"/><path class="cls-7" d="M797,238.75l-.28-1.16c-.08-.39-.16-.78-.21-1.18s-.09-.79-.13-1.19,0-.8,0-1.2,0-.8,0-1.21.09-.8.13-1.2a10.56,10.56,0,0,1,.22-1.19l.13-.59.18-.58a10.1,10.1,0,0,1,.39-1.15l.47-1.12.59-1.06a8,8,0,0,1,.67-1c.25-.32.45-.67.73-1l.82-.89a7.83,7.83,0,0,1,.89-.83l.92-.79.07-.06h.09a14.23,14.23,0,0,1,1.75-.08c.58,0,1.16.06,1.73.12l.86.12.85.17c.28.06.56.14.84.21s.56.16.83.25a16.44,16.44,0,0,1,1.61.63,15.3,15.3,0,0,1,1.52.82c.24.16.49.3.72.47l.69.52c.46.34.85.77,1.27,1.15-.46-.34-.89-.72-1.37-1l-.71-.46c-.24-.15-.5-.27-.74-.4a7.57,7.57,0,0,0-.76-.37l-.77-.34-.8-.28c-.26-.1-.54-.17-.8-.25s-.54-.16-.81-.22-.54-.13-.82-.18l-.83-.13-.84-.09c-.56,0-1.12-.07-1.68-.07a13.68,13.68,0,0,0-1.66.08h0l.16-.07-.87.77a7.48,7.48,0,0,0-.84.81l-.78.86a11.61,11.61,0,0,0-.7.93,7.21,7.21,0,0,0-.64,1l-.58,1-.47,1.06a9.4,9.4,0,0,0-.4,1.09l-.19.55-.14.57c-.09.38-.19.75-.24,1.14s-.14.77-.17,1.16-.08.78-.09,1.17,0,.78,0,1.18,0,.79,0,1.18.06.78.1,1.18l.16,1.18Z"/><path class="cls-7" d="M789.93,234.18a9.15,9.15,0,0,1,.78-.93,9.8,9.8,0,0,1,.92-.85,6.24,6.24,0,0,1,.57-.43,7.32,7.32,0,0,1,.63-.39c.22-.12.45-.22.68-.32a5.82,5.82,0,0,1,.7-.21,3.84,3.84,0,0,1,.69-.11,3.55,3.55,0,0,1,.63,0l.53.06.4.11.35.1-.28.66-.28-.11-.33-.13-.45-.09a3,3,0,0,0-.54,0,3.35,3.35,0,0,0-.61,0,5.24,5.24,0,0,0-.65.14c-.22.07-.44.15-.65.24a8.66,8.66,0,0,0-2.18,1.43,9.37,9.37,0,0,0-.85.85Z"/><path class="cls-7" d="M807.13,211.48a15.21,15.21,0,0,1,1.35,1.5,18.77,18.77,0,0,1,2.4,3.75,11.87,11.87,0,0,1,.85,2.28,6.59,6.59,0,0,1,.17,1.14,4.51,4.51,0,0,1-.06,1.07c0,.17-.09.32-.13.47l-.19.41a2.83,2.83,0,0,1-.44.57,2.07,2.07,0,0,1-.35.29l-.13.09-.35-.49.09-.09a1.7,1.7,0,0,0,.23-.26,2.12,2.12,0,0,0,.27-.45l.1-.31.06-.36a3.56,3.56,0,0,0,0-.85,5.68,5.68,0,0,0-.22-1c-.1-.33-.22-.68-.36-1s-.3-.69-.48-1c-.71-1.37-1.56-2.68-2.2-3.67l-1.09-1.63Z"/><path class="cls-7" d="M811.55,212.71h.53c.33,0,.81,0,1.38.1a15.71,15.71,0,0,1,1.93.35l1.07.31c.35.14.72.25,1.08.41a8.85,8.85,0,0,1,1,.52,6.46,6.46,0,0,1,1,.62,5.89,5.89,0,0,1,.81.7,5.54,5.54,0,0,1,.61.74,4.07,4.07,0,0,1,.4.71,2,2,0,0,1,.2.58c.08.33.11.52.11.52s-.12-.16-.29-.44a2.51,2.51,0,0,0-.35-.47c-.16-.16-.29-.37-.51-.54s-.41-.38-.67-.56-.51-.38-.81-.54-.59-.35-.91-.51-.65-.31-1-.47-.68-.28-1-.42l-1-.38c-.33-.1-.64-.24-.95-.33l-.86-.29-1.3-.44C811.72,212.78,811.55,212.71,811.55,212.71Z"/><path class="cls-7" d="M825.83,212.71s-.42.1-1,.3a11.16,11.16,0,0,0-2.12.95,5.86,5.86,0,0,0-1,.71,4.15,4.15,0,0,0-.38.39,4.66,4.66,0,0,0-.28.38,3.2,3.2,0,0,0-.18.35,1,1,0,0,0-.09.28l-.06.25-.65-.12.11-.32a1.36,1.36,0,0,1,.15-.34,4,4,0,0,1,.26-.41c.12-.13.23-.28.37-.41a5.12,5.12,0,0,1,.47-.39,6.27,6.27,0,0,1,1.11-.65,11.42,11.42,0,0,1,2.24-.76C825.41,212.76,825.83,212.71,825.83,212.71Z"/><path class="cls-7" d="M823.78,229.78a7.67,7.67,0,0,1-5.37-2.14l0,0c.31.2,7.64,4.9,13.07-3.07l.55.37C829.45,228.72,826.38,229.78,823.78,229.78Z"/><path class="cls-7" d="M833.52,225.79a3.41,3.41,0,0,1-3.09-3v0a8.56,8.56,0,0,0,3.1,3Z"/><path class="cls-7" d="M830,205.11a6.35,6.35,0,0,1,1,.08,6,6,0,0,1,2.15.75,4,4,0,0,1,.52.37,3,3,0,0,1,.45.44,2.67,2.67,0,0,1,.35.47,2.3,2.3,0,0,1,.26.46c.15.29,0-.08,0,.11-.3-.3-.5,1-.5,1l-.05,0-.06-.23a2.61,2.61,0,0,0-.19-.6,1.59,1.59,0,0,0-.19-.37,1.79,1.79,0,0,0-.27-.38,2.25,2.25,0,0,0-.35-.36,3.33,3.33,0,0,0-.42-.32,5.28,5.28,0,0,0-1.86-.72,5.66,5.66,0,0,0-.91-.1Z"/><path class="cls-7" d="M849.47,210.94a2.08,2.08,0,0,0,0-.3,6,6,0,0,0,0-.8c0-.17,0-.34-.07-.53a3.1,3.1,0,0,0-.12-.58l-.18-.61a6.3,6.3,0,0,0-.26-.6c-.09-.2-.17-.4-.28-.59l-.35-.53-.32-.49c-.11-.15-.24-.27-.35-.4l-.73-.8.48-.46.69.92c.1.14.22.28.32.45l.29.55.31.58c.09.21.16.43.23.64a6.32,6.32,0,0,1,.21.64l.13.64a3.1,3.1,0,0,1,.07.6c0,.19,0,.38,0,.54a6,6,0,0,1-.07.81,2.06,2.06,0,0,1-.06.3Z"/><path class="cls-7" d="M852,260.79a2.34,2.34,0,0,1-.61-.3,3.21,3.21,0,0,1-.49-.44,3,3,0,0,1-.38-.53,3.11,3.11,0,0,1-.27-.58,3.32,3.32,0,0,1-.18-.61,3.64,3.64,0,0,1-.1-.62,7.84,7.84,0,0,1,0-1.22,10.65,10.65,0,0,1,.16-1.19c.09-.38.15-.78.27-1.15s.22-.75.36-1.11l.42-1.08,0-.06.06-.09c.11-.17.25-.39.37-.59s.23-.43.34-.65a13.61,13.61,0,0,0,.57-1.36,12.81,12.81,0,0,0,.4-1.42,7.3,7.3,0,0,0,.13-.72,5.14,5.14,0,0,0,.08-.73,6.45,6.45,0,0,0,0-.73l0-.73-.09-.72a4.21,4.21,0,0,0-.14-.71c-.06-.23-.1-.47-.18-.7l-.25-.68a14.51,14.51,0,0,0-.63-1.32l.09.13a5.55,5.55,0,0,1-.54-.77,7.59,7.59,0,0,1-.41-.78,8.93,8.93,0,0,1-.57-1.64,7.77,7.77,0,0,1-.17-.85,6.94,6.94,0,0,1-.1-.86,5.74,5.74,0,0,1,0-.86,8,8,0,0,1,0-.85l.09-.85c0-.28.1-.55.16-.83a6,6,0,0,1,.2-.82l.24-.8c.07-.27.2-.52.29-.78l.31-.77.74-1.49,0,.06c.73-1.76,1.41-3.58,2-5.4s1.18-3.67,1.68-5.52a41.14,41.14,0,0,0,1.13-5.63c.06-.47.09-.95.13-1.42s0-.95,0-1.42a10.6,10.6,0,0,0-.13-1.39,6.76,6.76,0,0,0-.36-1.32l.6-.27a7.48,7.48,0,0,1,.47,1.46,11.1,11.1,0,0,1,.21,1.49c0,.5,0,1,0,1.49s0,1-.08,1.48a42.09,42.09,0,0,1-1,5.8c-.44,1.91-1,3.78-1.58,5.64s-1.23,3.7-2,5.53l0,.06-.66,1.4-.27.72c-.08.24-.19.48-.25.72l-.2.74a6,6,0,0,0-.17.74c0,.25-.1.5-.13.74l-.07.75a7.07,7.07,0,0,0,0,.75,4.66,4.66,0,0,0,0,.74,5.73,5.73,0,0,0,.09.74,6.67,6.67,0,0,0,.15.72,7.51,7.51,0,0,0,.49,1.38,6.41,6.41,0,0,0,.34.63,4.38,4.38,0,0,0,.38.54l.08.09,0,0a15.68,15.68,0,0,1,.73,1.51l.29.79c.09.26.14.54.22.81a5.43,5.43,0,0,1,.16.83l.11.83,0,.84a7.94,7.94,0,0,1,0,.84,6.31,6.31,0,0,1-.09.83c0,.27-.07.55-.14.82a14.37,14.37,0,0,1-.44,1.6,15,15,0,0,1-.63,1.53c-.12.25-.25.5-.38.74s-.27.47-.45.74l.08-.15-.41,1c-.14.33-.23.68-.36,1s-.2.68-.3,1-.14.68-.22,1l-.06.51a4.43,4.43,0,0,0,0,.5,4.31,4.31,0,0,0,.08,1,2.21,2.21,0,0,0,.13.46,2.82,2.82,0,0,0,.2.43,2.43,2.43,0,0,0,.27.38,1.71,1.71,0,0,0,.34.29Z"/><path class="cls-7" d="M863.75,218.14a28.79,28.79,0,0,1,2.12,2,27.88,27.88,0,0,1,1.91,2.2c.31.38.58.79.85,1.2.14.21.26.42.39.63a6.77,6.77,0,0,1,.35.66,5.94,5.94,0,0,1,.32.68c.09.24.2.47.26.72s.14.5.18.76a1.68,1.68,0,0,1-.12.8h0v.1l-.1.12c-.57.67-1.13,1.36-1.67,2.06l-.8,1.06c-.26.35-.52.71-.77,1.07s-.48.73-.71,1.1c-.12.18-.22.37-.33.56s-.22.37-.31.57-.21.38-.29.57-.18.39-.25.58-.13.39-.21.59-.08.4-.13.6l0,.15v0h0c0,.1-.06.24-.07.36a3.05,3.05,0,0,0,0,.38,4,4,0,0,0,0,.76c0,.12,0,.25.06.37a3,3,0,0,0,.09.36,3.18,3.18,0,0,0,.12.36,2,2,0,0,0,.15.35c.06.11.1.24.17.35l.2.34c.12.23.31.44.45.67s.34.43.51.66.37.43.54.67h0l0,0,0,0a9.67,9.67,0,0,1,.71,1.18A12.18,12.18,0,0,1,868,245a12.94,12.94,0,0,1,.46,1.29c.07.22.13.44.18.66s.12.44.16.66A13.14,13.14,0,0,1,869,249a6.61,6.61,0,0,1,.05.68c0,.23,0,.45,0,.68l0,.68c0,.23-.05.45-.08.67a4.35,4.35,0,0,1-.12.67l-.15.66.07-.67a4.57,4.57,0,0,0,0-.67,11.78,11.78,0,0,0,0-1.33c0-.22-.06-.44-.08-.66s-.06-.44-.11-.65c-.08-.43-.19-.86-.31-1.28a20.94,20.94,0,0,0-.92-2.46q-.27-.6-.57-1.19c-.2-.39-.4-.78-.61-1.15l.07.07h0c-.27-.15-.52-.32-.78-.49s-.48-.4-.71-.61a7.51,7.51,0,0,1-.61-.73,5.47,5.47,0,0,1-.49-.84,2.84,2.84,0,0,1-.18-.46,2.87,2.87,0,0,1-.14-.48,4.31,4.31,0,0,1-.08-.5,3.1,3.1,0,0,1,0-.5,3.47,3.47,0,0,1,.17-1,3.05,3.05,0,0,1,.2-.46,2.47,2.47,0,0,1,.29-.44h0l-.05.17c0-.24,0-.48,0-.73s.09-.47.15-.7.15-.45.22-.67a5.07,5.07,0,0,1,.27-.64,14.43,14.43,0,0,1,1.41-2.36,24.25,24.25,0,0,1,1.69-2.13,24.72,24.72,0,0,1,1.89-2l-.09.22h0a1.26,1.26,0,0,1-.21-.64l-.12-.65c0-.22-.13-.43-.19-.65a5.37,5.37,0,0,0-.24-.64,6.45,6.45,0,0,0-.29-.63c-.11-.21-.21-.42-.32-.62-.23-.41-.47-.81-.73-1.21a27.3,27.3,0,0,0-1.66-2.33C865,219.59,864.39,218.86,863.75,218.14Z"/><path class="cls-7" d="M872.37,248.81a14.67,14.67,0,0,1-2,0c-.25,0-.51-.05-.75-.1a3.62,3.62,0,0,1-.66-.18,1.54,1.54,0,0,1-.27-.13,1.12,1.12,0,0,1-.2-.14l-.17-.16.54-.38.06.08s.07.06.11.1a.93.93,0,0,0,.18.12,4.74,4.74,0,0,0,1.22.45,14.65,14.65,0,0,0,2,.31Z"/><path class="cls-7" d="M876.27,227.24l-.28-.06-.32,0c-.13,0-.27,0-.42,0a8.8,8.8,0,0,0-1.06,0c-.19,0-.39,0-.59,0l-.61.09c-.41,0-.81.16-1.19.23a8.88,8.88,0,0,0-1,.27l-1,.3-.18-.64,1-.2a9.37,9.37,0,0,1,1.07-.17c.39,0,.81-.11,1.23-.12l.63,0c.21,0,.41,0,.61,0a9,9,0,0,1,1.07.09c.16,0,.3.05.42.08l.32.07Z"/><path class="cls-7" d="M872.08,222.55s.6-.69,1.4-1.77a21.68,21.68,0,0,0,1.24-1.9,11.92,11.92,0,0,0,.6-1.11c.21-.38.34-.79.52-1.18s.28-.81.37-1.21a10,10,0,0,0,.22-1.2,6.54,6.54,0,0,0,.07-1.13,5.86,5.86,0,0,0-.06-1c-.05-.31-.09-.6-.13-.86s-.14-.47-.19-.65l-.15-.58.59-.29s.12.2.31.57c.1.18.21.41.34.68s.18.6.28.95a5.17,5.17,0,0,1,.17,1.16,5.61,5.61,0,0,1,0,1.31,7,7,0,0,1-.25,1.37,11.54,11.54,0,0,1-.47,1.35c-.22.42-.4.86-.65,1.25a12.5,12.5,0,0,1-.76,1.12c-.25.36-.54.67-.8,1s-.54.55-.79.8a11.11,11.11,0,0,1-1.81,1.41Z"/><path class="cls-7" d="M887.64,216.75a4.18,4.18,0,0,1,.68.49,7.36,7.36,0,0,1,.61.6,5.45,5.45,0,0,1,.52.68,5,5,0,0,1,.43.75,4.87,4.87,0,0,1,.34.8,4.62,4.62,0,0,1,.24.84l.09.43,0,.44a5.66,5.66,0,0,1,0,.88l-.06.88-.16.86a4.27,4.27,0,0,1-.22.84l-.29.82c-.24.52-.51,1-.8,1.53s-.67.93-1,1.35l.06-.18h0c0,.39,0,.78.07,1.17s0,.78,0,1.17c0,.78-.08,1.56-.15,2.34l0,.28-.25,0h0c-.17.3-.42.25-.65.33s-.46.13-.7.2a13.83,13.83,0,0,0-1.36.52c-.22.1-.45.2-.66.31s-.44.21-.65.34c-.43.23-.84.5-1.26.77-.21.13-.4.28-.6.43s-.4.29-.59.45l-.58.47-.55.51c-.38.32-.71.7-1.06,1.05-.18.18-.33.38-.49.56l-.49.57,0,0,.42-.63c.14-.21.27-.43.43-.62.31-.4.6-.82,1-1.19l.51-.56.55-.53c.18-.18.37-.35.57-.51s.38-.34.59-.49a14.56,14.56,0,0,1,1.25-.89c.21-.15.44-.27.66-.4s.45-.25.68-.37a14.89,14.89,0,0,1,1.41-.64c.24-.09.49-.19.74-.26s.49-.23.81,0h0l-.28.32c0-.78,0-1.56,0-2.34,0-.39,0-.78,0-1.17s.08-.78.13-1.17h0v0l.06-.15a16,16,0,0,1,.69-1.48l.31-.74c.11-.24.23-.48.32-.73l.27-.74.14-.37.1-.38.2-.76.1-.77a4.54,4.54,0,0,0,0-.78v-.39l0-.39a4,4,0,0,0-.11-.78,4.34,4.34,0,0,0-.21-.76,4.66,4.66,0,0,0-.3-.74c-.11-.25-.25-.48-.37-.72a6.87,6.87,0,0,0-.47-.67A5.83,5.83,0,0,0,887.64,216.75Z"/><path class="cls-7" d="M896.24,229.64a5.37,5.37,0,0,1-.86,1.3,7.17,7.17,0,0,1-.53.55,6.25,6.25,0,0,1-.66.54,8.51,8.51,0,0,1-.76.5c-.27.15-.56.29-.84.42s-.59.25-.89.33-.59.19-.88.24l-.84.16-.76.08a4.86,4.86,0,0,1-.65,0h-.5a2.26,2.26,0,0,1-.44,0l0-.66a2.05,2.05,0,0,1,.42,0c.26,0,.64.06,1.09,0l.73,0,.81-.1c.28,0,.56-.11.86-.17s.57-.17.87-.25.56-.22.84-.34a8.42,8.42,0,0,0,.77-.42,6.34,6.34,0,0,0,.67-.47,7,7,0,0,0,.56-.48A5.36,5.36,0,0,0,896.24,229.64Z"/><path class="cls-7" d="M885.11,225.35a3.44,3.44,0,0,1,.67.26,4.27,4.27,0,0,1,1.29,1,3.58,3.58,0,0,1,.28.35,3.38,3.38,0,0,1,.24.37,3.3,3.3,0,0,1,.19.37,2.43,2.43,0,0,1,.13.34,3.41,3.41,0,0,1,.15.53l0,.21-.66.06v-.18a3,3,0,0,0-.06-.48,2.11,2.11,0,0,0-.07-.32,2.64,2.64,0,0,0-.11-.34,3.17,3.17,0,0,0-.16-.35,2.73,2.73,0,0,0-.21-.35,4,4,0,0,0-1.08-1.08A3.4,3.4,0,0,0,885.11,225.35Z"/><path class="cls-7" d="M895.86,223.07a5.82,5.82,0,0,0-.87-.3,6.81,6.81,0,0,0-2-.25,4.86,4.86,0,0,0-1,.13,2.84,2.84,0,0,0-.46.13,2.44,2.44,0,0,0-.4.15,3.31,3.31,0,0,0-.56.3l-.2.12-.35-.56.25-.12a3.88,3.88,0,0,1,.66-.27,2.88,2.88,0,0,1,.46-.12,3.21,3.21,0,0,1,.52-.09,5.21,5.21,0,0,1,1.13,0,7,7,0,0,1,2,.49A5.89,5.89,0,0,1,895.86,223.07Z"/><path class="cls-7" d="M885,251.76a11.22,11.22,0,0,0,1.68-.25,11.76,11.76,0,0,0,1.61-.48l.77-.32c.25-.11.49-.26.74-.38a8.24,8.24,0,0,0,.69-.44,5.14,5.14,0,0,0,.65-.5,4.26,4.26,0,0,0,.59-.56c.18-.21.38-.38.54-.6l.47-.65a6.19,6.19,0,0,0,.4-.7,4.73,4.73,0,0,0,.35-.73l.29-.76a5.35,5.35,0,0,0,.22-.78l.19-.79v.06a4.53,4.53,0,0,1,.19-.89,6.08,6.08,0,0,1,.31-.81,7.16,7.16,0,0,1,.89-1.47,7.06,7.06,0,0,1,.57-.64,6.63,6.63,0,0,1,.63-.57,5.67,5.67,0,0,1,.69-.5,4.73,4.73,0,0,1,.73-.43c.25-.12.5-.26.75-.37l.78-.29c.52-.2,1.06-.3,1.59-.45l1.62-.23,1.62-.07h.09l.05,0h0a10.41,10.41,0,0,1,1.67.83,7.64,7.64,0,0,1,.78.52,9.19,9.19,0,0,1,.74.58,8,8,0,0,1,.69.64,5.62,5.62,0,0,1,.62.71l.3.37.25.41a5.23,5.23,0,0,1,.46.84,7,7,0,0,1,.36.9l.23.95.07,1a4.48,4.48,0,0,1-.05,1,4.36,4.36,0,0,1-.17.94l-.28.91a4.58,4.58,0,0,1-.39.85c-.14.28-.28.55-.43.82l0-.36h0c.13-.09.14-.08.14-.07l0,0,0,.06.09.11.18.23.36.45.75.87c.25.3.51.56.77.84l.4.38a1.14,1.14,0,0,0,.2.15l.19.14h-.24a5.6,5.6,0,0,1,1.13-.23,3.7,3.7,0,0,1,1.14,0,2.08,2.08,0,0,1,.55.19,1.25,1.25,0,0,1,.25.15,2.58,2.58,0,0,1,.22.18,1.73,1.73,0,0,1,.32.46,2.44,2.44,0,0,1,.18.52,2.39,2.39,0,0,0-.25-.48,1.61,1.61,0,0,0-.36-.38l-.22-.13a1.11,1.11,0,0,0-.24-.09,1.79,1.79,0,0,0-.5-.09,3.27,3.27,0,0,0-1,.11,5.07,5.07,0,0,0-1,.35h0l-.12.06-.12-.06-.31-.15a1.8,1.8,0,0,1-.29-.17l-.5-.37c-.3-.27-.6-.54-.87-.83s-.54-.58-.81-.87l-.39-.45-.19-.23-.09-.12,0-.06,0,0s0,0,.09-.12h0l-.11-.12.08-.24c.09-.28.19-.55.29-.83a5.77,5.77,0,0,0,.27-.82l.19-.83a4.22,4.22,0,0,0,.09-.84,3.57,3.57,0,0,0,0-.83l-.08-.83c-.07-.27-.15-.53-.21-.8a5.92,5.92,0,0,0-.29-.78,4.19,4.19,0,0,0-.39-.74l-.21-.36-.26-.34a6.26,6.26,0,0,0-.54-.66,6.83,6.83,0,0,0-.59-.62,11.91,11.91,0,0,0-1.34-1.1,12.66,12.66,0,0,0-1.46-.93h0l.15,0L903,238l-1.51.34c-.49.16-1,.27-1.45.48l-.7.3c-.23.11-.44.24-.66.36a4.65,4.65,0,0,0-.63.4,4.9,4.9,0,0,0-.59.44,5.69,5.69,0,0,0-.54.5,6,6,0,0,0-.48.55,6,6,0,0,0-.77,1.23,5.11,5.11,0,0,0-.27.67,4.76,4.76,0,0,0-.16.66V244l-.24.86a6,6,0,0,1-.27.85l-.35.82a4.7,4.7,0,0,1-.43.79,6.88,6.88,0,0,1-.49.75l-.57.7a7.89,7.89,0,0,1-.64.62,4.75,4.75,0,0,1-.7.55,5.8,5.8,0,0,1-.74.48c-.26.14-.51.3-.78.41s-.54.24-.81.34-.55.19-.83.26A10.52,10.52,0,0,1,885,251.76Z"/><path class="cls-7" d="M904.86,237.65l-.57-.34c2.75-4.55-.83-9.44-.87-9.49v-.08C903.46,227.79,909,232.2,904.86,237.65Z"/><path class="cls-7" d="M890.55,259a12,12,0,0,0,.94-1.53,15.45,15.45,0,0,0,.77-1.67c.12-.31.23-.64.34-1s.21-.68.27-1a9.6,9.6,0,0,0,.18-1,7.33,7.33,0,0,0,.08-1c0-.17,0-.33,0-.49s0-.31,0-.47a5.61,5.61,0,0,0-.09-.84l-.12-.71-.15-.53-.13-.46.63-.2.11.5.13.57.08.76a6,6,0,0,1,0,.9c0,.16,0,.32,0,.49l0,.51a7.5,7.5,0,0,1-.15,1.05,10.3,10.3,0,0,1-.25,1.06c-.08.36-.22.69-.33,1s-.26.66-.4,1a15.66,15.66,0,0,1-.87,1.64A12,12,0,0,1,890.55,259Z"/><path class="cls-7" d="M907.48,266.8a.43.43,0,0,0,.13-.11,4.68,4.68,0,0,0,.3-.39c.25-.35.58-.86.94-1.5s.78-1.38,1.16-2.2.77-1.71,1.1-2.61a21,21,0,0,0,.78-2.69c.09-.43.15-.86.21-1.25s.09-.77.11-1.12,0-.67,0-.95,0-.53,0-.73c0-.41,0-.65,0-.65l.64-.16a5.64,5.64,0,0,1,.23.67,7.18,7.18,0,0,1,.22,1.86,9,9,0,0,1-.1,1.24,12.16,12.16,0,0,1-.28,1.34c-.12.46-.26.93-.43,1.39s-.36.93-.56,1.39a21.88,21.88,0,0,1-1.36,2.58,23.39,23.39,0,0,1-1.42,2.1,17.1,17.1,0,0,1-1.15,1.37,4.66,4.66,0,0,1-.37.34A.41.41,0,0,1,907.48,266.8Z"/><path class="cls-7" d="M922,258.19a4.54,4.54,0,0,0,.41-.57c.12-.17.23-.39.35-.61s.11-.24.16-.36a2.74,2.74,0,0,0,.15-.38,5,5,0,0,0,.2-.77,4.57,4.57,0,0,0,.08-.67c0-.39,0-.65,0-.65l.66,0-.08.75a4.9,4.9,0,0,1-.19.73,5.48,5.48,0,0,1-.33.79,3.17,3.17,0,0,1-.21.37c-.07.12-.14.24-.22.35s-.3.42-.45.58a4.59,4.59,0,0,1-.49.51Z"/><path class="cls-7" d="M911.4,236.34a10.79,10.79,0,0,0,.25-1.77c0-.22,0-.44,0-.64l-.06-.54-.13-.49.64-.17.05.62c0,.18,0,.39,0,.61s-.08.45-.13.67A10.88,10.88,0,0,1,911.4,236.34Z"/><path class="cls-7" d="M918.61,267.69a12,12,0,0,0,1.59-3.86,8.34,8.34,0,0,0,.14-1,3.32,3.32,0,0,0,0-.51c0-.17,0-.34,0-.51l-.07-.5a3.62,3.62,0,0,0-.11-.49,2.42,2.42,0,0,0-.15-.47l-.19-.46h0l-.33-1.53.87,1.16a4.55,4.55,0,0,0,.39.4c.14.13.31.24.47.36a2,2,0,0,0,.25.17l.27.14.54.28v0l-.61-.14-.31-.07a2.18,2.18,0,0,1-.3-.11c-.19-.08-.4-.15-.59-.25a4.66,4.66,0,0,1-.58-.35l.54-.37h0l.17.53a2.85,2.85,0,0,1,.13.54,4,4,0,0,1,.08.55l0,.55c0,.18,0,.37,0,.55a4,4,0,0,1-.06.54,9,9,0,0,1-.23,1.06,11.58,11.58,0,0,1-.8,2A12.06,12.06,0,0,1,918.61,267.69Z"/><path class="cls-7" d="M905.91,278.3l0-.16c0-.1,0-.27,0-.45s0-.41,0-.65-.05-.52-.1-.82-.12-.61-.22-.94c0-.17-.11-.33-.16-.5a5,5,0,0,0-.18-.52c-.14-.35-.28-.71-.45-1.08s-.34-.73-.51-1.1-.38-.73-.57-1.09-.39-.71-.58-1-.36-.68-.56-1-.35-.61-.51-.89c-.32-.55-.59-1-.77-1.34s-.27-.53-.27-.53l.08-.06.46.38c.14.13.32.28.51.46s.42.37.63.62a18.38,18.38,0,0,1,1.43,1.7c.24.33.49.67.72,1s.46.74.65,1.13a9.65,9.65,0,0,1,.55,1.2c.08.21.16.4.23.61l.17.62a7.16,7.16,0,0,1,.21,1.2l0,.57,0,.53a5,5,0,0,1-.38,1.58c-.07.18-.14.3-.18.39l-.05.15Z"/><path class="cls-7" d="M910.14,268.7a8.07,8.07,0,0,1-.65.9,8.18,8.18,0,0,1-.78.84,5.68,5.68,0,0,1-1.09.8,4.92,4.92,0,0,1-.65.3,4.56,4.56,0,0,1-.7.16,2.84,2.84,0,0,1-.69,0,2.57,2.57,0,0,1-.62-.12l-.5-.18-.35-.2-.31-.18.76-.91.2.16.22.19.33.18a1.65,1.65,0,0,0,.41.16,2,2,0,0,0,.5.08,3.88,3.88,0,0,0,.56,0,4.38,4.38,0,0,0,.58-.16,5.17,5.17,0,0,0,1.1-.56,7.89,7.89,0,0,0,.88-.68A8.13,8.13,0,0,0,910.14,268.7Z"/><path class="cls-7" d="M923.5,291.27l-.44,0c-.27,0-.62-.06-1-.12a9.17,9.17,0,0,1-.93-.19l-.42-.1v0h.43a8.82,8.82,0,0,0,.93,0c.34,0,.67-.05.92-.1l.41-.07Z"/><path class="cls-7" d="M907,296.38s.34,0,.92,0a16.14,16.14,0,0,0,2.39-.27,13.16,13.16,0,0,0,3.19-1,9.73,9.73,0,0,0,1.6-1,7.86,7.86,0,0,0,1.4-1.29,9,9,0,0,0,1.09-1.56,12,12,0,0,0,.73-1.71,17.58,17.58,0,0,0,.44-1.7c.08-.56.18-1.08.21-1.58s.08-.95.09-1.35a10.41,10.41,0,0,0,0-1.05c0-.58,0-.92,0-.92h.07s.06.33.15.92c0,.29.09.65.12,1.06q0,.31.05.66c0,.23,0,.48,0,.73a14.28,14.28,0,0,1-.09,1.65l-.14.9c-.05.31-.15.61-.23.93a10.35,10.35,0,0,1-.74,1.87,8.93,8.93,0,0,1-1.19,1.72,8.66,8.66,0,0,1-1.56,1.39,10,10,0,0,1-1.77,1,11.62,11.62,0,0,1-3.42.8,13.66,13.66,0,0,1-2.46,0A7.81,7.81,0,0,1,907,296.38Z"/><path class="cls-7" d="M917.59,296.88s-.33-.86-.73-1.66a5.1,5.1,0,0,0-.62-1A1.09,1.09,0,0,0,916,294c-.06,0,0-.16,0-.16l.39-.54a.2.2,0,0,1,.23,0,1.94,1.94,0,0,1,.29.41,5.1,5.1,0,0,1,.45,1.26A9.71,9.71,0,0,1,917.59,296.88Z"/><path class="cls-7" d="M905.33,281.21c-.18.51-.34,1-.49,1.53s-.32,1-.44,1.53l-.39,1.55c-.15.51-.22,1-.32,1.56l-.28,1.56c-.1.51-.17,1.08-.3,1.6a18.18,18.18,0,0,1-1,3.12,12.24,12.24,0,0,1-4.07,5.23,9.59,9.59,0,0,1-1.48.86c-.26.12-.53.22-.8.33l-.82.25a11.57,11.57,0,0,1-1.69.28c-.28,0-.57,0-.85,0l-.85,0h0l.2,0c-.73.14-1.42.22-2.14.3s-1.42.13-2.13.15c-.36,0-.71,0-1.07,0s-.71,0-1.07,0l-1.07,0-1.07-.1c-.36,0-.71-.09-1.06-.15a10.6,10.6,0,0,1-1.06-.2c-.35-.09-.7-.16-1-.26l-1-.34c-.34-.11-.66-.29-1-.42l-.49-.23-.47-.28a6.56,6.56,0,0,1-.91-.6l-.84-.7h.45c-1,.86-2,1.64-3.07,2.4s-2.14,1.46-3.25,2.13-2.24,1.29-3.41,1.86c-.58.28-1.17.56-1.76.82s-1.2.5-1.8.74a30.91,30.91,0,0,1-7.56,1.85c-.65.06-1.3.12-1.95.13s-1.31,0-2,0-1.3-.1-1.95-.21-1.28-.25-1.92-.37l.25,0a29,29,0,0,1-3.75,1.86,15.65,15.65,0,0,1-2,.68l-.52.12c-.18,0-.35.08-.53.1a6.63,6.63,0,0,1-1.09.07l0-.66a6.22,6.22,0,0,0,1-.06c.16,0,.33-.06.49-.09l.49-.11a15.31,15.31,0,0,0,1.92-.65,28.4,28.4,0,0,0,3.66-1.82l.11-.07.14,0c.62.12,1.23.29,1.86.36s1.26.15,1.89.2,1.27.06,1.9,0,1.27-.06,1.9-.12a30.28,30.28,0,0,0,7.39-1.81c.59-.23,1.19-.46,1.77-.72s1.16-.53,1.74-.8c1.15-.56,2.27-1.18,3.36-1.84s2.16-1.36,3.2-2.1,2.06-1.52,3-2.35l.21-.18.24.19h0l.81.61a5.81,5.81,0,0,0,.86.52l.44.24.47.19a9.88,9.88,0,0,0,.95.35l1,.28c.33.08.67.13,1,.2a9.6,9.6,0,0,0,1,.14c.34,0,.68.09,1,.1l1,.05h1c.34,0,.69,0,1,0s.68,0,1-.07c.68-.05,1.36-.14,2-.24s1.36-.22,2-.37l.07,0h.13l.75,0,.75,0a10.21,10.21,0,0,0,1.47-.21l.71-.2c.23-.09.47-.16.69-.26a8.32,8.32,0,0,0,1.31-.7,11.6,11.6,0,0,0,3.88-4.61,17.27,17.27,0,0,0,1.13-2.91c.15-.51.25-1,.39-1.53l.4-1.57a14.12,14.12,0,0,1,.44-1.55l.54-1.52a15.6,15.6,0,0,1,.6-1.49C904.87,282.17,905.09,281.68,905.33,281.21Z"/><path class="cls-7" d="M912.58,303.41h0a.33.33,0,0,1-.07.09.41.41,0,0,1-.17.1l-.21,0a3.55,3.55,0,0,1-.52,0,14.68,14.68,0,0,1-1.73-.18,22.13,22.13,0,0,1-5-1.45,17.46,17.46,0,0,1-2.5-1.31,11.34,11.34,0,0,1-2-1.55,7.86,7.86,0,0,1-1.11-1.4,4.8,4.8,0,0,1-.32-.6l.57-.34s.14.17.4.46a9,9,0,0,0,1.18,1.07,19.71,19.71,0,0,0,4.28,2.38,45.11,45.11,0,0,0,4.71,1.68c.66.19,1.2.36,1.59.44l.42.09s.06,0,0,0a.32.32,0,0,0-.14.09s-.05.1,0,.08h0Z"/><path class="cls-7" d="M878.46,319.35a77.62,77.62,0,0,1-12.11-1.16c-10.26-3.08-10.51-11.11-10.51-11.19h.66c0,.31.26,7.64,10,10.56.05,0,8.84,1.62,15.17,1,4.77.05,12.2-.13,13.25-.83l.37.55c-1.56,1-12.36,1-13.59.94C880.67,319.31,879.57,319.35,878.46,319.35Z"/><path class="cls-7" d="M872.9,334.24c-.7-.18-11.09-7.71-12.61-19.37l.88.56c1.44,11,10.93,17.8,11.9,18.18Z"/><path class="cls-7" d="M830,308.39s.58-.43,1.39-1.14a21.76,21.76,0,0,0,2.73-2.84,8.1,8.1,0,0,0,1.72-3.4,3.39,3.39,0,0,0,.06-.68,2.82,2.82,0,0,0,0-.51,2.31,2.31,0,0,0-.08-.32c0-.07-.08-.41-.08-.41l.7.1,0,.14a2.89,2.89,0,0,1,.07.4,3.57,3.57,0,0,1,0,.62,4,4,0,0,1-.11.78,8.53,8.53,0,0,1-2,3.5,22,22,0,0,1-2.92,2.71C830.61,308,830,308.39,830,308.39Z"/><path class="cls-7" d="M832.79,296.76a25.3,25.3,0,0,0,3.51,2.13h0a23.46,23.46,0,0,0,5.58,2.25,15.1,15.1,0,0,0,5.86.53l.73-.1.72-.16a13.32,13.32,0,0,0,1.4-.42,12.34,12.34,0,0,0,1.33-.59c.21-.12.44-.22.65-.34l.62-.39a14.27,14.27,0,0,0,1.18-.87c.38-.31.73-.66,1.1-1l1-1.08.93-1.16.26-.32.4.06h0c.86.13,1.77.21,2.66.26s1.8.09,2.7.08a34.31,34.31,0,0,0,5.35-.41,21.65,21.65,0,0,0,5.11-1.42c.4-.17.8-.36,1.18-.57s.76-.43,1.12-.66a11.57,11.57,0,0,0,1-.78,12.67,12.67,0,0,0,.94-.87l.29-.29.38.08h0c.4.1.83.19,1.26.26s.86.15,1.29.21q1.29.19,2.6.27a26.69,26.69,0,0,0,5.22-.13,15.64,15.64,0,0,0,5-1.44,10.22,10.22,0,0,0,1.14-.65,10.6,10.6,0,0,0,1.05-.79,9.55,9.55,0,0,0,.93-.93,10.76,10.76,0,0,0,.81-1h0a11.12,11.12,0,0,1-.74,1.11,9.64,9.64,0,0,1-.88,1,11.23,11.23,0,0,1-1,.87,10.75,10.75,0,0,1-1.12.75,16.19,16.19,0,0,1-5.06,1.83,27.63,27.63,0,0,1-5.38.49q-1.35,0-2.7-.1c-.45,0-.9-.08-1.35-.13s-.89-.11-1.36-.19h0l.67-.21a13.62,13.62,0,0,1-1.07,1,12.51,12.51,0,0,1-1.16.87c-.4.26-.81.51-1.24.73s-.85.43-1.29.62a23,23,0,0,1-5.44,1.5,35.71,35.71,0,0,1-5.57.41q-1.4,0-2.79-.09c-.93-.06-1.84-.15-2.79-.29h0l.66-.26-1,1.21-1.11,1.14c-.4.35-.79.71-1.21,1a15.48,15.48,0,0,1-1.31.92l-.68.42c-.23.13-.48.24-.71.36a13.28,13.28,0,0,1-1.48.62,14.48,14.48,0,0,1-1.54.43l-.79.15-.79.09a16.17,16.17,0,0,1-6.26-.69,24.27,24.27,0,0,1-5.67-2.59l.08-.14A25.54,25.54,0,0,1,832.79,296.76Z"/><path class="cls-7" d="M903.51,287.52l.16,0a.48.48,0,0,1,.31,0,10,10,0,0,0,.88.52,9.68,9.68,0,0,0,1.35.57c.25.08.52.15.8.22a8.47,8.47,0,0,0,.84.13l.43,0h.43a4.57,4.57,0,0,0,.83-.09,4.74,4.74,0,0,0,.77-.18,3.39,3.39,0,0,0,.67-.24,5.53,5.53,0,0,0,.56-.25l.41-.24.36-.21-.31.28-.37.32a5.59,5.59,0,0,1-.52.36,3.59,3.59,0,0,1-.66.37,4.41,4.41,0,0,1-.79.31,5,5,0,0,1-.89.21l-.47.07-.48,0a6.14,6.14,0,0,1-1,0c-.31,0-.62-.09-.91-.15a9.13,9.13,0,0,1-1.56-.51,8.52,8.52,0,0,1-1-.52.57.57,0,0,1-.23-.46Z"/><path class="cls-7" d="M883.22,281.09s-1.82-.75-3.67-1.38c-.46-.17-.93-.3-1.37-.44s-.85-.23-1.2-.33-.64-.13-.84-.17l-.32-.06.13-.79.34.1c.21.07.53.13.88.27s.77.28,1.19.46.88.37,1.33.59C881.48,280.16,883.22,281.09,883.22,281.09Z"/><path class="cls-7" d="M871.48,278.86a13.09,13.09,0,0,0,2.15-.35,4,4,0,0,0,.48-.14c.16-.05.34-.08.51-.15a11.29,11.29,0,0,0,1.05-.43,11.59,11.59,0,0,0,1.07-.57c.34-.23.69-.47,1-.75a9.59,9.59,0,0,0,.93-.87c.27-.33.59-.6.82-.94l.7-1,.56-.91a6.07,6.07,0,0,0,.45-.79l.33-.63.3-.54h0l-.15.6a11.52,11.52,0,0,1-.49,1.57l-.43,1c-.17.35-.4.71-.61,1.09a8.63,8.63,0,0,1-.78,1.09,10.65,10.65,0,0,1-1,1,12.71,12.71,0,0,1-1.11.87,7.72,7.72,0,0,1-1.21.66c-.21.08-.4.18-.61.25l-.61.17a6.25,6.25,0,0,1-1.13.17,5.67,5.67,0,0,1-1,0,5.51,5.51,0,0,1-.73-.12,3.66,3.66,0,0,1-.46-.14l-.15-.06Z"/><path class="cls-7" d="M863.5,282c-1.27.11-2.54.16-3.82.16l-1,0c-.32,0-.64,0-1-.06s-.64,0-1-.1l-1-.16.31-.07c-1,.85-2,1.63-3,2.38s-2.13,1.44-3.24,2.1a29.73,29.73,0,0,1-7.1,3.11c-.63.16-1.27.31-1.92.41a9.16,9.16,0,0,1-1,.13,8.55,8.55,0,0,1-1,.06,13.46,13.46,0,0,1-2-.09l-1-.17-1-.27a10.22,10.22,0,0,1-1.85-.8,5.75,5.75,0,0,1-.86-.53,10,10,0,0,1-.81-.6l-.75-.67c-.24-.23-.45-.49-.69-.73l-.34-.37-.31-.39c-.21-.26-.43-.52-.66-.76l1.38-.34h0a14.39,14.39,0,0,1-.38,1.83,16.75,16.75,0,0,1-.57,1.75,15.51,15.51,0,0,1-.76,1.67,13.27,13.27,0,0,1-1,1.57,11.1,11.1,0,0,1-1.21,1.4,7.47,7.47,0,0,1-.69.62,6.29,6.29,0,0,1-.75.55l-.39.26-.41.22-.41.21-.43.17-.43.17-.44.13a6.26,6.26,0,0,1-.89.22,11.91,11.91,0,0,1-1.81.2,14.08,14.08,0,0,1-1.8-.1,16.31,16.31,0,0,1-1.77-.3c-.58-.14-1.15-.3-1.72-.47s-1.13-.37-1.67-.61-1.1-.44-1.62-.71-1.06-.51-1.58-.8l-1.54-.86,1.58.78c.53.26,1.08.47,1.61.71s1.1.41,1.65.62,1.12.34,1.67.51,1.14.27,1.71.37a15.85,15.85,0,0,0,1.72.19,13.6,13.6,0,0,0,1.72,0,11.25,11.25,0,0,0,1.68-.28,5.53,5.53,0,0,0,.81-.24l.4-.14.38-.18.38-.18.36-.22.36-.21.34-.25a5.5,5.5,0,0,0,.65-.53,6.59,6.59,0,0,0,.59-.59,10.1,10.1,0,0,0,1-1.32,12,12,0,0,0,.81-1.47,14,14,0,0,0,.61-1.57,15.38,15.38,0,0,0,.44-1.63,13.35,13.35,0,0,0,.25-1.64h0l.58-1.91.81,1.57c.14.27.3.53.46.79a4.38,4.38,0,0,0,.54.74c.2.23.39.47.6.68l.66.62a8.62,8.62,0,0,0,.71.55,4.9,4.9,0,0,0,.76.49,9.06,9.06,0,0,0,1.64.75l.87.26.89.17a12.27,12.27,0,0,0,1.83.12,7.57,7.57,0,0,0,.92,0,8.38,8.38,0,0,0,.92-.1c.61-.07,1.22-.21,1.83-.35a28.93,28.93,0,0,0,7-2.87c1.1-.62,2.17-1.3,3.22-2s2.06-1.48,3-2.29l.14-.12.17,0,.9.23c.3.08.61.12.92.18s.62.11.93.14.63.08.94.11C861,281.91,862.23,282,863.5,282Z"/><path class="cls-7" d="M855.67,278a3.12,3.12,0,0,1,.28.48,4.61,4.61,0,0,1,.2.54,3.92,3.92,0,0,1,.14.65,3.17,3.17,0,0,1,.05.67v.31a1.92,1.92,0,0,1,0,.28l-.08.58-.63-.2.17-.49a1.58,1.58,0,0,0,.07-.24l0-.28a2.76,2.76,0,0,0,.07-.62,3.65,3.65,0,0,0,0-.63,4.35,4.35,0,0,0-.1-.54,3,3,0,0,0-.18-.51Z"/><path class="cls-7" d="M916.94,310l-.28.11-.79.28c-.34.11-.76.24-1.24.37s-1,.28-1.63.4-1.26.25-1.95.38-1.43.23-2.19.3-1.55.16-2.36.19-1.62.07-2.44.06-1.64-.05-2.44-.08-1.59-.15-2.35-.22-1.49-.24-2.18-.34-1.34-.26-1.93-.4-1.14-.26-1.62-.41l-1.23-.39-1.06-.35,1.1.2,1.25.24c.48.1,1,.14,1.64.24s1.24.2,1.94.25,1.41.15,2.17.18,1.53.11,2.32.1,1.59,0,2.4,0,1.6,0,2.39-.1,1.56-.12,2.31-.19,1.47-.18,2.15-.26,1.33-.19,1.92-.31c1.18-.21,2.17-.42,2.85-.58l.78-.2.28-.08Z"/><path class="cls-7" d="M868.87,306.3l.16.05.44.11c.18.06.42.07.68.13a7.9,7.9,0,0,0,.89.13l1,.13c.38,0,.77,0,1.18.08l.62.05h.64l1.3,0c.43,0,.87,0,1.3,0s.86,0,1.27,0,.81,0,1.19,0,.74,0,1.07,0a21.5,21.5,0,0,1,2.24.14,20.56,20.56,0,0,1-2.18.55c-.33.07-.69.14-1.07.2a9.13,9.13,0,0,1-1.21.13c-.42,0-.86.07-1.3.08a12.29,12.29,0,0,1-1.35,0l-1.35-.09a8.33,8.33,0,0,1-1.3-.17c-.42-.07-.82-.17-1.2-.25s-.73-.23-1.06-.34l-.46-.16-.4-.2a4.85,4.85,0,0,1-.64-.35A3.49,3.49,0,0,1,868.87,306.3Z"/><path class="cls-7" d="M856.86,309.74l1,.41c.22.09.54.23,1,.38l.71.26.86.25c.61.19,1.31.35,2.08.53s1.61.31,2.49.48,1.84.24,2.81.37,2,.15,3,.22l1.59.09,1.6.11c2.13.15,4.26.35,6.25.55l2.87.35,2.56.36c.8.1,1.52.27,2.16.38s1.2.22,1.65.35l1.42.39-1.45-.21c-.45-.09-1-.12-1.67-.18s-1.37-.13-2.17-.18l-2.57-.18-2.87-.15-6.24-.31-3.17-.14c-1.06-.07-2.11-.06-3.11-.22l-1.48-.19-.72-.1-.69-.14c-.91-.2-1.78-.33-2.55-.59a20,20,0,0,1-2.11-.68l-.86-.33-.72-.33a10,10,0,0,1-1-.51c-.23-.13-.33-.2-.33-.2Z"/><path class="cls-7" d="M861.82,318.78l.14.12.39.31c.17.13.38.29.64.46s.53.36.86.55.67.39,1,.6.78.41,1.21.57l.65.28.69.24c.46.18.95.28,1.43.42s1,.19,1.46.3l1.44.17,1.37.05c.44,0,.85,0,1.23,0a9.75,9.75,0,0,0,1-.06l.81-.09.71-.07-.68.21-.79.23a8.25,8.25,0,0,1-1,.23c-.39.06-.8.16-1.25.2l-1.42.1-1.53,0c-.52-.06-1-.12-1.57-.22a14.2,14.2,0,0,1-1.54-.38l-.74-.24-.7-.29a13.92,13.92,0,0,1-1.29-.64c-.39-.25-.77-.46-1.08-.7a9.18,9.18,0,0,1-.85-.68c-.25-.21-.45-.42-.61-.58s-.29-.31-.37-.41l-.12-.15Z"/><path class="cls-7" d="M904.74,326.53s-1.28.19-3.2.29c-1,.06-2.09.1-3.29.08s-2.49,0-3.77-.13c-.64-.06-1.28-.1-1.91-.17s-1.25-.12-1.84-.23-1.17-.17-1.71-.29-1.05-.2-1.52-.32l-1.27-.33c-.38-.1-.7-.22-1-.3l-.84-.27.86.2c.27.06.6.15,1,.22l1.29.22c.47.09,1,.14,1.53.22s1.12.12,1.71.18,1.21.09,1.83.14,1.26.06,1.9.08c1.27,0,2.54,0,3.74,0s2.3-.06,3.26-.1c1.91-.09,3.17-.18,3.17-.18Z"/><path class="cls-7" d="M869.06,324.88a2,2,0,0,0,.35.33,3.7,3.7,0,0,0,.44.3,6.14,6.14,0,0,0,.61.32,7.7,7.7,0,0,0,.75.29l.42.14.45.11c.29.09.62.13.94.2s.66.11,1,.16l1,.12c.33,0,.66,0,1,.09.64.08,1.24.1,1.76.17s1,.09,1.26.14l.49.09a11.42,11.42,0,0,1-1.73.43c-.26,0-.55.07-.85.1a6.68,6.68,0,0,1-1,.05,11.82,11.82,0,0,1-2.1-.14c-.35-.07-.71-.12-1.06-.22s-.68-.19-1-.33a6.41,6.41,0,0,1-.9-.42,5.42,5.42,0,0,1-.74-.49,3.59,3.59,0,0,1-.89-1A1.6,1.6,0,0,1,869.06,324.88Z"/><path class="cls-7" d="M895.91,329.55a2.42,2.42,0,0,1-.45.24,3.48,3.48,0,0,1-.55.19c-.22.05-.46.12-.73.16l-.87.08a7.07,7.07,0,0,1-1,0h-1l-1.06-.11c-.35,0-.71-.07-1.05-.14l-1-.23-.93-.21c-.29-.08-.56-.19-.81-.28l-1.65-.6,1.72.34.83.16.93.11,1,.11c.34,0,.68,0,1,0l1,0,1-.07a6.4,6.4,0,0,0,.91-.1l.81-.12c.49-.11.92-.15,1.19-.2a16.73,16.73,0,0,1,1.72.22Z"/><path class="cls-7" d="M888.47,333.54a2.43,2.43,0,0,1-.36.11,8.58,8.58,0,0,1-1,.21,13.67,13.67,0,0,1-1.41.15h-.8c-.27,0-.55,0-.82,0l-.82-.09a4.38,4.38,0,0,1-.79-.14,13.83,13.83,0,0,1-1.36-.37c-.77-.32-1.26-.54-1.26-.54l1.33.24a13.53,13.53,0,0,0,1.36.14,5.4,5.4,0,0,0,.77,0h.79c.26,0,.53,0,.79,0l.76,0c.49-.06,1-.07,1.35-.13l.95-.1.37,0Z"/><path class="cls-7" d="M914.75,307.25l-.16.09-.49.19c-.22.07-.48.13-.79.2a7.15,7.15,0,0,1-1,.16A9.87,9.87,0,0,1,911,308h-1.4c-.49,0-1-.08-1.48-.12l-1.52-.19c-.51-.07-1-.19-1.5-.3s-1-.22-1.44-.35a10.92,10.92,0,0,1-1.32-.39c-.41-.15-.81-.28-1.17-.43a22.44,22.44,0,0,1-2.35-1,23.27,23.27,0,0,1,2.55.27c.75.1,1.61.31,2.55.44.47.07.94.16,1.43.25s1,.21,1.47.3l1.47.24c.48.08,1,.2,1.42.24l1.33.18c.43.07.83.09,1.2.13s.72.09,1,.08.58,0,.79,0l.51,0Z"/><path class="cls-7" d="M871.57,300.09s0,.1.68.25l1.15.26,1.5.31c.55.13,1.15.24,1.78.35l2,.37,2.14.33c.73.11,1.47.24,2.22.31l2.22.25,1.09.12,1.07.05c.7,0,1.38.09,2,.13a16.59,16.59,0,0,0,1.82.07H895l-1,.11-2.73.27a16.76,16.76,0,0,1-1.83.06c-.65,0-1.34,0-2,0h-1.08l-1.11-.08-2.26-.16c-.76,0-1.51-.18-2.25-.27l-2.17-.31-2-.38c-.64-.12-1.24-.25-1.79-.39-1.11-.25-2-.51-2.66-.69s-1-.31-1-.31Z"/><path class="cls-7" d="M916,319a2.18,2.18,0,0,0-1.33.49,7.43,7.43,0,0,1-1.29.72,9,9,0,0,1-.92.34,8.5,8.5,0,0,1-1.06.26c-.37.09-.76.1-1.16.16s-.8,0-1.2,0-.8,0-1.19-.08-.77-.09-1.14-.17l-1-.25-.91-.3a13.8,13.8,0,0,1-1.31-.55l-.48-.23.53.08.6.1c.23,0,.5.07.78.11l.92.12,1,.08c.35,0,.72,0,1.09,0s.74,0,1.12,0,.74-.07,1.1-.09.72-.09,1.05-.16.67-.13,1-.2.59-.17.86-.23c.52-.17,1-.33,1.25-.45a4.11,4.11,0,0,1,1.34-.33Z"/></g></svg>