<svg xmlns="http://www.w3.org/2000/svg" viewBox="0 0 512 512"><defs><style>.cls-1{fill:red;}.cls-2{font-size:29px;font-family:TwCenMTPro-Bold, Tw Cen MT Pro;font-weight:700;text-decoration:underline;letter-spacing:-0.01em;}.cls-3{letter-spacing:-0.02em;}.cls-4{letter-spacing:0em;}.cls-5{letter-spacing:0em;}.cls-6{letter-spacing:0.02em;}.cls-7{letter-spacing:0.02em;}.cls-8{letter-spacing:-0.02em;}.cls-9{letter-spacing:-0.06em;}.cls-10{letter-spacing:0em;}</style></defs><title>Zeichenfläche 1</title><g id="Ebene_0_Bild" data-name="Ebene 0 Bild"><path class="cls-1" d="M238.57,430.73c-.5-1.42-.87-2.83-1.48-4.14-7.21-15.42-8.8-31.9-6.84-48.34,1.69-14.11,5.74-28,8.86-41.89,2-9.08,4.33-18.1,6.35-27.18,1.12-5,3.07-6.74,8.32-6.51,1.83.08,3.65.41,5.48.49,19.12.83,38.24,2.22,57.36,2.27,16.61,0,32.9-2.56,46.93-12.76,4.39-3.19,8.87-6.24,12.22-8.6,4.82,5.9,9.28,12,14.47,17.36,1.82,1.89,2.87,3,2.36,5.67s-.1,5.32-.1,8l2,.35,3.68-11.25,6.14,1.35c0,6.77-.39,13,.08,19.09,1.26,16.48-6,30.74-11.43,45.47-.54,1.46-2.09,2.54-3.17,3.8-4.18,4.9-8.46,9.73-12.51,14.73-2.41,3-1.66,5.56,2.17,6.17a68.55,68.55,0,0,0,13.39,1c9.36-.36,12.63-3.73,14.74-13,.48-2.12,3.22-5.53,4.44-5.34,4,.63,3.75-1.51,3.8-3.94a27.23,27.23,0,0,1,0-4.45c2.34-12.25,4.59-24.52,7.23-36.7,1.69-7.81,4-15.49,6.15-23.67l3.76,4,1.23-.21V298.93c5.36,4.09,10,7.55,14.48,11.11a4.31,4.31,0,0,1,1,2.1c.79,2.63,1,5.64,2.38,7.87,7.86,12.39,10.07,26,8.82,40.26-.63,7.19-1.86,14.6-4.45,21.28-2.45,6.31-7.14,11.73-10.67,17.65-2.27,3.8-1.44,6.51,2.89,6.76,6.68.38,13.63.35,20.11-1.1,9-2,13.14-10.07,8.88-18-1-1.88-.9-6.14.39-7.17,4.13-3.28,4.37-6.06,1.13-9.91-.87-1-1-2.8-1.23-4.27-.93-6.41-2.31-12.82-2.51-19.26-.54-17.43-2.13-34.92,2.59-52.18.83-3-1-6.9-1.89-10.29-1.08-3.95-3.7-7.81-3.61-11.67.28-12.23.7-24.56,2.57-36.61,2.93-18.87,7-37.58,10.78-56.31,3-14.86,6.37-29.63,5.17-45-.52-6.69-2.66-12.41-8.92-15.71-5.41-2.85-11-5.38-16.4-8.25-1.94-1-4.36-2.22-5.21-4-2.21-4.58-5.7-7-10.44-7.45-5.28-.46-10.61-.2-15.92-.38-4.42-.14-9.07.35-13.19-.87-9.76-2.88-19.43-3.39-29-.2-33,11-66.91,7.89-100.53,5.8-18.5-1.15-36.79-5.58-55.16-8.66q-22.86-3.83-45.67-8a6.21,6.21,0,0,1-3.39-2.35c-6.75-9-12.7-10.35-22.29-4.86-4.58,2.62-7,2.12-10.16-2.06-1.18-1.58-2.4-4.54-3.56-4.52-6.86.14-7.7-5.8-10.82-9.59-6.55-8-12.92-16.54-25.41-14-7.43,1.5-14.31,4.59-18.82,10.45C89.63,68,81,73.41,72.59,79.39c-3.61,2.58-6.27,2.38-9.74-.3C49.07,68.48,37,69.34,24.07,81.66c4.3,8.65,9.39,16.93,17.25,22.77,3.36,2.49,8.06,3.73,12.31,4.3s8.6-.33,12.9-.75c2.65-.26,3.35.79,3.56,3.35,1.33,16.22,3.9,32.39,1.6,48.73-.07.49.16,1,0,1.49-1.13,3.69-1.51,7.94-3.64,10.94-6.41,9-8.41,19-8,29.76.14,4,2.68,6.36,6.3,7.5a106,106,0,0,0,13.35,3.77,156.49,156.49,0,0,0,22.62,2.78c3.14.08,4.69.39,6.19,3.12,6.87,12.56,11.53,25.76,12.74,40.13,1,12.09,5.09,23.36,10.2,34.26,2.43,5.19,5.37,10.15,7.75,15.36,1.52,3.31,1.93,7.19,3.74,10.29,3.55,6.11,6.51,13.62,11.92,17.31,7.06,4.8,10.67,10.2,14.12,17.87,6.57,14.6,8.43,29.63,9,45.12a10.66,10.66,0,0,1-2,6c-3.88,5.58-8.08,10.94-12.15,16.38a34.61,34.61,0,0,0-3.49,4.84c-1.77,3.51-.52,6.47,3.27,6.44,7.42-.06,15-.1,22.21-1.73,8.53-1.94,11.09-7.18,10-16-.34-2.74-1.05-5.95,3.7-5.83.46,0,1.65-2.77,1.39-4-2.32-11.47-6.18-22.8-7-34.35-1-13.54.58-27.26,1.13-40.9a3.49,3.49,0,0,1,1.37-2.39c3.82-2.56,7.75-5,12.46-8-1.52,12.37-2.39,24.52-4.74,36.37-1.13,5.72-.7,9.78,2.39,14.8,9.32,15.15,12.63,31.3,5.18,48.46-1.11,2.56-1.47,5.44-2.28,8.14a41.54,41.54,0,0,1-2.55,7.34c-3,5.73-6.76,11.11-9.38,17-2.82,6.35-.25,11.14,6.49,12.19,9.33,1.46,18.35,0,26.15-5.73,6.54-4.8,7.85-11.57,4.11-18.61C231.84,435.74,233.52,431.75,238.57,430.73Z"/><path class="cls-1" d="M238.57,430.73c-5.06,1-6.74,5-4.36,9.49,3.74,7,2.42,13.81-4.11,18.61-7.8,5.72-16.82,7.19-26.15,5.73-6.73-1.06-9.31-5.84-6.49-12.19,2.62-5.89,6.37-11.27,9.38-17A41.54,41.54,0,0,0,209.4,428c.82-2.7,1.17-5.58,2.28-8.14,7.46-17.16,4.14-33.31-5.18-48.46-3.09-5-3.52-9.08-2.39-14.8,2.35-11.85,3.22-24,4.74-36.37-4.71,3-8.64,5.39-12.46,8A3.49,3.49,0,0,0,195,330.6c-.55,13.64-2.11,27.36-1.13,40.9.84,11.55,4.71,22.88,7,34.35.26,1.26-.93,4-1.39,4-4.75-.12-4,3.09-3.7,5.83,1.08,8.78-1.47,14-10,16-7.18,1.63-14.79,1.67-22.21,1.73-3.79,0-5-2.93-3.27-6.44a34.61,34.61,0,0,1,3.49-4.84c4.07-5.45,8.27-10.8,12.15-16.38a10.66,10.66,0,0,0,2-6c-.62-15.49-2.47-30.52-9-45.12-3.45-7.66-7.06-13.07-14.12-17.87-5.42-3.68-8.38-11.2-11.92-17.31-1.8-3.1-2.22-7-3.74-10.29-2.39-5.21-5.32-10.17-7.75-15.36-5.1-10.9-9.18-22.17-10.2-34.26-1.21-14.38-5.87-27.57-12.74-40.13-1.5-2.73-3-3-6.19-3.12a156.49,156.49,0,0,1-22.62-2.78,106,106,0,0,1-13.35-3.77c-3.62-1.14-6.16-3.5-6.3-7.5-.37-10.72,1.63-20.71,8-29.76,2.13-3,2.51-7.25,3.64-10.94.14-.45-.09-1,0-1.49,2.3-16.34-.27-32.51-1.6-48.73-.21-2.57-.91-3.61-3.56-3.35-4.3.42-8.71,1.32-12.9.75s-9-1.81-12.31-4.3C33.46,98.59,28.37,90.3,24.07,81.66c12.89-12.32,25-13.18,38.78-2.57,3.47,2.67,6.13,2.87,9.74.3,8.38-6,17-11.37,23.53-19.83,4.5-5.87,11.38-9,18.82-10.45,12.49-2.52,18.86,6,25.41,14,3.12,3.79,4,9.73,10.82,9.59,1.16,0,2.37,2.93,3.56,4.52,3.13,4.18,5.58,4.68,10.16,2.06,9.59-5.49,15.55-4.14,22.29,4.86a6.21,6.21,0,0,0,3.39,2.35q22.81,4.16,45.67,8c18.37,3.08,36.66,7.51,55.16,8.66,33.62,2.1,67.53,5.2,100.53-5.8,9.56-3.19,19.23-2.68,29,.2,4.12,1.22,8.78.72,13.19.87,5.31.17,10.64-.08,15.92.38,4.74.41,8.24,2.87,10.44,7.45.85,1.77,3.27,3,5.21,4,5.41,2.86,11,5.4,16.4,8.25,6.27,3.3,8.4,9,8.92,15.71,1.19,15.34-2.15,30.11-5.17,45-3.82,18.73-7.85,37.44-10.78,56.31-1.87,12.06-2.29,24.39-2.57,36.61-.09,3.86,2.53,7.72,3.61,11.67.93,3.39,2.72,7.25,1.89,10.29-4.72,17.26-3.13,34.75-2.59,52.18.2,6.44,1.58,12.85,2.51,19.26.21,1.47.36,3.23,1.23,4.27,3.24,3.85,3,6.63-1.13,9.91-1.29,1-1.4,5.29-.39,7.17,4.26,7.89.09,16-8.88,18-6.48,1.45-13.43,1.49-20.11,1.1-4.32-.25-5.16-3-2.89-6.76,3.53-5.92,8.22-11.34,10.67-17.65,2.59-6.67,3.82-14.08,4.45-21.28,1.25-14.21-1-27.86-8.82-40.26-1.41-2.23-1.58-5.24-2.38-7.87a4.31,4.31,0,0,0-1-2.1c-4.52-3.56-9.12-7-14.48-11.11V312.5l-1.23.21-3.76-4c-2.15,8.18-4.45,15.86-6.15,23.67-2.64,12.19-4.89,24.46-7.23,36.7a27.23,27.23,0,0,0,0,4.45c0,2.43.19,4.57-3.8,3.94-1.22-.19-4,3.22-4.44,5.34-2.1,9.23-5.38,12.6-14.74,13a68.55,68.55,0,0,1-13.39-1c-3.82-.61-4.57-3.2-2.17-6.17,4.06-5,8.33-9.83,12.51-14.73,1.08-1.26,2.63-2.34,3.17-3.8,5.47-14.72,12.7-29,11.43-45.47-.47-6.13-.08-12.32-.08-19.09l-6.14-1.35-3.68,11.25-2-.35c0-2.67-.38-5.41.1-8s-.54-3.78-2.36-5.67c-5.18-5.38-9.64-11.46-14.47-17.36-3.35,2.35-7.84,5.41-12.22,8.6-14,10.2-30.32,12.81-46.93,12.76-19.12-.05-38.24-1.44-57.36-2.27-1.83-.08-3.65-.4-5.48-.49-5.25-.24-7.2,1.48-8.32,6.51-2,9.08-4.32,18.1-6.35,27.18-3.11,13.94-7.17,27.77-8.86,41.89-2,16.44-.38,32.92,6.84,48.34C237.71,427.9,238.08,429.32,238.57,430.73Z"/></g><g id="cursor_Bild" data-name="cursor Bild"><path d="M311.47,201.54v20.78c2.64-.52,2.76-3.21,4.69-3.86,1.5,1.27,1.34,3.29,2.15,4.88.53,1,.8,2.44,2.28,1.78,1.32-.59.9-1.83.51-3-.54-1.64-1.67-3.14-1.4-5.5,2,.52,3.83,1.23,5.76.91Z"/><text class="cls-2" transform="translate(235.67 197.18)">T<tspan class="cls-3" x="13.46" y="0">Ö</tspan><tspan class="cls-4" x="34.48" y="0">T</tspan><tspan class="cls-5" x="48.26" y="0">E </tspan><tspan class="cls-6" x="69.92" y="0">B</tspan><tspan class="cls-7" x="85.82" y="0">E</tspan><tspan class="cls-8" x="100.37" y="0">R</tspan><tspan class="cls-9" x="116.7" y="0">T</tspan><tspan class="cls-10" x="128.79" y="0">A</tspan></text></g></svg>