<svg xmlns="http://www.w3.org/2000/svg" viewBox="0 0 1706.71 512"><defs><style>.cls-1,.cls-2{fill:red;}.cls-1{fill-rule:evenodd;}</style></defs><title>Zeichenfläche 1</title><g id="cursor_Bild" data-name="cursor Bild"><path class="cls-1" d="M95.16,180.85h134v38.7h-134Zm72.74,56.07h39.69v14.19H167.9Zm-51.9,0h39.6v14.19H116ZM82.26,318.69l159.27,1.69-.2,22.63L82.06,341.41Zm11.51-89.51h136L242.13,312c-47.43,0-111.44-1.29-158.87-1.29q5.2-40.78,10.51-81.57Z"/><path class="cls-2" d="M589.35,212.39V333.55h-6.73v17.83a5.37,5.37,0,0,1-5.2,5.43h-3.19a4.65,4.65,0,0,1-4.49-4.84V333.55H473.26v17.83a5.37,5.37,0,0,1-5.19,5.43h-3.19a4.65,4.65,0,0,1-4.48-4.84V333.55h-6.85V212.39H446.1a5.7,5.7,0,0,1-5.55-5.9v-2.6a5.81,5.81,0,0,1,5.55-6H595.49a5.81,5.81,0,0,1,5.55,6v2.6a5.7,5.7,0,0,1-5.55,5.9ZM514.71,223h15.82a4.06,4.06,0,0,1,3.9,4.14v4.72a4.06,4.06,0,0,1-3.9,4.13H514.71a4.06,4.06,0,0,1-3.9-4.13v-4.72a4.07,4.07,0,0,1,3.9-4.14Zm-1.18,56.81h15.83a4.09,4.09,0,0,1,3.9,4.24v4.61a4.1,4.1,0,0,1-3.9,4.25H513.53a4.09,4.09,0,0,1-3.89-4.25v-4.61a4.09,4.09,0,0,1,3.89-4.24Zm50.66-60.47H478.7v40.39h85.49Zm0,56.8H478.7v40.39h85.49Z"/><path class="cls-1" d="M821.76,168.9h47.06l1.12,136.28H804.17V187.47c0-10.2,8-18.58,17.59-18.58ZM928,355.58v11.59c0,1.12-1.82,2.1-3.91,2.1h0c-2.23,0-4-1-4-2.1V355.86H877.75L877.33,313h65.21v24.29c0,9.08-6.29,16.75-14.52,18.29Zm-93.55.28v11.31c0,1.12-1.68,2.1-3.91,2.1h0c-2.23,0-3.91-1-3.91-2.1V355.86h-4.89c-9.64,0-17.59-8.38-17.59-18.57V313h65.77l.42,42.86Zm68.83-32.95v-2.37a1.14,1.14,0,0,1,1.12-1.26h9.63a1.23,1.23,0,0,1,1.12,1.26v2.37a1.1,1.1,0,0,1-1.12,1.11h-9.63a1,1,0,0,1-1.12-1.11Zm-72.32,0v-2.37a1.14,1.14,0,0,1,1.11-1.26h9.64a1.23,1.23,0,0,1,1.12,1.26v2.37a1.1,1.1,0,0,1-1.12,1.11h-9.64a1,1,0,0,1-1.11-1.11Zm23.18-86.57h5.3a2.61,2.61,0,0,1,2.37,2.65v23.32a2.52,2.52,0,0,1-2.37,2.66h-5.3a2.52,2.52,0,0,1-2.37-2.66V239a2.61,2.61,0,0,1,2.37-2.65Zm32.39-.14h5.3a2.43,2.43,0,0,1,2.38,2.65v23.32a2.51,2.51,0,0,1-2.38,2.65h-5.3a2.6,2.6,0,0,1-2.37-2.65V238.85a2.52,2.52,0,0,1,2.37-2.65Zm-10.33-67.3h48.87c9.63,0,17.46,8.38,17.46,18.58v117.7H877.33Z"/><path class="cls-1" d="M1218.17,298.64h-13.61l9.49,40.22a2.74,2.74,0,0,0,2.68,2.16h.31a2.9,2.9,0,0,0,2.37-2.89v-39.6c-.41,0-.83.1-1.24.1Zm-56.52-31.14h55.17a6.12,6.12,0,0,1,6,6.29V287.5a6.21,6.21,0,0,1-6,6.39h-55.17a6.21,6.21,0,0,1-6-6.39V273.78a6.12,6.12,0,0,1,6-6.29Zm17-83.33h21.14c10.52,0,19.18,9.18,19.18,20.32v38c0,11.24-8.66,20.42-19.18,20.42h-21.14c-10.62,0-19.18-9.18-19.18-20.42v-38c0-11.14,8.56-20.32,19.18-20.32Zm-18.46,114.47c-.41,0-.82-.1-1.24-.1v39.6a2.89,2.89,0,0,0,2.48,2.89h.31a2.74,2.74,0,0,0,2.68-2.16l9.49-40.22Z"/><polygon class="cls-1" points="1431.14 199.11 1593.42 199.56 1612.48 259.36 1596.02 259.36 1596.02 325.63 1579.34 325.63 1579.34 259.36 1573.89 259.36 1573.89 315.76 1557.21 315.76 1557.21 259.36 1473.02 259.36 1473.02 316.32 1456.34 316.32 1456.34 259.36 1450.89 259.36 1450.89 326.09 1434.21 326.09 1434.21 259.36 1415.94 259.36 1431.14 199.11"/></g></svg>