<?xml version="1.0" encoding="utf-8"?>
<!-- Generator: Adobe Illustrator 22.0.0, SVG Export Plug-In . SVG Version: 6.00 Build 0)  -->
<svg version="1.1" id="Ebene_1" xmlns="http://www.w3.org/2000/svg" xmlns:xlink="http://www.w3.org/1999/xlink" x="0px" y="0px"
	 viewBox="0 0 841.9 595.3" style="enable-background:new 0 0 841.9 595.3;" xml:space="preserve">
<style type="text/css">
	.st0{display:none;}
	.st1{display:inline;fill:#804092;}
	.st2{fill:#FFFFFF;}
	.st3{font-family:'HelveticaNeue-CondensedBold';}
	.st4{font-size:126.5415px;}
	.st5{letter-spacing:3;}
	.st6{letter-spacing:4;}
</style>
<g id="Ebene_2" class="st0">
	<ellipse class="st1" cx="407.5" cy="290.1" rx="549.5" ry="248.4"/>
</g>
<text transform="matrix(1 0 0 1 339.9958 314.0194)"><tspan x="0" y="0" class="st2 st3 st4">B</tspan><tspan x="70.1" y="0" class="st2 st3 st4 st5">A</tspan><tspan x="143.8" y="0" class="st2 st3 st4 st6">N</tspan><tspan x="221.2" y="0" class="st2 st3 st4">D</tspan><tspan x="292.9" y="0" class="st2 st3 st4 st6">A</tspan></text>
<path class="st2" d="M248.6,340.4c7.7,0,14-6.3,14-14c0-7.7-6.3-13.9-14-13.9c-7.7,0-14,6.3-14,13.9
	C234.6,334.1,240.8,340.4,248.6,340.4"/>
<path class="st2" d="M290.1,246.2c7.7,0,14-6.3,14-14c0-7.7-6.3-13.9-14-13.9s-14,6.3-14,13.9C276.1,239.9,282.4,246.2,290.1,246.2"
	/>
<path class="st2" d="M154.3,318c7.7,0,14-6.3,14-14c0-7.7-6.3-13.9-14-13.9c-7.7,0-14,6.3-14,13.9C140.4,311.8,146.6,318,154.3,318"
	/>
<path class="st2" d="M195.9,223.8c7.7,0,14-6.3,14-14c0-7.7-6.3-13.9-14-13.9c-7.7,0-14,6.3-14,13.9
	C181.9,217.6,188.1,223.8,195.9,223.8"/>
</svg>
